SplineFontDB: 1.0
FontName: Norasi-BoldItalic
FullName: Norasi Bold Italic
FamilyName: Norasi
Weight: Bold
Copyright: Copyright © 1999, The National Font Project (v.beta ). Yannis Haralambous, Virach Sornlertlamvanich and Anutara Tantraporn. All rights reserved.\n\nThis release is under GPL license; maintained by TLWG
Version: 002 May 15, 2004
ItalicAngle: -15.5
UnderlinePosition: -100
UnderlineWidth: 50
Ascent: 800
Descent: 200
NeedsXUIDChange: 1
FSType: 0
PfmFamily: 17
TTFWeight: 700
TTFWidth: 5
Panose: 2 7 8 6 6 0 0 2 0 4
LineGap: 5
VLineGap: 0
ScriptLang: 3
 1 DFLT 1 dflt 
 1 thai 1 dflt 
 1 latn 1 dflt 
LangName: 1033 "" "" "" "TheNationalFontProject(v.beta).YannisHaralambous,VirachSornlertlamvanichandAnutaraTantraporn: Norasi Bold: 1999" "" "" "" "Norasi Bold is a trademark of the The National Font Project (v.beta ). Yannis Haralambous, Virach Sornlertlamvanich and Anutara Tantraporn." "" "Yannis Haralambous, Virach Sornlertlamvanich and Anutara Tantraporn" "This font was developed under the National Font Project at NECTEC as to be a free licensed font for Thai users and developers." "www.nectec.or.th/sll/" "" "GPL" 
Encoding: tis-620
UnicodeInterp: none
DisplaySize: -72
AntiAlias: 1
FitToEm: 1
WinInfo: 56 8 9
BeginPrivate: 4
BlueValues 31 [-12 0 307 315 385 393 457 468]
OtherBlues 11 [-163 -151]
ForceBold 4 true
BlueScale 8 0.039625
EndPrivate
BeginChars: 424 390
StartChar: .notdef
Encoding: 0 0 0
Width: 250
Flags: HW
HStem: 0 15<15 250> 370 15<0 235>
VStem: 0 15<0 370> 235 15<15 385>
Fore
15 370 m 1
 15 15 l 1
 235 15 l 1
 235 370 l 1
 15 370 l 1
250 0 m 1
 0 0 l 1
 0 385 l 1
 250 385 l 1
 250 0 l 1
EndSplineSet
EndChar
StartChar: exclam
Encoding: 33 33 2
Width: 265
Flags: HW
HStem: -9 100<82 109> 453 14<195 219>
VStem: 46 100<26 53>
Back
100.098 36.1328 m 0
 100.098 24.9023 96.1914 15.1367 88.3789 7.32422 c 0
 81.0547 0 71.7773 -3.90625 62.0117 -3.90625 c 0
 38.0859 -3.90625 25.8789 9.27734 25.8789 36.1328 c 0
 25.8789 61.5234 37.5977 76.1719 61.0352 80.0781 c 1
 85.4492 80.0781 98.6328 65.4297 100.098 36.1328 c 0
98.1445 399.902 m 1
 97.168 375 l 1
 71.7773 116.211 l 1
 50.7812 116.211 l 1
 46.3867 169.922 42.4805 215.82 39.0625 253.418 c 0
 35.6445 291.016 32.7148 324.219 29.7852 352.051 c 0
 28.8086 359.863 27.832 367.676 27.3438 375 c 0
 27.3438 382.324 26.8555 389.648 25.8789 396.973 c 0
 25.8789 439.453 37.5977 460.938 61.0352 460.938 c 0
 85.4492 460.938 98.1445 441.895 98.1445 402.832 c 2
 98.1445 399.902 l 1
EndSplineSet
Fore
134 139 m 1
 114 145 l 1
 134 251 147 332 150 386 c 0
 152 416 153 423 158 436 c 0
 168 455 184 467 205 467 c 0
 233 467 253 447 253 417 c 0
 253 399 249 388 231 356 c 1
 193 281 162 213 134 139 c 1
96 91 m 0
 122 91 145 66 145 40 c 0
 145 13 123 -9 95 -9 c 0
 67 -9 46 12 46 40 c 0
 46 68 68 91 96 91 c 0
EndSplineSet
EndChar
StartChar: quotedbl
Encoding: 34 34 3
Width: 378
Flags: HW
HStem: 454 14<144 166 322 343>
Back
204.102 389.16 m 1
 183.105 262.207 l 1
 153.809 262.207 l 1
 149.414 290.039 145.508 312.5 142.578 329.59 c 0
 139.648 346.68 137.207 359.863 135.742 369.141 c 0
 133.789 378.418 132.812 384.766 132.324 389.16 c 0
 132.324 393.066 131.836 396.484 131.836 398.926 c 0
 131.836 421.875 144.043 433.105 167.969 433.105 c 0
 191.406 433.105 203.125 421.875 204.102 398.926 c 1
 204.102 389.16 l 1
98.1445 389.16 m 1
 76.1719 262.207 l 1
 47.8516 262.207 l 1
 43.457 290.039 39.5508 312.5 36.6211 329.59 c 0
 33.6914 346.68 31.25 359.863 29.2969 369.141 c 0
 27.832 378.418 26.8555 384.766 26.3672 389.16 c 0
 26.3672 393.066 25.8789 396.484 25.8789 398.926 c 0
 25.8789 421.875 38.0859 433.105 62.0117 433.105 c 0
 85.4492 433.105 97.168 421.875 98.1445 398.926 c 1
 98.1445 389.16 l 1
EndSplineSet
Fore
121 272 m 1
 93 272 l 1
 104 418 l 1
 106 444 131 468 157 468 c 0
 175 468 188 453 188 434 c 0
 188 425 188 423 178 402 c 2
 177 399 l 1
 121 272 l 1
298 272 m 1
 270 272 l 1
 281 418 l 1
 283 444 309 468 335 468 c 0
 352 468 366 453 366 434 c 0
 366 425 365 423 356 402 c 2
 354 399 l 1
 298 272 l 1
EndSplineSet
EndChar
StartChar: numbersign
Encoding: 35 35 4
Width: 341
Flags: HW
HStem: 0 14 143 50<-9 43 117 173 247 293> 285 50<48 100 173 231 304 350>
Back
146.973 195.801 m 1
 214.844 195.801 l 1
 225.098 266.113 l 1
 158.203 266.113 l 1
 146.973 195.801 l 1
350.098 266.113 m 1
 283.203 266.113 l 1
 270.996 195.801 l 1
 333.984 195.801 l 1
 333.984 142.09 l 1
 263.184 142.09 l 1
 244.141 0 l 1
 187.012 0 l 1
 206.055 142.09 l 1
 139.16 142.09 l 1
 118.164 0 l 1
 62.0117 0 l 1
 81.0547 142.09 l 1
 14.1602 142.09 l 1
 14.1602 195.801 l 1
 90.8203 195.801 l 1
 101.074 266.113 l 1
 32.2266 266.113 l 1
 32.2266 319.824 l 1
 109.863 319.824 l 1
 129.883 452.148 l 1
 185.059 452.148 l 1
 166.016 319.824 l 1
 232.91 319.824 l 1
 251.953 452.148 l 1
 308.105 452.148 l 1
 289.062 319.824 l 1
 350.098 319.824 l 1
 350.098 266.113 l 1
EndSplineSet
Fore
307 193 m 1
 293 143 l 1
 227 143 l 1
 169 0 l 1
 115 0 l 1
 173 143 l 1
 96 143 l 1
 38 0 l 1
 -15 0 l 1
 43 143 l 1
 -23 143 l 1
 -9 193 l 1
 63 193 l 1
 100 285 l 1
 35 285 l 1
 48 335 l 1
 120 335 l 1
 180 478 l 1
 232 478 l 1
 173 335 l 1
 251 335 l 1
 310 478 l 1
 363 478 l 1
 304 335 l 1
 364 335 l 1
 350 285 l 1
 284 285 l 1
 247 193 l 1
 307 193 l 1
231 285 m 1
 154 285 l 1
 117 193 l 1
 194 193 l 1
 231 285 l 1
EndSplineSet
EndChar
StartChar: dollar
Encoding: 36 36 5
Width: 341
Flags: HW
HStem: 304 14<311 311> 435 23<174 190>
VStem: 54 68<356 368> 221 74<98 123>
Back
145.02 303.223 m 1
 145.02 429.199 l 1
 112.305 420.898 96.1914 400.879 96.1914 369.141 c 0
 96.1914 361.816 97.168 354.492 100.098 347.168 c 0
 102.539 339.844 106.445 334.473 110.84 331.055 c 2
 145.02 303.223 l 1
243.164 110.84 m 0
 243.164 130.371 236.816 147.461 224.121 162.109 c 0
 220.703 164.551 216.309 167.969 210.449 172.363 c 0
 204.59 176.758 196.777 182.617 187.012 189.941 c 1
 187.012 39.0625 l 1
 224.121 47.8516 243.164 71.7773 243.164 110.84 c 0
312.988 126.953 m 0
 312.988 57.6172 270.996 16.1133 187.012 1.95312 c 1
 187.012 -57.1289 l 1
 145.996 -57.1289 l 1
 145.996 0 l 1
 104.004 1.95312 63.4766 15.1367 23.9258 39.0625 c 1
 23.9258 141.113 l 1
 50.7812 141.113 l 1
 64.9414 75.6836 96.6797 41.0156 145.996 37.1094 c 1
 145.996 212.891 l 1
 128.906 224.121 113.281 234.375 100.586 243.652 c 0
 87.4023 252.441 76.6602 261.23 67.8711 269.043 c 0
 41.9922 294.922 28.8086 324.219 28.8086 355.957 c 0
 28.8086 390.625 42.4805 418.457 68.8477 438.965 c 0
 80.5664 447.754 92.2852 454.102 104.492 458.984 c 0
 116.699 463.867 130.859 466.797 145.996 467.773 c 1
 145.996 511.23 l 1
 187.012 511.23 l 1
 187.012 465.82 l 1
 232.91 458.008 l 2
 243.652 456.055 255.371 451.172 267.578 443.359 c 0
 279.785 436.035 288.086 428.711 291.992 421.875 c 1
 291.992 338.867 l 1
 265.137 338.867 l 1
 254.883 392.09 229.004 422.852 187.012 430.176 c 1
 187.012 278.809 l 1
 242.188 244.141 l 1
 277.832 214.844 l 1
 301.27 190.918 312.988 161.621 312.988 126.953 c 0
EndSplineSet
Fore
339 408 m 1
 311 317 l 1
 296 321 l 1
 297 328 297 337 297 341 c 0
 297 388 281 413 240 427 c 1
 199 280 l 1
 241 244 254 231 270 210 c 0
 286 189 295 162 295 137 c 0
 295 59 226 0 137 0 c 2
 122 0 l 1
 102 -68 l 1
 67 -68 l 1
 87 5 l 1
 44 15 23 27 -14 59 c 1
 15 156 l 1
 30 152 l 1
 32 78 46 51 94 29 c 1
 144 207 l 1
 72 262 54 287 54 333 c 0
 54 403 112 457 188 457 c 0
 193 457 199 457 214 456 c 1
 226 500 l 1
 260 500 l 1
 246 451 l 1
 269 447 301 434 327 418 c 1
 339 408 l 1
169 298 m 1
 207 434 l 1
 203 435 201 435 197 435 c 0
 152 435 122 409 122 370 c 0
 122 343 133 325 169 298 c 1
173 187 m 1
 127 22 l 1
 151 22 157 23 169 27 c 0
 201 39 221 69 221 107 c 0
 221 139 210 157 173 187 c 1
EndSplineSet
EndChar
StartChar: percent
Encoding: 37 37 6
Width: 568
Flags: HW
HStem: -7 31<411 413> 201 31<128 135> 399 26<286 302> 450 14<141 189>
VStem: 518 23<161 188>
Back
217.773 381.836 m 0
 217.773 386.23 216.309 394.043 212.891 405.762 c 1
 207.52 408.203 202.637 410.156 197.266 412.598 c 0
 192.383 415.039 187.5 417.48 182.129 420.898 c 2
 172.852 425.781 l 1
 153.809 423.828 134.766 404.785 116.211 368.164 c 0
 97.168 330.566 87.8906 300.293 87.8906 276.855 c 0
 87.8906 249.023 98.6328 234.863 120.117 234.863 c 0
 146.484 234.863 169.922 252.441 189.941 288.086 c 0
 208.496 321.289 217.773 352.539 217.773 381.836 c 0
478.027 180.176 m 0
 478.027 193.359 474.609 204.59 468.262 213.867 c 0
 462.402 223.145 453.125 228.027 440.918 228.027 c 0
 417.48 228.027 395.508 207.52 374.023 166.016 c 0
 356.445 129.883 348.145 101.562 348.145 80.0781 c 0
 348.145 51.7578 359.375 38.0859 381.836 38.0859 c 0
 406.738 38.0859 429.199 55.1758 450.195 89.8438 c 0
 459.961 105.469 467.285 120.117 471.68 134.766 c 0
 476.074 149.902 478.027 164.551 478.027 180.176 c 0
515.137 185.059 m 0
 515.137 142.09 502.441 102.539 477.051 64.9414 c 0
 449.707 21.4844 414.551 0 371.094 0 c 0
 340.332 0 317.383 9.27734 301.27 27.832 c 0
 285.645 46.875 277.832 70.8008 277.832 101.074 c 0
 277.832 139.648 293.457 177.246 325.195 213.867 c 0
 356.934 250 392.578 268.066 432.129 268.066 c 0
 487.305 268.066 515.137 240.234 515.137 185.059 c 0
428.223 473.145 m 1
 159.18 -6.83594 l 1
 105.957 -6.83594 l 1
 334.961 400.879 l 1
 316.895 395.508 299.805 393.066 284.18 393.066 c 0
 277.832 393.066 272.461 393.066 267.09 393.066 c 0
 261.719 393.066 256.348 393.555 250.977 395.02 c 1
 253.906 379.883 l 1
 253.906 364.746 252.441 349.609 249.023 334.473 c 0
 245.605 319.336 240.234 304.199 232.91 289.062 c 0
 229.492 281.738 223.633 271.973 214.844 259.766 c 0
 185.547 216.797 149.414 194.824 105.957 194.824 c 0
 78.125 194.824 56.1523 204.59 41.0156 224.121 c 0
 25.8789 243.164 18.0664 267.09 18.0664 294.922 c 0
 18.0664 334.961 33.2031 373.535 63.9648 410.156 c 0
 94.2383 445.801 129.883 463.867 171.875 463.867 c 0
 188.477 463.867 207.031 457.52 227.051 443.848 c 1
 250.488 433.105 268.555 428.223 280.762 428.223 c 0
 314.941 428.223 348.145 442.871 380.859 473.145 c 1
 428.223 473.145 l 1
EndSplineSet
Fore
462 257 m 0
 509 257 541 225 541 178 c 0
 541 126 519 69 482 30 c 0
 460 7 429 -7 398 -7 c 0
 343 -7 307 31 307 87 c 0
 307 131 331 181 368 216 c 0
 397 243 428 257 462 257 c 0
483 222 m 0
 467 223 449 210 434 186 c 0
 413 157 389 94 387 63 c 0
 386 42 401 25 421 25 c 0
 446 25 470 44 490 81 c 0
 509 115 518 146 518 175 c 0
 518 201 504 221 483 222 c 0
132 -5 m 1
 371 418 l 1
 341 406 315 399 289 399 c 0
 283 399 274 401 260 403 c 1
 259 342 248 303 218 261 c 0
 192 222 156 201 115 201 c 0
 63 201 27 240 27 294 c 0
 27 379 103 464 180 464 c 0
 199 464 212 459 232 444 c 0
 251 431 269 425 298 425 c 0
 341 425 375 439 413 472 c 1
 440 472 l 1
 171 -5 l 1
 132 -5 l 1
196 431 m 0
 184 432 168 418 153 397 c 0
 130 363 107 301 105 269 c 0
 104 248 118 232 138 232 c 0
 186 232 237 316 237 394 c 0
 237 409 236 410 217 418 c 0
 212 420 212 420 206 425 c 0
 201 429 199 430 196 431 c 0
EndSplineSet
EndChar
StartChar: ampersand
Encoding: 38 38 7
Width: 531
Flags: HW
HStem: -13 48<156 159> -12 54 443 23<275 301>
VStem: 3 91<103 117> 160 83<353 367> 326 55<382 410> 327 145<229 246>
Back
277.832 376.953 m 0
 277.832 390.137 273.926 401.367 266.602 410.645 c 0
 258.789 419.434 248.535 423.828 235.84 423.828 c 0
 208.496 423.828 194.824 407.715 194.824 375 c 0
 194.824 350.098 201.66 323.73 214.844 294.922 c 1
 256.836 318.359 277.832 345.703 277.832 376.953 c 0
172.852 41.9922 m 0
 194.824 41.9922 221.191 54.1992 251.953 78.125 c 1
 237.793 95.2148 223.633 116.211 208.496 140.137 c 0
 193.359 164.062 177.734 190.918 161.133 221.191 c 1
 123.047 188.965 l 1
 113.77 179.199 106.934 168.457 103.516 158.203 c 0
 99.6094 147.461 98.1445 137.207 98.1445 126.953 c 0
 98.1445 116.211 99.6094 105.957 103.516 95.7031 c 0
 106.934 84.9609 112.305 76.1719 119.141 67.8711 c 0
 125.488 60.0586 133.789 53.7109 143.066 48.8281 c 0
 152.344 44.4336 162.109 41.9922 172.852 41.9922 c 0
502.93 77.1484 m 1
 498.535 61.0352 491.211 47.3633 481.934 36.1328 c 1
 454.59 7.32422 424.805 -6.83594 392.09 -6.83594 c 0
 357.422 -6.83594 319.824 11.2305 279.785 46.875 c 1
 241.211 18.0664 l 2
 234.863 14.1602 228.027 10.2539 219.727 6.83594 c 0
 210.938 3.90625 202.148 0.976562 192.383 -0.976562 c 0
 182.617 -2.92969 173.34 -4.39453 163.574 -5.37109 c 0
 153.809 -6.34766 144.531 -6.83594 136.23 -6.83594 c 0
 99.1211 -6.83594 70.3125 1.95312 49.3164 20.5078 c 0
 28.3203 39.0625 18.0664 66.4062 18.0664 103.027 c 0
 18.0664 158.203 53.7109 207.031 125 249.023 c 2
 144.043 259.766 l 1
 134.766 287.109 128.906 307.129 126.465 318.848 c 0
 124.023 331.055 123.047 340.82 123.047 348.145 c 0
 123.047 363.281 125.977 377.93 131.348 391.602 c 0
 137.207 405.273 145.02 416.992 154.297 427.734 c 0
 164.062 437.988 175.781 445.801 188.965 452.148 c 0
 202.148 458.008 216.797 460.938 232.91 460.938 c 0
 260.254 460.938 283.691 453.613 303.223 438.477 c 0
 322.266 423.34 332.031 401.855 332.031 374.023 c 0
 332.031 343.262 319.336 316.895 293.945 293.945 c 0
 289.551 289.551 281.738 284.18 271.484 277.832 c 0
 261.23 271.973 248.535 265.137 232.91 256.836 c 1
 243.652 235.84 255.371 215.332 268.066 196.289 c 0
 280.762 177.734 293.945 159.18 308.105 142.09 c 1
 340.82 185.547 356.934 219.727 356.934 245.117 c 0
 356.934 258.789 342.773 266.113 314.941 266.113 c 1
 314.941 297.852 l 1
 477.051 297.852 l 1
 477.051 267.09 l 1
 456.543 263.672 443.359 260.742 437.988 257.812 c 0
 434.57 256.836 430.664 253.906 426.27 249.512 c 0
 422.363 245.117 417.48 238.77 413.086 230.957 c 2
 396.973 202.148 l 2
 387.207 184.57 376.953 167.969 366.699 151.855 c 0
 355.957 136.23 345.215 120.605 333.984 105.957 c 1
 340.82 96.6797 348.633 88.3789 358.398 80.5664 c 0
 368.164 72.7539 379.883 66.4062 393.066 61.0352 c 0
 399.902 57.6172 408.203 56.1523 418.945 56.1523 c 0
 432.129 56.1523 442.871 58.1055 450.195 62.9883 c 0
 454.102 64.4531 458.008 67.8711 462.402 73.2422 c 0
 466.797 78.125 472.656 85.4492 479.98 94.2383 c 1
 502.93 77.1484 l 1
EndSplineSet
Fore
459 69 m 1x62
 477 55 l 1
 436 5 406 -12 361 -12 c 0x5c
 325 -12 297 0 266 30 c 1
 221 -1 183 -13 135 -13 c 0x9c
 57 -13 3 33 3 101 c 0
 3 132 18 165 43 191 c 0
 66 216 88 228 167 262 c 1
 162 293 160 309 160 325 c 0
 160 408 211 466 286 466 c 0
 341 466 380 433 380 388 c 0x7c
 380 342 341 304 256 270 c 1
 264 220 287 160 315 115 c 1
 354 165 365 184 365 203 c 0
 365 218 356 225 327 229 c 1
 327 246 l 1
 472 246 l 1
 472 229 l 1
 429 221 426 218 332 91 c 1
 358 56 380 42 407 42 c 0
 425 42 440 49 459 69 c 1x62
173 234 m 1xbc
 115 206 94 178 94 130 c 0
 94 76 132 36 181 36 c 0
 202 36 220 41 247 55 c 1
 209 114 190 158 173 234 c 1xbc
250 296 m 1
 275 311 275 311 283 317 c 0
 309 338 326 367 326 397 c 0
 326 426 313 443 290 443 c 0
 259 443 242 414 242 362 c 0
 242 345 244 333 250 296 c 1
EndSplineSet
EndChar
StartChar: quotesingle
Encoding: 39 39 8
Width: 189
Flags: W
HStem: 468 21G<139 162>
Back
80.0781 438.965 m 0
 76.1719 440.918 70.3125 441.895 62.9883 441.895 c 0
 51.7578 441.895 41.9922 437.988 33.6914 430.176 c 0
 25.3906 421.875 20.9961 412.109 20.9961 399.902 c 0
 20.9961 388.672 25.3906 379.395 33.6914 371.582 c 0
 41.9922 363.77 51.7578 359.863 62.9883 359.863 c 0
 66.4062 359.863 69.3359 360.352 71.2891 360.352 c 0
 73.7305 360.84 76.1719 361.328 79.1016 361.816 c 1
 79.1016 356.934 l 2
 79.1016 347.168 75.6836 337.402 68.3594 328.125 c 0
 61.5234 318.848 53.7109 311.035 44.9219 305.176 c 0
 41.0156 301.758 37.5977 299.316 35.6445 298.34 c 0
 33.2031 297.363 32.2266 296.875 32.2266 296.875 c 1
 41.0156 271.973 l 1
 41.0156 271.973 44.9219 273.926 53.2227 277.832 c 0
 61.0352 282.227 69.8242 288.086 79.5898 296.387 c 0
 89.3555 304.688 98.1445 315.43 105.957 328.125 c 0
 113.77 340.82 118.164 355.957 118.164 374.023 c 0
 118.164 390.625 114.258 404.297 106.445 415.527 c 0
 98.6328 426.27 89.8438 434.57 80.0781 438.965 c 0
EndSplineSet
Fore
115 272 m 1
 87 272 l 1
 98 418 l 1
 100 444 126 468 152 468 c 0
 172 468 183 449 183 435 c 0
 183 423 177 411 171 399 c 2
 115 272 l 1
EndSplineSet
EndChar
StartChar: parenleft
Encoding: 40 40 9
Width: 227
Flags: HW
HStem: 454 14
VStem: 19 64<95 118>
Back
174.805 -121.094 m 1
 120.117 -86.4258 79.1016 -42.4805 51.2695 9.76562 c 0
 23.9258 62.5 9.76562 121.094 9.76562 186.035 c 0
 9.76562 309.57 65.4297 407.227 176.758 479.98 c 1
 190.918 455.078 l 1
 157.227 426.27 132.324 398.438 117.188 371.094 c 0
 110.84 360.352 105.469 347.656 101.074 332.52 c 0
 96.1914 317.383 92.7734 301.758 89.8438 285.156 c 0
 87.4023 268.555 85.4492 251.465 83.9844 233.887 c 0
 82.5195 216.797 82.0312 200.195 82.0312 185.059 c 0
 82.0312 145.02 83.0078 115.723 84.9609 96.6797 c 0
 86.9141 77.6367 90.332 62.0117 95.2148 49.8047 c 0
 106.445 17.0898 119.141 -11.2305 133.301 -35.1562 c 0
 147.949 -59.082 167.48 -79.5898 192.871 -97.168 c 1
 174.805 -121.094 l 1
EndSplineSet
Fore
223 468 m 1
 235 454 l 1
 180 403 154 371 130 315 c 0
 100 250 83 162 83 75 c 0
 83 -4 94 -46 132 -112 c 1
 116 -122 l 1
 47 -28 19 48 19 141 c 0
 19 190 28 235 46 276 c 0
 78 347 119 391 223 468 c 1
EndSplineSet
EndChar
StartChar: parenright
Encoding: 41 41 10
Width: 227
Flags: HW
HStem: 454 14<87 87>
VStem: 121 64<227 229>
Back
34.1797 -122.07 m 1
 88.8672 -87.4023 129.883 -43.457 157.715 8.78906 c 0
 185.059 61.5234 199.219 120.117 199.219 185.059 c 0
 199.219 308.105 143.555 406.25 32.2266 479.004 c 1
 18.0664 454.102 l 1
 51.7578 425.293 76.6602 397.461 91.7969 370.117 c 0
 98.1445 359.375 103.516 346.68 107.91 331.543 c 0
 112.793 316.406 116.211 300.781 119.141 284.18 c 0
 121.582 267.09 123.535 250.488 125 232.91 c 0
 126.465 215.82 126.953 199.219 126.953 184.082 c 0
 126.953 144.043 125.977 114.258 124.023 95.7031 c 0
 122.07 76.6602 118.652 61.0352 113.77 48.8281 c 0
 102.539 16.1133 89.8438 -12.207 75.6836 -36.1328 c 0
 61.0352 -60.0586 41.5039 -80.5664 16.1133 -98.1445 c 1
 34.1797 -122.07 l 1
EndSplineSet
Fore
-18 -122 m 1
 -30 -109 l 1
 22 -61 43 -35 65 10 c 0
 99 78 121 182 121 272 c 0
 121 350 109 396 72 457 c 1
 87 468 l 1
 123 419 137 396 153 358 c 0
 174 307 185 254 185 204 c 0
 185 138 167 78 131 23 c 0
 96 -32 61 -65 -18 -122 c 1
EndSplineSet
EndChar
StartChar: asterisk
Encoding: 42 42 11
Width: 341
Flags: HW
HStem: 454 14<168 188>
VStem: 173 10<302 310 329 337>
Back
258.789 291.016 m 0
 253.906 294.434 247.559 296.875 240.723 298.828 c 0
 233.398 300.781 226.074 303.223 218.262 305.176 c 0
 210.938 307.129 203.613 309.082 196.289 311.523 c 0
 189.453 313.965 183.594 316.406 179.199 318.848 c 1
 183.594 321.777 189.453 323.73 196.289 325.684 c 0
 203.613 327.148 210.938 329.102 218.262 331.055 c 0
 226.074 333.008 233.398 334.961 240.723 337.402 c 0
 247.559 339.844 253.906 342.285 258.789 345.215 c 0
 278.32 356.445 283.203 371.094 272.949 390.137 c 0
 261.719 408.691 246.094 412.109 227.051 399.902 c 0
 221.68 397.461 216.309 393.555 210.938 388.672 c 0
 194.824 372.559 l 0
 189.453 366.699 184.57 361.328 179.199 356.445 c 0
 173.828 351.562 168.457 347.656 164.062 345.215 c 1
 164.062 356.445 166.504 369.629 171.875 385.742 c 0
 177.246 401.367 180.176 415.039 180.176 426.758 c 0
 180.176 438.477 177.734 446.777 172.852 453.125 c 0
 168.457 458.984 160.156 461.914 147.949 461.914 c 0
 126.465 461.914 116.211 450.195 116.211 426.758 c 0
 116.211 415.039 118.652 401.367 124.023 385.742 c 0
 129.395 369.629 132.324 356.445 132.812 345.215 c 1
 128.418 347.656 123.535 351.562 118.164 356.445 c 0
 112.793 361.328 107.422 366.699 102.051 372.559 c 0
 85.9375 388.672 l 0
 80.5664 393.555 75.1953 397.461 69.8242 399.902 c 0
 49.8047 412.109 34.1797 408.691 22.9492 390.137 c 0
 12.207 371.094 17.0898 356.445 38.0859 345.215 c 0
 43.457 342.285 49.8047 339.844 57.1289 337.402 c 0
 64.4531 334.961 71.7773 333.008 79.1016 331.055 c 0
 86.4258 329.102 93.2617 327.148 100.586 325.684 c 0
 107.422 323.73 113.281 321.777 118.164 318.848 c 1
 113.281 316.406 107.422 313.965 100.586 311.523 c 0
 93.2617 309.082 86.4258 307.129 79.1016 305.176 c 0
 71.7773 303.223 64.4531 300.781 57.1289 298.828 c 0
 49.8047 296.875 43.457 294.434 38.0859 291.016 c 0
 17.0898 279.785 12.207 264.648 22.9492 246.094 c 0
 34.1797 227.539 49.8047 224.121 69.8242 235.84 c 0
 75.1953 239.258 80.5664 243.652 85.9375 248.535 c 0
 91.3086 253.418 96.6797 258.789 102.051 264.16 c 0
 107.422 269.531 112.793 274.414 118.164 279.297 c 0
 123.535 284.668 128.418 288.574 132.812 291.016 c 1
 132.324 280.273 129.395 267.09 124.023 250.977 c 0
 118.652 234.863 116.211 221.191 116.211 209.961 c 0
 116.211 186.035 126.465 173.828 147.949 173.828 c 0
 160.156 173.828 168.457 176.758 172.852 183.105 c 0
 177.734 188.965 180.176 198.242 180.176 209.961 c 0
 180.176 215.82 179.199 222.656 177.734 229.492 c 0
 175.781 236.328 173.828 243.652 171.875 250.977 c 0
 169.922 258.301 167.969 265.625 166.504 272.461 c 0
 165.039 279.297 164.062 285.645 164.062 291.016 c 1
 168.457 288.574 173.34 284.668 178.711 279.297 c 0
 183.594 274.414 188.965 269.043 194.336 263.672 c 0
 200.195 257.812 205.566 252.441 210.938 247.559 c 0
 216.309 242.676 221.68 238.77 227.051 235.84 c 0
 246.094 224.121 261.719 227.539 272.949 246.094 c 0
 283.203 264.648 278.32 279.785 258.789 291.016 c 0
EndSplineSet
Fore
173 329 m 1
 173 337 l 2
 173 360 168 377 155 399 c 0
 146 414 143 422 143 432 c 0
 143 453 157 468 178 468 c 0
 199 468 212 453 212 432 c 0
 212 422 210 414 201 399 c 0
 188 377 183 360 183 337 c 2
 183 329 l 1
 190 333 l 2
 210 345 218 353 235 379 c 0
 249 403 261 412 278 412 c 0
 295 412 311 394 311 374 c 0
 311 364 305 354 294 347 c 0
 284 341 277 339 257 339 c 0
 227 339 218 337 196 324 c 2
 188 320 l 1
 196 315 l 2
 218 302 226 301 257 300 c 0
 277 300 285 298 294 293 c 0
 304 287 311 275 311 265 c 0
 311 245 296 228 277 228 c 0
 260 228 249 236 235 261 c 0
 220 285 213 292 190 306 c 2
 183 310 l 1
 183 302 l 2
 183 280 188 264 201 241 c 0
 209 226 212 217 212 207 c 0
 212 186 199 172 178 172 c 0
 157 172 143 186 143 208 c 0
 143 217 147 226 155 241 c 0
 168 264 173 280 173 302 c 2
 173 310 l 1
 165 306 l 2
 143 292 136 285 121 261 c 0
 107 236 96 228 79 228 c 0
 60 228 44 245 44 265 c 0
 44 275 51 287 62 293 c 0
 70 298 79 300 98 300 c 0
 130 301 137 302 160 315 c 2
 167 320 l 1
 160 324 l 2
 137 337 128 339 98 339 c 0
 79 339 72 341 62 347 c 0
 51 354 44 363 44 375 c 0
 44 394 61 412 78 412 c 0
 94 412 106 403 121 379 c 0
 137 353 145 345 165 333 c 2
 173 329 l 1
EndSplineSet
EndChar
StartChar: plus
Encoding: 43 43 12
Width: 389
Flags: HW
HStem: 0 14 143 60<23 165 225 367>
VStem: 165 60<0 143 203 345>
Back
370.117 151.855 m 1
 220.215 151.855 l 1
 220.215 0 l 1
 167.969 0 l 1
 167.969 151.855 l 1
 17.0898 151.855 l 1
 17.0898 203.125 l 1
 167.969 203.125 l 1
 167.969 354.004 l 1
 220.215 354.004 l 1
 220.215 203.125 l 1
 370.117 203.125 l 1
 370.117 151.855 l 1
EndSplineSet
Fore
165 203 m 1
 165 345 l 1
 225 345 l 1
 225 203 l 1
 367 203 l 1
 367 143 l 1
 225 143 l 1
 225 0 l 1
 165 0 l 1
 165 143 l 1
 23 143 l 1
 23 203 l 1
 165 203 l 1
EndSplineSet
EndChar
StartChar: comma
Encoding: 44 44 13
Width: 170
Flags: HW
Back
80.0781 77.1484 m 0
 76.1719 79.1016 70.3125 80.0781 62.9883 80.0781 c 0
 51.7578 80.0781 41.9922 76.1719 33.6914 67.8711 c 0
 25.3906 60.0586 20.9961 49.8047 20.9961 38.0859 c 0
 20.9961 26.8555 25.3906 17.0898 33.6914 9.27734 c 0
 41.9922 1.95312 51.7578 -1.95312 62.9883 -1.95312 c 0
 66.4062 -1.95312 69.3359 -1.95312 71.2891 -1.46484 c 0
 73.7305 -0.976562 76.1719 -0.488281 79.1016 0 c 1
 79.1016 -4.88281 l 2
 79.1016 -15.1367 75.6836 -24.9023 68.3594 -34.1797 c 0
 61.5234 -43.457 53.7109 -50.7812 44.9219 -57.1289 c 0
 41.0156 -60.5469 37.5977 -62.5 35.6445 -63.4766 c 0
 33.2031 -64.4531 32.2266 -64.9414 32.2266 -64.9414 c 1
 41.0156 -89.8438 l 1
 41.0156 -89.8438 44.9219 -87.8906 53.2227 -83.9844 c 0
 61.0352 -80.0781 69.8242 -73.7305 79.5898 -65.4297 c 0
 89.3555 -57.1289 98.1445 -46.875 105.957 -34.1797 c 0
 113.77 -21.4844 118.164 -5.85938 118.164 12.207 c 0
 118.164 28.8086 114.258 42.4805 106.445 53.7109 c 0
 98.6328 64.4531 89.8438 72.2656 80.0781 77.1484 c 0
EndSplineSet
Fore
-32 -124 m 1
 -41 -108 l 1
 12 -79 40 -53 40 -28 c 0
 40 -18 35 -12 19 -1 c 0
 -1 12 -8 23 -8 42 c 0
 -8 70 12 91 40 91 c 0
 75 91 98 65 98 25 c 0
 98 -31 46 -89 -32 -124 c 1
EndSplineSet
KernsSLIF: 49 -17 0 0 146 -15 0 0
EndChar
StartChar: hyphen
Encoding: 45 45 14
Width: 227
Flags: HW
HStem: 113 79<18 169>
Back
247.07 83.0078 m 1
 29.7852 83.0078 l 1
 29.7852 116.211 l 1
 247.07 116.211 l 1
 247.07 83.0078 l 1
EndSplineSet
Fore
185 193 m 1
 169 113 l 1
 1 113 l 1
 18 193 l 1
 185 193 l 1
EndSplineSet
KernsSLIF: 264 -15 0 0 306 -8 0 0 309 -8 0 0 310 -8 0 0 65 -8 0 0 84 -40 0 0 86 -42 0 0 87 -40 0 0 89 -47 0 0
EndChar
StartChar: period
Encoding: 46 46 15
Width: 170
Flags: HW
HStem: -9 14
Back
99.1211 32.2266 m 0
 99.1211 21.4844 94.7266 12.6953 86.4258 5.37109 c 0
 78.125 -1.46484 68.8477 -4.88281 59.082 -4.88281 c 0
 48.8281 -4.88281 40.0391 -1.46484 32.7148 5.37109 c 0
 24.9023 12.6953 20.9961 21.4844 20.9961 32.2266 c 0
 20.9961 42.4805 24.9023 51.7578 32.2266 59.5703 c 0
 39.5508 67.3828 48.3398 70.8008 59.082 70.8008 c 0
 68.8477 70.8008 78.125 66.8945 86.4258 59.082 c 0
 94.7266 50.7812 99.1211 41.9922 99.1211 32.2266 c 0
EndSplineSet
Fore
45 92 m 0
 72 92 95 69 95 42 c 0
 95 13 72 -9 44 -9 c 0
 16 -9 -6 13 -6 41 c 0
 -6 70 16 92 45 92 c 0
EndSplineSet
KernsSLIF: 49 -21 0 0 148 -3 0 0 146 -18 0 0
EndChar
StartChar: slash
Encoding: 47 47 16
Width: 189
Flags: HW
HStem: -12 14 454 14<174 233 233 233>
Back
242.188 477.051 m 1
 55.1758 -117.188 l 1
 2.92969 -117.188 l 1
 188.965 477.051 l 1
 242.188 477.051 l 1
EndSplineSet
Fore
174 468 m 1
 233 468 l 1
 16 -12 l 1
 -44 -12 l 1
 174 468 l 1
EndSplineSet
EndChar
StartChar: zero
Encoding: 48 48 17
Width: 341
Flags: HW
HStem: -10 20<106 130> 446 20<209 232>
VStem: 12 70
Back
250 226.074 m 0
 250 360.84 225.098 428.223 175.781 428.223 c 0
 126.465 428.223 102.051 360.84 102.051 226.074 c 0
 102.051 91.7969 126.465 24.9023 175.781 24.9023 c 0
 225.098 24.9023 250 91.7969 250 226.074 c 0
330.078 226.074 m 0
 330.078 167.48 320.312 118.164 300.781 79.1016 c 0
 274.414 20.9961 232.91 -7.8125 175.781 -7.8125 c 0
 147.461 -7.8125 123.047 -0.488281 103.516 14.1602 c 0
 83.9844 28.8086 67.8711 47.3633 56.1523 70.3125 c 0
 43.9453 93.2617 35.1562 118.652 29.7852 145.996 c 0
 24.9023 173.34 21.9727 200.195 21.9727 226.074 c 0
 21.9727 251.465 24.9023 277.832 29.7852 305.664 c 0
 35.1562 333.008 43.9453 358.398 56.6406 381.348 c 0
 68.8477 404.297 84.9609 423.34 104.492 438.477 c 0
 124.023 453.613 147.949 460.938 175.781 460.938 c 0
 231.934 460.938 273.438 431.641 300.781 373.047 c 0
 320.312 332.52 330.078 283.203 330.078 226.074 c 0
EndSplineSet
Fore
223 466 m 0
 285 466 326 401 326 302 c 0
 326 195 272 71 203 20 c 0
 177 0 150 -10 121 -10 c 0
 55 -10 12 50 12 141 c 0
 12 242 54 352 117 417 c 0
 148 449 186 466 223 466 c 0
222 446 m 0
 197 446 178 419 152 348 c 0
 120 259 82 99 82 55 c 0
 82 28 96 10 116 10 c 0
 144 10 164 36 186 102 c 0
 202 147 236 279 247 337 c 0
 253 363 255 384 255 397 c 0
 255 428 243 446 222 446 c 0
EndSplineSet
KernsSLIF: 49 -34 0 0 55 -8 0 0
EndChar
StartChar: one
Encoding: 49 49 18
Width: 341
Flags: HW
HStem: 0 14 453 14<286 286>
Back
207.031 0 m 1
 19.043 0 l 1
 19.043 26.8555 l 1
 40.5273 26.8555 55.1758 29.7852 63.9648 35.1562 c 0
 72.7539 40.5273 77.1484 51.7578 77.1484 68.8477 c 2
 77.1484 367.188 l 2
 77.1484 381.836 73.2422 389.16 64.9414 389.16 c 0
 62.9883 389.16 45.8984 382.812 14.1602 371.094 c 1
 14.1602 396.973 l 1
 131.836 461.914 l 1
 148.926 458.984 l 1
 148.926 58.1055 l 2
 148.926 42.4805 152.832 33.2031 160.156 29.7852 c 2
 159.18 30.7617 l 2
 166.992 28.3203 183.105 26.8555 207.031 26.8555 c 1
 207.031 0 l 1
EndSplineSet
Fore
3 0 m 1
 3 16 l 1
 53 16 73 29 85 66 c 1
 172 380 l 1
 173 386 175 392 175 396 c 0
 175 411 165 418 143 418 c 0
 130 418 119 418 100 415 c 1
 102 431 l 1
 181 442 224 451 286 466 c 1
 181 84 l 2
 173 57 173 53 173 47 c 0
 173 22 185 16 239 16 c 1
 239 0 l 1
 3 0 l 1
EndSplineSet
KernsSLIF: 44 -25 0 0 56 -38 0 0 53 -30 0 0 52 -51 0 0 57 -27 0 0 49 -32 0 0 46 -26 0 0 55 -44 0 0 54 -42 0 0 51 -29 0 0 50 -21 0 0 48 -32 0 0
EndChar
StartChar: two
Encoding: 50 50 19
Width: 341
Flags: HW
HStem: 0 76<72 174 174 201> 405 61
VStem: 213 91<326 353>
Back
327.148 104.004 m 1
 287.109 0 l 1
 21.9727 0 l 1
 21.9727 19.043 l 1
 139.16 146.973 l 2
 192.871 206.543 220.215 260.742 220.215 310.059 c 0
 220.215 337.891 212.891 359.375 198.73 374.023 c 0
 184.082 388.672 163.574 395.996 136.23 395.996 c 0
 114.746 395.996 97.168 387.207 83.0078 370.117 c 0
 72.2656 357.422 61.5234 336.426 50.7812 307.129 c 1
 21.9727 314.941 l 1
 29.2969 359.863 44.9219 395.02 68.8477 421.387 c 0
 92.7734 447.754 125.977 460.938 167.969 460.938 c 0
 186.035 460.938 202.637 458.008 217.285 451.66 c 0
 232.422 445.312 245.605 436.523 256.836 424.805 c 0
 268.555 413.574 277.344 400.391 283.691 384.277 c 0
 290.039 368.652 292.969 352.051 292.969 333.984 c 0
 292.969 284.668 264.648 229.492 208.008 167.969 c 2
 113.77 65.918 l 1
 247.07 65.918 l 2
 259.766 65.918 270.02 68.8477 277.832 75.1953 c 0
 279.785 77.1484 283.203 81.0547 287.109 86.9141 c 0
 291.016 92.7734 295.898 101.562 301.758 112.793 c 1
 327.148 104.004 l 1
EndSplineSet
Fore
286 130 m 1
 232 0 l 1
 -18 0 l 1
 -18 16 l 1
 2 36 23 57 43 78 c 1
 171 205 213 268 213 330 c 0
 213 377 189 405 150 405 c 0
 114 405 86 386 59 346 c 1
 44 354 l 1
 63 391 74 408 94 425 c 0
 124 453 156 466 192 466 c 0
 255 466 304 416 304 352 c 0
 304 300 270 244 206 190 c 2
 72 76 l 1
 174 76 l 2
 227 76 243 85 269 130 c 1
 286 130 l 1
EndSplineSet
KernsSLIF: 52 -5 0 0 49 -32 0 0 55 -18 0 0
EndChar
StartChar: three
Encoding: 51 51 20
Width: 341
Flags: HW
HStem: -9 27<114 136> 418 48
VStem: 195 84<121 152> 219 88<353 375>
Back
289.062 149.902 m 0
 289.062 100.098 269.531 60.0586 230.957 29.7852 c 0
 214.355 16.6016 195.312 6.83594 173.34 0.976562 c 0
 151.855 -4.88281 128.418 -7.8125 103.027 -7.8125 c 0
 86.9141 -7.8125 72.7539 -5.85938 60.0586 -0.976562 c 0
 52.7344 1.46484 44.9219 5.85938 36.6211 12.207 c 0
 28.3203 18.0664 23.9258 26.3672 23.9258 37.1094 c 0
 23.9258 48.3398 27.3438 56.1523 34.668 61.0352 c 0
 41.5039 65.4297 48.8281 67.8711 57.1289 67.8711 c 0
 61.5234 67.8711 67.8711 66.8945 76.1719 63.9648 c 0
 83.9844 61.5234 93.2617 56.1523 104.004 48.8281 c 0
 113.77 42.4805 123.047 37.5977 130.371 35.1562 c 0
 138.184 32.2266 144.043 30.7617 147.949 30.7617 c 0
 171.875 30.7617 190.43 40.5273 204.102 60.0586 c 0
 217.285 78.6133 224.121 100.098 224.121 124.023 c 0
 224.121 138.672 221.68 150.879 216.797 160.156 c 0
 207.52 178.223 193.359 191.895 174.316 202.148 c 0
 155.273 211.914 128.906 216.797 94.2383 216.797 c 1
 90.8203 241.211 l 1
 162.109 263.672 198.242 298.34 198.242 345.215 c 0
 198.242 362.793 192.383 377.441 181.152 388.184 c 0
 169.434 398.438 155.273 403.809 138.184 403.809 c 0
 104.004 403.809 74.2188 380.371 48.8281 333.008 c 1
 21.9727 340.82 l 1
 45.8984 420.898 91.7969 460.938 159.18 460.938 c 0
 189.453 460.938 215.332 452.637 235.84 436.523 c 0
 256.836 420.41 267.09 396.484 267.09 365.234 c 0
 267.09 331.055 249.512 300.781 214.844 273.926 c 1
 223.633 269.531 230.957 264.648 237.305 259.766 c 0
 243.652 255.371 249.512 250.488 254.883 246.094 c 0
 267.578 234.863 276.367 220.215 281.738 202.637 c 0
 286.621 185.059 289.062 167.48 289.062 149.902 c 0
EndSplineSet
Fore
87 237 m 1xe0
 90 252 l 1
 178 270 219 304 219 356 c 0
 219 394 196 418 160 418 c 0
 128 418 109 406 81 367 c 1
 66 375 l 1
 109 439 150 466 205 466 c 0
 264 466 307 427 307 373 c 0xd0
 307 332 283 299 234 275 c 2
 226 271 l 1
 265 242 279 216 279 171 c 0
 279 71 190 -9 81 -9 c 0
 25 -9 -10 12 -10 46 c 0
 -10 69 6 84 31 84 c 0
 48 84 59 76 75 53 c 0
 87 36 91 29 92 28 c 0
 98 23 109 18 119 18 c 0
 161 18 195 68 195 129 c 0
 195 175 178 208 145 224 c 0
 129 233 116 236 87 237 c 1xe0
EndSplineSet
KernsSLIF: 52 -10 0 0 49 -45 0 0 55 -18 0 0
EndChar
StartChar: four
Encoding: 52 52 21
Width: 341
Flags: HW
HStem: 0 14 102 67<36 156 262 291> 453 14<300 343 343 343>
Back
180.176 166.016 m 1
 180.176 346.191 l 1
 56.1523 166.016 l 1
 180.176 166.016 l 1
311.035 107.91 m 1
 249.023 107.91 l 1
 249.023 0 l 1
 181.152 0 l 1
 181.152 107.91 l 1
 3.90625 107.91 l 1
 3.90625 160.156 l 1
 206.055 452.148 l 1
 249.023 452.148 l 1
 249.023 166.016 l 1
 311.035 166.016 l 1
 311.035 107.91 l 1
EndSplineSet
Fore
309 169 m 1
 291 102 l 1
 244 102 l 1
 216 0 l 1
 128 0 l 1
 156 102 l 1
 -10 102 l 1
 9 174 l 1
 300 466 l 1
 343 466 l 1
 262 169 l 1
 309 169 l 1
36 169 m 1
 175 169 l 1
 229 360 l 1
 36 169 l 1
EndSplineSet
KernsSLIF: 49 -34 0 0 55 -14 0 0
EndChar
StartChar: five
Encoding: 53 53 22
Width: 341
Flags: HW
HStem: -9 27<111 138> 382 74<139 308>
VStem: 210 72<120 151>
Back
295.898 460.938 m 1
 269.043 395.996 l 1
 265.625 389.16 257.812 386.23 245.117 386.23 c 2
 125.977 386.23 l 1
 105.957 345.215 l 1
 142.09 338.867 171.387 329.59 194.336 316.406 c 0
 217.285 303.711 235.84 289.551 249.023 273.926 c 0
 254.395 267.09 259.277 259.277 264.16 249.512 c 0
 268.555 239.746 272.461 229.492 275.879 219.238 c 0
 279.297 208.496 281.738 197.266 283.691 186.523 c 0
 285.156 175.293 286.133 165.527 286.133 155.762 c 0
 286.133 105.469 267.578 64.9414 230.957 35.1562 c 0
 194.824 6.34766 153.32 -7.8125 105.957 -7.8125 c 0
 45.4102 -7.8125 15.1367 7.8125 15.1367 39.0625 c 0
 15.1367 50.293 19.043 58.5938 26.8555 64.4531 c 0
 35.1562 70.3125 42.4805 73.2422 49.8047 73.2422 c 0
 66.8945 73.2422 84.9609 65.4297 104.98 49.8047 c 0
 120.117 38.5742 133.301 33.2031 144.043 33.2031 c 0
 168.457 33.2031 187.988 44.4336 202.148 66.8945 c 0
 215.332 86.9141 222.168 111.816 222.168 142.09 c 0
 222.168 186.035 202.148 219.238 162.109 242.188 c 0
 144.531 251.465 126.465 258.789 107.422 264.16 c 0
 88.3789 269.531 69.3359 271.973 49.8047 271.973 c 0
 40.5273 271.973 36.1328 276.855 36.1328 286.133 c 2
 36.1328 291.016 l 1
 108.887 454.102 l 1
 249.023 454.102 l 2
 256.836 454.102 266.113 461.426 276.855 476.074 c 1
 295.898 460.938 l 1
EndSplineSet
Fore
134 382 m 1
 111 330 l 1
 174 317 193 311 216 296 c 0
 258 268 281 224 281 171 c 0
 281 70 194 -9 82 -9 c 0
 28 -9 -8 13 -8 45 c 0
 -8 68 10 84 33 84 c 0
 53 84 65 75 81 48 c 0
 96 25 104 18 118 18 c 0
 166 18 210 71 210 129 c 0
 210 173 185 212 143 233 c 0
 117 247 95 252 50 254 c 1
 139 457 l 1
 332 457 l 1
 308 382 l 1
 134 382 l 1
EndSplineSet
KernsSLIF: 52 -8 0 0 49 -38 0 0 55 -25 0 0
EndChar
StartChar: six
Encoding: 54 54 23
Width: 341
Flags: HW
HStem: -10 22<117 138> 261 27 450 14<343 343>
VStem: 16 76 218 85<194 208>
Back
233.887 124.023 m 0
 233.887 206.543 208.008 248.047 155.762 248.047 c 0
 145.508 248.047 135.742 247.07 127.441 244.629 c 0
 119.141 242.188 111.816 237.793 105.957 231.934 c 1
 104.004 226.074 102.051 218.262 100.098 208.496 c 0
 98.1445 198.73 97.168 187.5 97.168 173.828 c 0
 97.168 158.691 98.1445 142.09 100.098 125 c 0
 102.051 107.91 105.469 91.7969 110.84 77.6367 c 0
 116.211 62.9883 124.023 51.2695 134.277 41.5039 c 0
 145.02 31.7383 158.203 26.8555 173.828 26.8555 c 0
 185.547 26.8555 194.824 29.7852 202.637 35.1562 c 0
 209.961 40.5273 216.309 47.3633 221.191 56.6406 c 0
 225.586 65.4297 229.004 75.6836 230.957 87.4023 c 0
 232.91 99.1211 233.887 111.328 233.887 124.023 c 0
309.082 149.902 m 0
 309.082 127.93 305.664 107.422 299.316 87.8906 c 0
 292.969 68.8477 283.691 51.7578 271.484 37.5977 c 0
 259.277 22.9492 244.141 12.207 226.074 3.90625 c 0
 208.008 -3.90625 187.5 -7.8125 164.062 -7.8125 c 0
 136.23 -7.8125 112.793 -1.95312 94.2383 9.76562 c 0
 75.1953 21.9727 60.5469 37.5977 48.8281 57.1289 c 0
 37.5977 76.1719 29.2969 98.1445 24.4141 123.047 c 0
 19.5312 147.461 17.0898 172.363 17.0898 196.777 c 0
 17.0898 232.91 24.4141 267.09 39.5508 298.828 c 0
 54.6875 331.055 74.707 358.887 100.098 382.812 c 0
 125.488 407.227 154.785 425.781 188.477 439.941 c 0
 222.168 454.102 257.324 460.938 293.945 460.938 c 1
 297.852 435.059 l 1
 250 426.27 209.961 408.203 178.223 380.371 c 0
 145.996 353.027 124.512 317.383 112.793 273.926 c 1
 117.676 276.855 122.07 278.809 125.488 280.273 c 0
 129.395 282.227 133.789 284.18 139.16 286.133 c 0
 154.785 291.992 169.922 294.922 184.082 294.922 c 0
 203.125 294.922 220.703 291.504 236.328 284.18 c 0
 251.953 276.855 265.137 266.602 275.879 253.418 c 0
 286.621 240.723 294.922 225.098 300.293 207.52 c 0
 306.152 189.941 309.082 170.898 309.082 149.902 c 0
EndSplineSet
Fore
343 464 m 1
 347 447 l 1
 255 412 199 362 158 279 c 1
 178 286 186 288 200 288 c 0
 264 288 302 244 302 171 c 0
 302 70 228 -10 134 -10 c 0
 60 -10 16 44 16 133 c 0
 16 229 67 324 153 388 c 0
 208 429 252 446 343 464 c 1
171 261 m 0
 150 261 143 255 129 218 c 0
 107 162 92 101 92 65 c 0
 92 29 104 12 130 12 c 0
 147 12 162 22 171 38 c 0
 194 81 218 173 218 215 c 0
 218 246 203 261 171 261 c 0
EndSplineSet
KernsSLIF: 52 1 0 0 49 -35 0 0 55 -21 0 0
EndChar
StartChar: seven
Encoding: 55 55 24
Width: 341
Flags: HW
HStem: 0 14 380 77<136 171 171 262>
Back
308.105 431.152 m 1
 169.922 -3.90625 l 1
 108.887 -3.90625 l 1
 235.84 388.184 l 1
 108.887 388.184 l 2
 92.2852 388.184 79.1016 383.789 68.8477 375.977 c 0
 66.8945 374.512 63.4766 370.117 58.5938 362.793 c 0
 53.7109 355.469 46.875 345.215 39.0625 331.055 c 1
 12.207 342.773 l 1
 54.1992 453.125 l 1
 308.105 453.125 l 1
 308.105 431.152 l 1
EndSplineSet
Fore
57 327 m 1
 39 327 l 1
 98 457 l 1
 358 457 l 1
 98 0 l 1
 36 0 l 1
 262 380 l 1
 171 380 l 2
 100 380 82 371 57 327 c 1
EndSplineSet
KernsSLIF: 58 -61 0 0 44 -54 0 0 56 -31 0 0 53 -40 0 0 52 -53 0 0 49 -29 0 0 46 -55 0 0 55 -18 0 0 54 -40 0 0 51 -28 0 0 50 -20 0 0
EndChar
StartChar: eight
Encoding: 56 56 25
Width: 341
Flags: HW
HStem: -9 20<115 157> 444 23<190 223>
VStem: 2 66<71 119> 74 76<361 377> 209 77<91 118> 261 63<354 381>
Back
208.008 362.793 m 0
 208.008 380.371 203.125 394.531 193.848 405.762 c 0
 183.105 419.922 167.969 426.758 147.949 426.758 c 0
 131.836 426.758 118.652 421.875 107.422 411.133 c 0
 96.6797 400.391 90.8203 386.23 90.8203 368.164 c 0
 90.8203 337.891 113.77 307.129 159.18 274.902 c 1
 166.504 280.762 172.852 286.621 178.711 291.992 c 0
 184.082 297.363 187.5 300.781 188.965 303.223 c 0
 201.66 319.824 208.008 339.844 208.008 362.793 c 0
216.797 90.8203 m 0
 216.797 113.77 210.449 131.348 198.242 144.043 c 0
 192.871 149.902 184.57 157.715 172.852 166.992 c 0
 161.621 176.27 147.461 187.5 129.883 201.172 c 1
 121.094 192.383 115.234 186.035 111.816 182.617 c 0
 108.887 178.711 106.445 175.781 104.98 172.852 c 0
 99.6094 165.527 95.7031 156.738 92.7734 145.508 c 0
 90.332 134.277 88.8672 123.047 88.8672 110.84 c 0
 88.8672 86.9141 95.2148 66.8945 106.934 50.7812 c 0
 119.141 35.1562 136.23 26.8555 158.203 26.8555 c 0
 175.293 26.8555 189.453 33.2031 200.684 44.9219 c 0
 211.426 57.1289 216.797 72.2656 216.797 90.8203 c 0
282.227 106.934 m 0
 282.227 86.9141 278.32 69.8242 271.484 55.6641 c 0
 264.648 41.0156 254.883 29.2969 243.164 20.0195 c 0
 230.957 10.7422 216.797 3.90625 201.172 -0.976562 c 0
 185.059 -5.85938 167.969 -7.8125 149.902 -7.8125 c 0
 133.301 -7.8125 117.188 -5.37109 102.051 -0.488281 c 0
 86.4258 4.39453 73.2422 11.7188 61.5234 21.4844 c 0
 49.8047 31.25 40.5273 42.9688 33.6914 56.6406 c 0
 26.3672 70.3125 22.9492 85.9375 22.9492 104.004 c 0
 22.9492 118.652 24.4141 130.859 26.8555 141.113 c 0
 29.7852 150.879 33.6914 159.668 38.5742 167.48 c 0
 43.457 175.293 49.8047 182.617 57.6172 189.453 c 0
 64.9414 196.289 74.2188 204.102 83.9844 212.891 c 0
 85.9375 214.355 88.3789 215.82 90.332 217.773 c 0
 92.7734 220.215 96.1914 222.656 100.098 226.074 c 1
 96.6797 229.98 93.2617 233.887 89.8438 236.816 c 0
 86.4258 240.234 83.4961 243.652 80.0781 247.07 c 0
 71.2891 254.883 63.4766 262.695 57.1289 269.531 c 0
 50.293 276.367 44.9219 283.691 40.5273 291.504 c 0
 36.1328 299.316 32.7148 307.617 30.2734 317.383 c 0
 28.3203 327.148 26.8555 338.867 26.8555 352.051 c 0
 26.8555 369.141 30.2734 384.766 37.5977 397.949 c 0
 44.4336 411.133 53.7109 422.852 65.4297 432.129 c 0
 77.1484 441.406 90.332 448.73 105.469 453.613 c 0
 120.605 458.496 136.23 460.938 151.855 460.938 c 0
 167.48 460.938 182.129 458.984 196.289 455.078 c 0
 210.938 451.172 223.633 444.824 234.375 436.523 c 0
 245.605 428.223 254.395 417.48 260.742 404.785 c 0
 266.602 392.09 270.02 377.441 270.02 359.863 c 0
 270.02 332.52 262.695 311.035 248.047 294.922 c 0
 233.398 278.809 214.844 264.16 191.895 250 c 1
 194.824 247.559 197.754 244.629 201.172 241.699 c 0
 204.102 238.281 207.52 235.84 210.938 232.91 c 0
 221.68 224.121 231.445 215.82 240.234 207.52 c 0
 248.535 199.219 256.348 189.941 262.695 180.664 c 0
 269.043 170.898 273.438 160.156 276.855 148.438 c 0
 280.273 136.719 282.227 123.047 282.227 106.934 c 0
EndSplineSet
Fore
227 260 m 1xf4
 227 257 l 1
 269 211 286 175 286 132 c 0xf8
 286 51 222 -9 134 -9 c 0
 56 -9 2 37 2 104 c 0
 2 162 40 202 125 232 c 1
 125 236 l 1
 87 276 74 301 74 341 c 0
 74 413 130 466 205 466 c 0
 242 466 279 452 302 429 c 0
 317 413 325 393 325 369 c 0
 325 320 298 290 227 260 c 1xf4
143 219 m 1
 132 212 132 212 130 210 c 0
 88 179 68 143 68 96 c 0
 68 44 94 12 136 12 c 0
 178 12 209 49 209 100 c 0
 209 136 201 150 143 219 c 1
212 275 m 1
 251 316 261 337 261 371 c 0xc4
 261 415 240 444 206 444 c 0
 173 444 150 416 150 378 c 0
 150 344 165 320 212 275 c 1
EndSplineSet
KernsSLIF: 52 -2 0 0 49 -35 0 0 55 -8 0 0
EndChar
StartChar: nine
Encoding: 57 57 26
Width: 341
Flags: HW
HStem: -7 14 167 29 444 22<204 221>
VStem: 36 85<247 262> 248 76
Back
231.934 268.066 m 2
 231.934 374.023 207.031 426.758 157.227 426.758 c 0
 117.188 426.758 97.168 391.113 97.168 319.824 c 0
 97.168 307.129 98.1445 293.945 100.586 279.297 c 0
 103.027 265.137 106.445 252.441 111.816 241.211 c 0
 117.188 229.492 124.512 220.215 133.789 212.402 c 0
 143.555 204.59 155.273 201.172 169.922 201.172 c 0
 190.43 201.172 209.473 208.008 226.074 222.168 c 1
 229.98 224.121 231.934 230.469 231.934 242.188 c 2
 231.934 268.066 l 2
312.988 269.043 m 0
 312.988 192.871 289.551 129.395 243.164 78.125 c 0
 188.965 17.0898 121.094 -13.1836 40.0391 -13.1836 c 1
 36.1328 16.1133 l 1
 58.5938 18.5547 79.5898 24.9023 99.6094 34.1797 c 0
 119.141 43.457 137.207 55.1758 152.832 69.3359 c 0
 168.945 83.9844 183.105 100.098 194.824 118.164 c 0
 207.031 136.23 216.309 155.273 223.145 175.781 c 1
 198.242 162.598 172.363 155.762 145.02 155.762 c 0
 106.934 155.762 76.1719 169.922 51.7578 198.242 c 0
 30.7617 223.145 20.0195 255.371 20.0195 293.945 c 0
 20.0195 339.844 32.2266 378.906 56.1523 410.156 c 0
 69.3359 427.246 84.9609 439.941 103.516 448.73 c 0
 122.07 457.031 142.09 460.938 164.062 460.938 c 0
 212.891 460.938 250.488 439.941 277.832 397.949 c 0
 301.27 360.84 312.988 317.871 312.988 269.043 c 0
EndSplineSet
Fore
-4 -7 m 1
 -8 10 l 1
 75 36 139 92 181 177 c 1
 165 169 154 167 139 167 c 0
 78 167 36 213 36 281 c 0
 36 385 110 466 204 466 c 0
 238 466 265 456 285 436 c 0
 310 410 324 370 324 325 c 0
 324 228 272 130 186 68 c 0
 132 27 88 10 -4 -7 c 1
214 444 m 0
 193 444 175 430 160 402 c 0
 139 360 121 284 121 240 c 0
 121 212 137 197 166 197 c 0
 195 197 200 203 218 257 c 0
 236 307 236 307 241 335 c 0
 245 358 248 383 248 397 c 0
 248 429 237 444 214 444 c 0
EndSplineSet
KernsSLIF: 52 -12 0 0 49 -45 0 0 55 -8 0 0
EndChar
StartChar: colon
Encoding: 58 58 27
Width: 227
Flags: HW
HStem: -9 101<53 80> 212 101<116 143>
VStem: 16 101<27 55> 79 101<249 276>
Back
23.9258 275.879 m 0
 23.9258 263.184 27.3438 252.441 34.668 244.141 c 0
 41.5039 235.352 50.7812 230.957 62.0117 230.957 c 0
 73.2422 230.957 82.5195 235.352 89.8438 244.141 c 0
 97.168 252.441 101.074 263.184 101.074 275.879 c 0
 101.074 288.574 97.168 299.316 89.8438 308.105 c 0
 82.5195 316.895 73.2422 320.801 62.0117 320.801 c 0
 50.7812 320.801 41.5039 316.895 34.668 308.105 c 0
 27.3438 299.316 23.9258 288.574 23.9258 275.879 c 0
23.9258 39.0625 m 0
 23.9258 26.3672 27.3438 15.625 34.668 6.83594 c 0
 41.5039 -1.46484 50.7812 -5.85938 62.0117 -5.85938 c 0
 73.2422 -5.85938 82.5195 -1.46484 89.8438 6.83594 c 0
 97.168 15.625 101.074 26.3672 101.074 39.0625 c 0
 101.074 51.7578 97.168 62.5 89.8438 70.8008 c 0
 82.5195 79.5898 73.2422 83.9844 62.0117 83.9844 c 0
 50.7812 83.9844 41.5039 79.5898 34.668 70.8008 c 0
 27.3438 62.5 23.9258 51.7578 23.9258 39.0625 c 0
EndSplineSet
Fore
67 92 m 0xe0
 94 92 117 69 117 42 c 0
 117 13 94 -9 66 -9 c 0
 38 -9 16 13 16 42 c 0
 16 70 38 92 67 92 c 0xe0
130 313 m 0xd0
 158 313 180 290 180 263 c 0
 180 234 158 212 129 212 c 0
 101 212 79 234 79 263 c 0
 79 292 102 313 130 313 c 0xd0
EndSplineSet
EndChar
StartChar: semicolon
Encoding: 59 59 28
Width: 227
Flags: HW
HStem: 212 101<116 143>
VStem: 79 101<249 276>
Back
78.125 82.0312 m 0
 76.1719 83.4961 73.2422 83.9844 69.8242 84.4727 c 0
 66.8945 84.9609 63.4766 84.9609 60.0586 84.9609 c 0
 48.8281 84.9609 39.0625 81.0547 30.2734 73.2422 c 0
 21.9727 64.9414 18.0664 55.1758 18.0664 42.9688 c 0
 18.0664 31.7383 21.9727 21.9727 30.2734 14.1602 c 0
 39.0625 5.85938 48.8281 1.95312 60.0586 1.95312 c 0
 64.4531 1.95312 70.3125 2.44141 77.1484 3.90625 c 1
 77.1484 -0.976562 l 2
 77.1484 -11.2305 73.2422 -20.5078 65.918 -29.7852 c 0
 58.5938 -39.5508 50.7812 -46.875 41.9922 -53.2227 c 0
 38.0859 -56.1523 34.668 -58.5938 32.7148 -59.5703 c 0
 30.2734 -60.5469 28.8086 -61.0352 28.8086 -61.0352 c 1
 38.0859 -86.9141 l 1
 38.0859 -86.9141 41.9922 -84.9609 49.8047 -81.0547 c 0
 58.1055 -77.1484 66.8945 -70.8008 77.1484 -62.0117 c 0
 86.9141 -53.2227 96.1914 -42.4805 104.004 -29.7852 c 0
 111.816 -17.0898 116.211 -1.95312 116.211 16.1133 c 0
 116.211 33.2031 112.305 47.3633 104.492 58.5938 c 0
 96.6797 69.3359 87.8906 77.1484 78.125 82.0312 c 0
19.043 279.785 m 0
 19.043 267.09 22.4609 256.836 29.2969 248.047 c 0
 36.6211 239.258 45.8984 234.863 57.1289 234.863 c 0
 68.3594 234.863 77.6367 239.258 84.9609 248.047 c 0
 92.2852 256.836 96.1914 267.09 96.1914 279.785 c 0
 96.1914 292.48 92.2852 303.223 84.9609 312.012 c 0
 77.6367 320.801 68.3594 325.195 57.1289 325.195 c 0
 45.8984 325.195 36.6211 320.801 29.2969 312.012 c 0
 22.4609 303.223 19.043 292.48 19.043 279.785 c 0
EndSplineSet
Fore
-8 -125 m 1
 -17 -109 l 1
 36 -80 63 -53 63 -29 c 0
 63 -19 59 -12 43 -2 c 0
 23 12 16 23 16 41 c 0
 16 70 36 91 64 91 c 0
 99 91 122 64 122 24 c 0
 122 -31 71 -90 -8 -125 c 1
130 313 m 0
 158 313 180 290 180 263 c 0
 180 234 158 212 129 212 c 0
 101 212 79 234 79 263 c 0
 79 292 102 313 130 313 c 0
EndSplineSet
EndChar
StartChar: less
Encoding: 60 60 29
Width: 389
Flags: HW
HStem: -8 14
Back
356.934 -8.78906 m 1
 1.95312 151.855 l 1
 1.95312 203.125 l 1
 356.934 365.234 l 1
 356.934 310.059 l 1
 66.8945 178.223 l 1
 356.934 45.8984 l 1
 356.934 -8.78906 l 1
EndSplineSet
Fore
368 -8 m 1
 21 144 l 1
 21 201 l 1
 368 354 l 1
 368 288 l 1
 105 173 l 1
 368 57 l 1
 368 -8 l 1
EndSplineSet
EndChar
StartChar: equal
Encoding: 61 61 30
Width: 389
Flags: HW
HStem: 73 60<23 367> 212 60<23 367>
Back
383.789 208.984 m 1
 30.7617 208.984 l 1
 30.7617 256.836 l 1
 383.789 256.836 l 1
 383.789 208.984 l 1
383.789 82.0312 m 1
 30.7617 82.0312 l 1
 30.7617 129.883 l 1
 383.789 129.883 l 1
 383.789 82.0312 l 1
EndSplineSet
Fore
367 272 m 1
 367 212 l 1
 23 212 l 1
 23 272 l 1
 367 272 l 1
367 133 m 1
 367 73 l 1
 23 73 l 1
 23 133 l 1
 367 133 l 1
EndSplineSet
EndChar
StartChar: greater
Encoding: 62 62 31
Width: 389
Flags: HW
HStem: -8 14
Back
383.789 151.855 m 1
 28.8086 -8.78906 l 1
 28.8086 45.8984 l 1
 317.871 178.223 l 1
 28.8086 310.059 l 1
 28.8086 365.234 l 1
 383.789 203.125 l 1
 383.789 151.855 l 1
EndSplineSet
Fore
21 -8 m 1
 21 57 l 1
 284 173 l 1
 21 288 l 1
 21 354 l 1
 368 201 l 1
 368 144 l 1
 21 -8 l 1
EndSplineSet
EndChar
StartChar: question
Encoding: 63 63 32
Width: 341
Flags: HW
HStem: -9 101<91 118> 446 21<176 201>
VStem: 54 101<27 55> 234 87<375 398>
Back
254.883 353.027 m 0
 254.883 367.188 252.93 380.859 249.023 394.043 c 0
 245.117 407.227 238.281 419.922 229.004 432.129 c 0
 215.82 448.242 199.707 458.984 181.152 464.355 c 0
 162.109 470.215 144.531 473.145 127.93 473.145 c 0
 112.793 473.145 98.1445 470.703 83.9844 465.332 c 0
 69.8242 460.449 57.6172 453.125 47.3633 443.848 c 0
 37.1094 434.57 28.8086 423.34 22.4609 410.645 c 0
 16.1133 397.461 13.1836 382.812 13.1836 367.188 c 0
 13.1836 349.609 17.5781 336.914 26.3672 328.613 c 0
 35.6445 320.312 44.9219 315.918 55.1758 315.918 c 0
 64.4531 315.918 72.2656 318.848 79.1016 324.707 c 0
 85.4492 330.078 88.8672 338.867 88.8672 350.098 c 2
 88.8672 353.027 l 2
 88.8672 357.91 87.8906 363.281 85.4492 369.629 c 0
 83.0078 375.977 79.1016 381.348 74.2188 386.23 c 0
 70.8008 389.16 68.3594 392.578 66.4062 395.996 c 0
 64.9414 399.414 63.9648 401.855 63.9648 402.832 c 0
 63.9648 411.133 69.3359 418.457 80.0781 425.781 c 0
 85.4492 429.199 91.3086 431.641 97.6562 433.594 c 0
 104.004 435.059 109.863 436.035 115.234 436.035 c 0
 134.766 436.035 150.391 428.711 161.133 414.062 c 0
 171.875 399.414 176.758 380.859 176.758 358.887 c 0
 176.758 345.703 175.293 331.055 171.875 314.453 c 0
 168.457 298.34 162.598 280.273 153.809 261.23 c 2
 136.23 219.238 l 2
 122.559 186.523 116.211 150.391 116.211 110.84 c 1
 144.043 110.84 l 1
 151.367 149.902 157.715 173.828 163.086 184.082 c 0
 168.945 194.824 175.293 204.59 182.617 213.867 c 0
 189.453 223.145 196.777 232.91 204.102 242.188 c 0
 222.656 263.184 235.84 283.203 243.652 301.758 c 0
 250.977 320.801 254.883 337.891 254.883 353.027 c 0
87.8906 39.0625 m 0
 87.8906 26.8555 92.2852 16.6016 100.586 8.30078 c 0
 108.887 0 119.141 -3.90625 130.859 -3.90625 c 0
 143.066 -3.90625 153.32 0 162.109 8.30078 c 0
 170.898 16.6016 174.805 26.8555 174.805 39.0625 c 0
 174.805 50.7812 170.898 61.5234 162.109 69.8242 c 0
 153.32 78.6133 143.066 83.0078 130.859 83.0078 c 0
 119.141 83.0078 108.887 78.6133 100.586 69.8242 c 0
 92.2852 61.5234 87.8906 50.7812 87.8906 39.0625 c 0
EndSplineSet
Fore
134 142 m 1
 114 147 l 1
 117 184 131 216 162 255 c 2
 190 290 l 2
 221 328 234 359 234 391 c 0
 234 425 216 446 187 446 c 0
 165 446 145 433 145 420 c 0
 145 416 147 412 152 405 c 0
 161 393 165 384 165 373 c 0
 165 352 146 333 123 333 c 0
 100 333 81 353 81 379 c 0
 81 430 132 467 201 467 c 0
 272 467 321 427 321 368 c 0
 321 326 296 292 235 252 c 2
 190 223 l 2
 164 205 153 190 134 142 c 1
105 92 m 0
 132 92 155 69 155 42 c 0
 155 13 132 -9 104 -9 c 0
 76 -9 54 13 54 42 c 0
 54 70 76 92 105 92 c 0
EndSplineSet
EndChar
StartChar: at
Encoding: 64 64 33
Width: 568
Flags: HW
HStem: -12 31<248 324> 97 25<400 418> 98 32 302 14<372 372> 441 27<242 352>
VStem: 43 62<161 284> 186 52<170 200> 494 31<242 309>
Back
298.828 191.895 m 0
 304.199 205.566 309.082 218.262 312.988 231.445 c 0
 316.895 244.629 318.848 257.812 318.848 270.996 c 0
 318.848 293.457 312.988 305.176 300.781 305.176 c 0
 278.32 305.176 259.277 291.504 244.141 264.16 c 0
 236.816 250.488 230.957 237.793 226.562 225.586 c 0
 222.168 213.379 220.215 200.195 220.215 187.012 c 0
 220.215 156.25 230.469 141.113 251.953 141.113 c 0
 268.555 141.113 284.18 158.203 298.828 191.895 c 0
494.141 258.789 m 0
 494.141 218.262 482.91 182.129 460.938 149.902 c 0
 436.523 111.816 403.32 92.7734 361.816 92.7734 c 0
 350.586 92.7734 340.82 95.2148 333.008 99.6094 c 0
 325.195 104.004 317.383 109.863 310.059 117.188 c 0
 308.105 119.629 306.152 122.07 304.688 124.512 c 0
 302.734 126.953 301.27 129.395 299.805 131.836 c 1
 284.18 117.188 l 2
 275.879 110.352 267.09 104.492 257.324 100.098 c 0
 248.047 95.2148 238.281 92.7734 229.004 92.7734 c 0
 207.031 92.7734 189.453 101.074 175.781 116.699 c 0
 162.598 132.324 155.762 154.785 155.762 185.059 c 0
 155.762 216.309 166.504 250 187.988 286.133 c 0
 213.867 330.078 250 352.051 295.898 352.051 c 0
 308.105 352.051 316.895 349.121 322.266 344.238 c 0
 328.125 338.867 332.52 333.984 335.938 330.078 c 1
 338.867 341.797 l 1
 405.762 341.797 l 1
 358.887 165.039 l 1
 357.91 148.926 l 1
 357.91 138.184 362.793 132.812 373.047 132.812 c 0
 385.742 132.812 396.484 137.207 405.762 145.996 c 0
 415.527 154.785 423.34 165.527 429.688 178.223 c 0
 436.035 190.43 440.43 204.102 443.848 219.238 c 0
 447.266 233.887 449.219 246.582 449.219 257.812 c 0
 449.219 281.25 443.848 303.223 433.594 323.73 c 0
 423.34 343.75 409.668 361.328 393.066 376.465 c 0
 376.465 391.602 356.934 403.32 335.449 411.621 c 0
 313.965 419.922 291.992 423.828 270.02 423.828 c 0
 240.234 423.828 214.355 417.969 192.383 406.738 c 0
 170.898 395.02 152.832 379.395 138.672 359.375 c 0
 124.023 339.844 113.281 316.895 106.445 291.016 c 0
 99.6094 265.137 96.1914 237.793 96.1914 208.984 c 0
 96.1914 184.57 101.074 161.133 110.352 139.648 c 0
 120.117 117.676 133.301 99.1211 149.414 83.4961 c 0
 166.016 67.8711 185.059 55.6641 206.543 46.3867 c 0
 228.027 37.5977 251.465 33.2031 275.879 33.2031 c 0
 316.895 33.2031 361.328 44.4336 410.156 67.8711 c 1
 424.805 32.2266 l 1
 394.531 18.5547 366.699 8.78906 342.285 1.95312 c 0
 318.359 -4.88281 296.387 -7.8125 276.855 -7.8125 c 0
 195.801 -7.8125 130.859 17.0898 82.0312 67.8711 c 0
 60.5469 89.8438 45.4102 113.281 35.6445 138.672 c 0
 25.8789 163.574 20.9961 188.965 20.9961 214.844 c 0
 20.9961 285.645 44.4336 344.238 91.7969 391.113 c 0
 140.625 437.5 200.195 460.938 270.02 460.938 c 0
 330.566 460.938 382.324 442.871 424.805 407.227 c 0
 471.191 369.629 494.141 320.312 494.141 258.789 c 0
EndSplineSet
Fore
372 316 m 1x37
 380 342 l 1
 428 342 l 1
 384 167 l 1
 382 162 382 159 382 153 c 0
 382 133 392 122 408 122 c 0
 428 122 446 134 462 157 c 0
 482 185 494 225 494 259 c 0
 494 358 406 441 298 441 c 0
 186 441 105 349 105 220 c 0
 105 103 189 19 307 19 c 0
 354 19 388 27 442 52 c 1
 451 28 l 1
 384 -3 349 -12 300 -12 c 0
 156 -12 43 91 43 224 c 0
 43 360 156 468 298 468 c 0
 426 468 526 379 526 264 c 0
 526 174 466 97 398 97 c 0xdf
 365 97 336 120 335 148 c 1
 311 117 279 98 249 98 c 0
 214 98 186 132 186 175 c 0
 186 225 208 279 242 316 c 0
 264 339 294 352 323 352 c 0
 347 352 357 345 372 316 c 1x37
332 319 m 0x27
 315 320 292 307 272 285 c 0
 250 259 238 225 238 188 c 0
 238 152 253 130 278 130 c 0
 298 130 318 147 333 175 c 0
 347 203 359 244 360 274 c 0
 362 301 352 317 332 319 c 0x27
EndSplineSet
EndChar
StartChar: A
Encoding: 65 65 34
Width: 455
Flags: HW
HStem: 0 14 142 27<110 236> 453 14<265 282 282 282>
Back
167.969 184.082 m 1
 290.039 184.082 l 1
 229.98 328.125 l 1
 167.969 184.082 l 1
484.863 0 m 1
 296.875 0 l 1
 296.875 28.8086 l 1
 324.219 28.8086 l 2
 330.078 28.8086 334.473 30.7617 337.402 34.1797 c 0
 340.332 37.1094 341.797 40.5273 341.797 42.9688 c 0
 341.797 48.3398 340.82 54.6875 338.379 62.5 c 0
 335.938 70.3125 333.496 77.1484 330.078 83.9844 c 2
 306.152 139.16 l 1
 149.902 139.16 l 1
 123.047 68.8477 l 1
 119.629 62.5 118.164 55.1758 118.164 47.8516 c 0
 118.164 35.1562 132.812 28.8086 162.109 28.8086 c 1
 162.109 0 l 1
 11.2305 0 l 1
 11.2305 28.8086 l 1
 22.4609 28.8086 32.7148 32.7148 41.9922 39.5508 c 0
 51.2695 46.3867 58.5938 55.1758 63.9648 65.918 c 1
 227.051 452.148 l 1
 264.16 452.148 l 1
 425.781 81.0547 l 2
 435.547 60.5469 443.848 46.3867 451.66 39.5508 c 0
 458.984 32.7148 470.215 28.8086 484.863 28.8086 c 1
 484.863 0 l 1
EndSplineSet
Fore
405 17 m 1
 405 0 l 1
 197 0 l 1
 197 17 l 1
 241 21 251 29 251 57 c 0
 251 66 250 80 246 107 c 0
 245 111 243 126 241 142 c 1
 94 142 l 1
 54 72 l 2
 47 61 44 50 44 41 c 0
 44 25 57 17 88 17 c 1
 88 0 l 1
 -46 0 l 1
 -46 17 l 1
 -21 23 -11 31 11 65 c 1
 265 466 l 1
 282 466 l 1
 347 76 l 1
 356 24 360 20 405 17 c 1
110 169 m 1
 236 169 l 1
 211 335 l 1
 110 169 l 1
EndSplineSet
KernsSLIF: 311 -43 2 0 325 -36 2 0 327 -41 2 0 328 -41 2 0 329 -41 2 0 326 -41 2 0 337 -19 2 0 67 -41 2 0 71 -40 2 0 79 -36 2 0 81 -36 2 0 84 -22 2 0 85 -41 2 0 86 -75 2 0 87 -73 2 0 89 -30 2 0 97 -3 2 0 99 -13 2 0 100 -3 2 0 101 -17 2 0 103 -13 2 0 286 -39 2 0 288 -46 2 0 45 -15 2 0 111 -15 2 0 113 -12 2 0 148 -53 2 0 146 -68 2 0 116 -2 2 0 117 -12 2 0 118 -34 2 0 119 -38 2 0 121 -45 2 0
EndChar
StartChar: B
Encoding: 66 66 35
Width: 455
Flags: HW
HStem: 0 22<161 189> 443 14<79 265 265 318>
VStem: -16 96 286 104<137 167> 326 100<344 389>
Back
314.941 329.102 m 0
 314.941 383.789 279.785 411.133 209.961 411.133 c 2
 181.152 411.133 l 2
 177.734 411.133 175.781 407.227 175.781 398.926 c 2
 175.781 256.836 l 1
 229.004 257.812 l 2
 286.133 259.277 314.941 283.203 314.941 329.102 c 0
329.102 126.953 m 0
 329.102 169.434 306.152 196.777 261.23 208.008 c 0
 244.141 211.914 215.82 213.867 175.781 213.867 c 1
 175.781 61.0352 l 2
 175.781 52.2461 179.199 46.3867 186.035 42.9688 c 2
 185.059 42.9688 l 2
 191.895 41.5039 202.148 41.0156 216.797 41.0156 c 0
 291.504 41.0156 329.102 69.8242 329.102 126.953 c 0
426.758 124.023 m 0
 425.781 85.4492 410.645 55.1758 381.836 33.2031 c 0
 353.516 11.2305 315.43 0 269.043 0 c 2
 22.9492 0 l 1
 22.9492 29.7852 l 1
 48.3398 29.7852 64.9414 33.2031 73.7305 39.0625 c 0
 82.0312 44.9219 85.9375 58.5938 85.9375 80.0781 c 2
 85.9375 372.07 l 2
 85.9375 385.254 84.9609 395.996 83.0078 404.297 c 0
 81.0547 412.598 74.2188 417.48 62.9883 418.945 c 2
 22.9492 423.828 l 1
 22.9492 452.148 l 1
 226.074 452.148 l 2
 345.215 452.148 404.785 412.109 404.785 333.008 c 0
 404.785 315.43 401.855 300.781 395.02 288.086 c 0
 388.184 275.391 379.883 264.16 369.141 254.883 c 0
 365.723 251.465 361.328 249.023 355.957 246.582 c 0
 350.586 244.141 345.215 241.699 338.867 238.77 c 1
 397.461 218.262 426.758 180.176 426.758 124.023 c 0
EndSplineSet
Fore
79 440 m 1xf0
 79 457 l 1
 265 457 l 2
 371 457 426 423 426 357 c 0xe8
 426 329 414 302 394 285 c 0
 370 265 349 255 297 242 c 1
 366 220 391 194 391 141 c 0
 391 53 314 0 189 0 c 2
 -16 0 l 1
 -16 17 l 1
 16 21 27 31 38 66 c 1
 122 373 l 2
 126 390 129 405 129 412 c 0
 129 420 124 429 118 432 c 0
 110 437 104 438 79 440 c 1xf0
184 231 m 1xd0
 139 64 l 1
 137 55 135 49 135 44 c 0
 135 29 148 22 174 22 c 0
 204 22 227 31 246 49 c 0
 270 74 286 117 286 156 c 0
 286 182 278 201 263 214 c 0
 249 225 229 229 184 231 c 1xd0
231 405 m 2xc8
 189 251 l 1
 240 253 263 258 284 272 c 0
 311 289 326 322 326 366 c 0
 326 412 306 435 266 435 c 0
 244 435 238 429 231 405 c 2xc8
EndSplineSet
KernsSLIF: 264 -27 2 0 306 -23 2 0 307 -23 2 0 309 -23 2 0 310 -23 2 0 308 -23 2 0 265 -13 2 0 322 -15 2 0 323 -15 2 0 325 -15 2 0 321 -15 2 0 362 -15 2 0 65 -23 2 0 79 -15 2 0 86 -31 2 0 87 -31 2 0 89 -34 2 0
EndChar
StartChar: C
Encoding: 67 67 36
Width: 455
Flags: HW
HStem: -12 36<197 232> 294 14<427 427> 444 24<304 314>
VStem: 22 105<112 193>
Back
435.059 83.0078 m 1
 429.688 73.7305 423.34 64.9414 415.527 57.1289 c 0
 407.715 48.8281 397.949 41.0156 386.23 33.2031 c 0
 366.699 19.5312 345.703 9.27734 322.266 2.44141 c 0
 299.316 -4.39453 274.902 -7.8125 249.023 -7.8125 c 0
 213.867 -7.8125 181.641 -2.92969 152.832 7.32422 c 0
 124.512 18.0664 100.098 33.2031 81.0547 54.1992 c 0
 41.0156 96.6797 20.9961 152.344 20.9961 221.191 c 0
 20.9961 285.645 42.4805 341.797 85.9375 389.16 c 0
 106.445 411.133 129.883 427.246 155.273 437.988 c 0
 181.152 448.73 208.496 454.102 236.816 454.102 c 0
 246.094 454.102 255.859 453.613 266.113 452.637 c 0
 275.879 451.66 285.645 450.684 294.434 449.707 c 0
 303.711 448.73 311.035 447.266 317.383 446.289 c 0
 323.73 445.312 328.125 444.824 330.078 443.848 c 2
 370.117 432.129 l 1
 377.93 432.617 384.766 439.453 390.137 453.125 c 1
 423.828 453.125 l 1
 430.176 291.992 l 1
 394.043 291.992 l 1
 386.23 330.078 370.117 359.375 347.168 379.395 c 0
 323.73 399.902 294.434 410.156 258.789 410.156 c 0
 214.844 410.156 181.641 390.137 159.18 351.074 c 0
 148.438 333.008 140.137 313.477 133.789 291.992 c 0
 127.93 270.508 125 246.094 125 219.238 c 0
 125 192.871 127.93 169.434 133.301 147.949 c 0
 139.16 126.465 148.438 107.422 161.133 89.8438 c 0
 172.852 73.2422 187.5 60.0586 204.102 50.293 c 0
 220.703 41.0156 241.699 36.1328 267.09 36.1328 c 0
 314.941 36.1328 362.793 59.082 411.133 104.98 c 1
 435.059 83.0078 l 1
EndSplineSet
Fore
462 468 m 1
 427 308 l 1
 406 312 l 1
 407 321 408 327 408 336 c 0
 408 403 373 444 318 444 c 0
 290 444 264 433 238 412 c 0
 176 360 127 242 127 143 c 0
 127 68 165 24 229 24 c 0
 251 24 272 28 291 36 c 0
 320 48 339 64 373 104 c 1
 393 89 l 1
 371 59 360 47 340 32 c 0
 301 3 256 -12 208 -12 c 0
 96 -12 22 59 22 165 c 0
 22 330 148 468 300 468 c 0
 328 468 360 462 390 453 c 0
 400 450 410 448 416 448 c 0
 426 448 432 453 442 468 c 1
 462 468 l 1
EndSplineSet
KernsSLIF: 264 -21 2 0 306 -16 2 0 309 -16 2 0 310 -16 2 0 322 -17 2 0 325 -17 2 0 65 -16 2 0 72 -17 2 0 75 -19 2 0 79 -17 2 0
EndChar
StartChar: D
Encoding: 68 68 37
Width: 492
Flags: HW
HStem: 0 23<145 164> 436 21<244 262 262 293>
VStem: -31 96 367 100<273 329>
Back
393.066 225.098 m 0
 393.066 287.109 374.512 333.496 337.891 365.234 c 0
 320.801 380.371 300.781 392.09 277.832 399.902 c 0
 255.371 408.203 227.539 412.109 194.824 412.109 c 0
 185.547 412.109 179.688 411.133 177.734 409.668 c 0
 175.293 407.715 173.828 402.344 173.828 393.066 c 2
 173.828 61.0352 l 2
 173.828 51.7578 177.734 45.8984 184.57 43.9453 c 0
 191.406 41.9922 198.242 41.0156 204.102 41.0156 c 0
 268.555 41.0156 316.406 56.1523 347.168 86.9141 c 0
 377.441 117.676 393.066 163.574 393.066 225.098 c 0
494.141 225.098 m 0
 494.141 194.824 489.258 167.969 480.469 143.555 c 0
 471.68 119.141 458.496 97.168 440.918 78.125 c 0
 395.02 25.8789 325.195 0 231.934 0 c 2
 24.9023 0 l 1
 24.9023 29.7852 l 1
 36.1328 29.7852 45.8984 30.7617 53.2227 32.2266 c 0
 60.5469 33.2031 66.4062 35.6445 70.8008 39.0625 c 0
 75.6836 42.4805 78.6133 47.3633 80.5664 54.1992 c 0
 82.0312 60.5469 83.0078 69.3359 83.0078 80.0781 c 2
 83.0078 373.047 l 2
 83.0078 387.207 82.0312 397.949 80.0781 406.738 c 0
 78.125 415.039 71.7773 419.434 61.0352 420.898 c 2
 24.9023 423.828 l 1
 24.9023 453.125 l 1
 222.168 453.125 l 2
 301.758 453.125 365.723 435.547 413.086 400.879 c 0
 466.797 362.793 494.141 304.199 494.141 225.098 c 0
EndSplineSet
Fore
64 440 m 1
 64 457 l 1
 262 457 l 2
 391 457 468 387 468 270 c 0
 468 115 338 0 164 0 c 2
 -31 0 l 1
 -31 17 l 1
 2 21 13 31 23 66 c 1
 106 371 l 1
 111 393 114 404 114 411 c 0
 114 427 107 433 85 436 c 0
 83 437 74 438 64 440 c 1
217 410 m 1
 130 86 l 1
 130 86 129 85 129 83 c 0
 123 66 121 55 121 46 c 0
 121 31 132 23 158 23 c 0
 223 23 271 48 307 100 c 0
 344 153 367 234 367 312 c 0
 367 395 330 436 255 436 c 0
 233 436 222 428 217 410 c 1
EndSplineSet
KernsSLIF: 306 -36 2 0 307 -36 2 0 309 -36 2 0 305 -36 2 0 310 -36 2 0 308 -36 2 0 65 -36 2 0 74 -45 2 0 84 -18 2 0 86 -40 2 0 87 -39 2 0 88 -43 2 0 89 -43 2 0
EndChar
StartChar: E
Encoding: 69 69 38
Width: 455
Flags: HW
HStem: 0 22<160 204> 435 22<258 297>
VStem: -18 96
Back
434.082 127.93 m 1
 399.902 0 l 1
 24.9023 0 l 1
 24.9023 29.7852 l 1
 46.875 29.7852 62.0117 33.6914 69.3359 40.5273 c 0
 77.1484 47.3633 81.0547 60.5469 81.0547 80.0781 c 2
 81.0547 373.047 l 2
 81.0547 388.184 80.0781 399.414 78.125 405.762 c 0
 76.1719 412.598 69.8242 416.992 59.082 418.945 c 2
 24.9023 423.828 l 1
 24.9023 453.125 l 1
 395.996 453.125 l 1
 395.996 340.82 l 1
 357.91 340.82 l 1
 353.516 374.512 344.727 394.531 332.031 401.855 c 0
 318.848 408.691 296.875 412.109 267.09 412.109 c 2
 187.012 412.109 l 2
 182.129 412.109 178.711 410.156 176.27 405.762 c 0
 174.316 401.855 172.852 397.461 172.852 393.066 c 2
 172.852 259.766 l 1
 257.812 259.766 l 2
 282.227 259.766 296.875 263.184 303.223 269.043 c 0
 311.035 275.879 316.895 293.457 320.801 321.777 c 1
 360.84 321.777 l 1
 360.84 152.832 l 1
 320.801 152.832 l 1
 316.895 182.129 311.523 199.707 305.176 205.078 c 0
 298.828 210.938 283.203 213.867 257.812 213.867 c 2
 172.852 213.867 l 1
 172.852 62.0117 l 2
 172.852 56.1523 175.293 51.2695 179.688 47.3633 c 0
 183.594 43.9453 191.895 41.9922 203.125 41.9922 c 2
 255.859 41.9922 l 2
 293.945 41.9922 321.289 46.875 337.891 57.1289 c 0
 348.145 62.9883 357.91 71.7773 367.188 83.4961 c 0
 376.465 95.2148 384.766 109.863 392.09 127.93 c 1
 434.082 127.93 l 1
EndSplineSet
Fore
400 132 m 1
 360 0 l 1
 -18 0 l 1
 -18 17 l 1
 17 23 25 30 36 66 c 1
 120 373 l 2
 124 388 127 403 127 414 c 0
 127 428 119 434 98 436 c 0
 95 437 87 438 77 440 c 1
 77 457 l 1
 446 457 l 1
 416 327 l 1
 398 330 l 1
 398 373 393 390 378 406 c 0
 359 425 322 435 272 435 c 0
 244 435 236 429 229 405 c 1
 188 253 l 1
 278 252 296 261 328 325 c 1
 347 322 l 1
 296 136 l 1
 277 139 l 1
 279 152 280 160 280 169 c 0
 280 216 259 229 182 231 c 1
 143 88 l 1
 142 84 l 1
 141 79 140 74 139 71 c 0
 135 57 133 50 133 45 c 0
 133 29 145 22 175 22 c 0
 233 22 280 35 318 61 c 0
 345 80 359 97 383 136 c 1
 400 132 l 1
EndSplineSet
EndChar
StartChar: F
Encoding: 70 70 39
Width: 455
Flags: HW
HStem: 0 14 435 22<268 307>
Back
398.926 340.82 m 1
 359.863 340.82 l 1
 355.957 373.535 347.168 393.555 333.984 400.879 c 0
 320.801 407.715 299.316 411.133 270.02 411.133 c 2
 182.129 411.133 l 2
 175.293 411.133 171.875 405.762 171.875 395.996 c 2
 171.875 259.766 l 1
 254.883 259.766 l 2
 277.832 259.766 293.457 264.16 301.758 272.461 c 0
 310.547 280.762 315.918 296.875 317.871 320.801 c 1
 355.957 320.801 l 1
 355.957 151.855 l 1
 317.871 151.855 l 1
 315.918 176.758 310.547 193.359 301.27 202.637 c 0
 292.48 211.426 276.855 215.82 254.883 215.82 c 2
 171.875 215.82 l 1
 171.875 80.0781 l 2
 171.875 60.5469 175.781 47.3633 184.082 40.5273 c 0
 191.895 33.6914 207.031 29.7852 229.004 29.7852 c 1
 229.004 0 l 1
 23.9258 0 l 1
 23.9258 29.7852 l 1
 49.8047 29.7852 66.4062 34.1797 73.2422 41.9922 c 0
 77.6367 48.8281 80.0781 63.9648 80.0781 87.8906 c 2
 80.0781 372.07 l 2
 80.0781 382.812 79.1016 391.113 77.6367 396.973 c 0
 75.6836 402.832 73.7305 407.715 70.8008 411.133 c 0
 68.3594 414.551 65.918 416.504 63.4766 417.48 c 0
 61.0352 418.457 59.5703 418.945 58.1055 418.945 c 2
 23.9258 423.828 l 1
 23.9258 452.148 l 1
 396.973 452.148 l 1
 398.926 340.82 l 1
EndSplineSet
Fore
352 322 m 1
 301 136 l 1
 282 139 l 1
 284 152 285 160 285 169 c 0
 285 216 264 229 191 231 c 1
 154 94 l 1
 154 92 153 88 152 83 c 0
 146 66 144 55 144 47 c 0
 144 26 154 20 193 17 c 1
 193 0 l 1
 -9 0 l 1
 -9 17 l 1
 27 23 35 30 46 66 c 1
 130 373 l 2
 134 388 137 404 137 414 c 0
 137 428 129 434 108 436 c 0
 104 437 96 438 87 440 c 1
 87 457 l 1
 451 457 l 1
 421 327 l 1
 403 330 l 1
 403 369 399 387 385 403 c 0
 367 424 332 435 282 435 c 0
 255 435 246 429 239 405 c 1
 197 253 l 1
 287 253 300 261 332 325 c 1
 352 322 l 1
EndSplineSet
KernsSLIF: 306 -68 2 0 307 -68 2 0 309 -68 2 0 305 -68 2 0 310 -68 2 0 308 -68 2 0 325 -32 2 0 332 -51 2 0 335 -32 2 0 266 -56 2 0 336 -51 2 0 339 -58 2 0 348 -55 2 0 351 -30 2 0 267 -58 2 0 364 -53 2 0 65 -68 2 0 74 -60 2 0 79 -32 2 0 97 -51 2 0 44 -65 2 0 101 -58 2 0 45 -36 2 0 105 -19 2 0 106 -23 2 0 111 -55 2 0 46 -66 2 0 114 -25 2 0 117 -28 2 0
EndChar
StartChar: G
Encoding: 71 71 40
Width: 492
Flags: HW
HStem: -12 26<197 243> 303 14<430 430> 443 25<300 322>
VStem: 14 107<117 193>
Back
485.84 217.773 m 1
 464.844 215.82 453.125 213.867 451.172 211.914 c 0
 444.336 205.566 440.918 192.871 440.918 174.805 c 2
 440.918 45.8984 l 2
 440.918 41.9922 437.988 37.5977 432.617 33.6914 c 0
 426.758 29.2969 419.434 25.3906 410.645 21.4844 c 0
 401.367 18.0664 391.113 14.6484 379.395 11.7188 c 0
 367.676 8.30078 356.445 5.85938 345.215 2.92969 c 0
 328.125 -0.488281 314.453 -2.92969 303.223 -4.88281 c 0
 291.504 -6.83594 281.25 -7.8125 271.973 -7.8125 c 0
 189.453 -7.8125 125.488 15.625 80.0781 62.9883 c 0
 57.1289 86.9141 41.9922 112.305 34.668 139.648 c 0
 26.8555 166.504 22.9492 196.289 22.9492 229.004 c 0
 22.9492 294.434 45.4102 348.145 89.8438 391.113 c 0
 111.328 411.621 136.719 427.246 165.527 437.988 c 0
 194.336 448.73 225.586 454.102 258.789 454.102 c 0
 265.137 454.102 271.973 453.613 279.297 453.613 c 0
 287.109 453.125 294.434 452.637 301.758 451.66 c 0
 309.57 450.684 316.406 449.707 322.266 448.73 c 0
 328.613 447.266 333.496 446.289 336.914 444.824 c 2
 376.953 432.129 l 1
 385.742 432.129 392.09 439.453 396.973 454.102 c 1
 433.105 454.102 l 1
 437.988 299.805 l 1
 402.832 299.805 l 1
 374.512 374.023 329.59 411.133 269.043 411.133 c 0
 243.652 411.133 222.168 406.25 205.078 396.484 c 0
 187.5 386.719 172.363 371.094 159.18 350.098 c 0
 147.461 331.543 139.648 311.035 134.277 289.062 c 0
 129.395 267.09 126.953 242.676 126.953 215.82 c 0
 126.953 189.941 129.883 166.016 136.23 144.043 c 0
 142.09 122.07 151.855 103.516 165.039 87.8906 c 0
 181.152 69.8242 197.266 56.6406 213.379 47.3633 c 0
 229.98 38.5742 250.488 34.1797 275.879 34.1797 c 0
 283.203 34.1797 291.504 34.668 300.293 36.1328 c 0
 309.57 37.1094 317.871 39.0625 326.172 41.0156 c 0
 346.191 46.3867 355.957 53.7109 355.957 62.9883 c 2
 355.957 167.969 l 2
 355.957 183.105 354.98 194.336 352.539 201.172 c 0
 350.098 207.52 344.238 212.402 333.984 214.844 c 0
 328.125 216.797 316.895 217.773 299.805 217.773 c 1
 299.805 250.977 l 1
 485.84 250.977 l 1
 485.84 217.773 l 1
EndSplineSet
Fore
482 225 m 1
 482 208 l 1
 446 205 441 199 428 152 c 1
 395 28 l 1
 376 19 l 2
 337 1 269 -12 216 -12 c 0
 97 -12 14 63 14 171 c 0
 14 276 74 379 164 431 c 0
 205 455 254 468 306 468 c 0
 337 468 360 464 391 453 c 0
 403 449 409 447 415 447 c 0
 429 447 436 453 444 468 c 1
 465 468 l 1
 430 317 l 1
 410 320 l 1
 409 366 404 386 389 408 c 0
 374 430 347 443 315 443 c 0
 285 443 255 432 229 410 c 0
 167 358 121 244 121 142 c 0
 121 59 160 14 233 14 c 0
 259 14 287 23 297 34 c 0
 300 38 300 38 315 91 c 0
 334 154 337 165 337 183 c 0
 337 189 332 197 328 199 c 0
 321 203 315 205 286 208 c 1
 286 225 l 1
 482 225 l 1
EndSplineSet
KernsSLIF: 264 -13 2 0 306 -9 2 0 307 -9 2 0 309 -9 2 0 305 -9 2 0 310 -9 2 0 308 -9 2 0 65 -9 2 0 84 -28 2 0 86 -18 2 0 87 -18 2 0 89 -21 2 0
EndChar
StartChar: H
Encoding: 72 72 41
Width: 531
Flags: HW
HStem: 0 14 225 30<190 345> 443 14<79 296 296 296 342 545 545 545>
Back
500 424.805 m 1
 500 453.125 l 1
 291.016 453.125 l 1
 291.016 424.805 l 1
 291.504 424.805 294.922 424.805 300.781 424.316 c 0
 307.129 424.316 313.965 423.34 321.777 421.387 c 0
 330.078 419.922 335.449 417.48 338.867 414.062 c 0
 343.75 410.156 346.68 404.785 348.633 398.438 c 0
 350.098 392.09 351.074 382.324 351.074 369.141 c 2
 351.074 252.93 l 1
 175.781 252.93 l 1
 175.781 369.141 l 2
 175.781 382.324 176.758 392.09 178.711 398.438 c 0
 180.176 404.785 183.105 410.156 187.012 414.062 c 0
 190.918 417.48 196.777 419.922 205.078 421.387 c 0
 212.891 423.34 219.727 424.316 225.586 424.316 c 0
 230.957 424.805 234.375 424.805 234.863 424.805 c 1
 234.863 453.125 l 1
 25.8789 453.125 l 1
 25.8789 424.805 l 1
 27.3438 424.805 30.7617 424.805 37.1094 424.316 c 0
 42.9688 424.316 50.293 423.34 59.082 421.387 c 0
 67.8711 419.922 73.7305 417.48 77.1484 414.062 c 0
 80.5664 410.645 82.5195 405.762 83.4961 399.414 c 0
 84.4727 393.066 84.9609 388.184 84.9609 383.789 c 2
 84.9609 85.9375 l 2
 84.9609 74.2188 84.4727 64.4531 83.9844 57.6172 c 0
 83.4961 50.293 80.5664 44.4336 76.1719 39.0625 c 0
 73.2422 36.1328 67.8711 34.1797 59.082 33.2031 c 0
 50.293 31.7383 42.9688 30.7617 37.1094 30.2734 c 0
 30.7617 30.2734 27.3438 29.7852 25.8789 29.7852 c 1
 25.8789 0 l 1
 234.863 0 l 1
 234.863 29.7852 l 1
 233.887 29.7852 229.98 30.2734 224.121 30.2734 c 0
 217.773 30.7617 210.449 31.7383 202.148 33.2031 c 0
 193.359 34.1797 187.5 36.1328 185.059 39.0625 c 0
 181.641 42.4805 179.199 47.3633 178.223 53.7109 c 0
 176.758 60.0586 175.781 72.2656 175.781 90.8203 c 2
 175.781 207.031 l 1
 351.074 207.031 l 1
 351.074 90.8203 l 2
 351.074 72.2656 350.098 60.0586 348.633 53.7109 c 0
 346.68 47.3633 344.238 42.4805 340.82 39.0625 c 0
 338.379 36.1328 332.52 34.1797 324.219 33.2031 c 0
 315.43 31.7383 308.105 30.7617 301.758 30.2734 c 0
 295.898 30.2734 292.48 29.7852 291.016 29.7852 c 1
 291.016 0 l 1
 500 0 l 1
 500 29.7852 l 1
 499.512 29.7852 495.605 30.2734 489.258 30.2734 c 0
 483.398 30.7617 476.074 31.7383 467.285 33.2031 c 0
 458.984 34.1797 453.613 36.1328 451.172 39.0625 c 0
 445.801 44.4336 442.871 50.293 441.895 57.6172 c 0
 441.406 64.4531 440.918 74.2188 440.918 85.9375 c 2
 440.918 379.883 l 2
 440.918 383.301 441.406 389.16 442.383 396.973 c 0
 443.359 404.785 445.801 410.645 449.219 414.062 c 0
 452.148 417.48 458.496 419.922 466.797 421.387 c 0
 475.586 423.34 483.398 424.316 489.258 424.316 c 0
 495.605 424.805 499.512 424.805 500 424.805 c 1
EndSplineSet
Fore
449 17 m 1
 449 0 l 1
 232 0 l 1
 232 17 l 1
 278 20 292 29 301 66 c 1
 345 225 l 1
 182 225 l 1
 147 101 l 1
 147 98 145 94 145 90 c 0
 139 68 136 56 136 46 c 0
 136 25 143 20 186 17 c 1
 186 0 l 1
 -16 0 l 1
 -16 17 l 1
 18 22 27 31 38 66 c 1
 122 373 l 2
 126 391 129 405 129 412 c 0
 129 427 122 434 100 436 c 0
 97 437 89 438 79 440 c 1
 79 457 l 1
 296 457 l 1
 296 440 l 1
 251 438 238 428 227 391 c 1
 190 255 l 1
 353 255 l 1
 385 373 l 2
 388 385 392 406 392 414 c 0
 392 428 385 434 364 436 c 0
 360 437 352 438 342 440 c 1
 342 457 l 1
 545 457 l 1
 545 440 l 1
 511 435 501 427 490 391 c 1
 416 119 l 1
 412 104 l 2
 402 70 399 55 399 45 c 0
 399 25 411 18 449 17 c 1
EndSplineSet
EndChar
StartChar: I
Encoding: 73 73 42
Width: 265
Flags: HW
HStem: 0 14 443 14<74 277 277 277>
Back
228.027 0 m 1
 19.043 0 l 1
 19.043 29.7852 l 1
 42.4805 29.7852 58.1055 33.2031 65.918 39.5508 c 0
 74.2188 45.8984 78.125 59.5703 78.125 80.0781 c 2
 78.125 372.07 l 2
 78.125 393.555 75.6836 407.227 70.8008 414.062 c 0
 67.8711 418.457 61.0352 421.387 51.2695 421.875 c 0
 41.9922 422.852 30.7617 422.852 19.043 422.852 c 1
 19.043 452.148 l 1
 228.027 452.148 l 1
 228.027 422.852 l 1
 214.844 422.852 203.613 422.852 194.336 421.875 c 0
 185.547 421.387 179.199 418.457 175.781 414.062 c 0
 170.898 408.203 167.969 394.043 167.969 372.07 c 2
 167.969 80.0781 l 2
 167.969 58.5938 171.875 44.9219 180.176 39.0625 c 0
 187.988 33.2031 204.102 29.7852 228.027 29.7852 c 1
 228.027 0 l 1
EndSplineSet
Fore
180 17 m 1
 180 0 l 1
 -22 0 l 1
 -22 17 l 1
 12 21 22 31 33 66 c 1
 117 373 l 2
 120 385 124 406 124 414 c 0
 124 428 117 434 96 436 c 0
 92 437 83 438 74 440 c 1
 74 457 l 1
 277 457 l 1
 277 440 l 1
 242 436 232 427 221 391 c 1
 143 104 l 2
 134 70 131 55 131 44 c 0
 131 25 141 19 180 17 c 1
EndSplineSet
EndChar
StartChar: J
Encoding: 74 74 43
Width: 341
Flags: HW
HStem: -68 25<52 70> 443 14<155 358 358 358>
VStem: -31 71
Back
266.113 422.852 m 1
 233.398 422.852 214.844 415.527 210.938 400.879 c 0
 208.984 394.531 208.008 384.766 208.008 373.047 c 2
 208.008 128.906 l 2
 208.008 88.8672 199.219 56.6406 181.152 32.2266 c 0
 160.156 5.37109 129.883 -7.8125 88.8672 -7.8125 c 0
 70.3125 -7.8125 55.1758 -4.39453 42.9688 2.92969 c 0
 24.9023 13.6719 16.1133 28.3203 16.1133 46.875 c 0
 16.1133 56.1523 19.5312 65.4297 26.8555 75.1953 c 0
 34.1797 84.4727 43.457 88.8672 55.1758 88.8672 c 0
 70.8008 88.8672 82.5195 83.9844 89.3555 73.7305 c 0
 96.6797 62.9883 100.098 52.2461 100.098 41.0156 c 0
 100.098 37.1094 100.586 34.668 102.051 34.1797 c 0
 103.516 33.2031 104.492 33.2031 105.957 33.2031 c 0
 115.234 33.2031 120.117 44.4336 120.117 67.8711 c 2
 120.117 373.047 l 2
 120.117 394.531 116.211 408.203 107.91 414.062 c 0
 100.098 419.922 84.4727 422.852 61.0352 422.852 c 1
 61.0352 453.125 l 1
 266.113 453.125 l 1
 266.113 422.852 l 1
EndSplineSet
Fore
358 457 m 1
 358 440 l 1
 324 436 314 427 302 391 c 1
 215 63 l 2
 191 -26 146 -68 72 -68 c 0
 12 -68 -31 -38 -31 1 c 0
 -31 28 -12 49 12 49 c 0
 36 49 55 30 55 6 c 0
 55 -3 53 -8 46 -16 c 0
 41 -23 40 -26 40 -31 c 0
 40 -39 46 -43 58 -43 c 0
 83 -43 93 -24 119 78 c 2
 197 373 l 2
 202 391 205 406 205 414 c 0
 205 427 196 434 176 436 c 0
 173 437 165 438 155 440 c 1
 155 457 l 1
 358 457 l 1
EndSplineSet
KernsSLIF: 264 -28 2 0 309 -26 2 0 310 -26 2 0 65 -26 2 0
EndChar
StartChar: K
Encoding: 75 75 44
Width: 455
Flags: HW
HStem: 0 14 443 14<81 293 293 293 335 479 479 479>
Back
508.789 0 m 1
 288.086 0 l 1
 288.086 29.7852 l 1
 302.734 29.7852 313.477 30.2734 319.824 30.7617 c 0
 326.66 31.7383 331.055 33.2031 333.008 36.1328 c 0
 333.496 36.6211 333.984 38.5742 333.984 41.0156 c 0
 333.984 44.9219 332.031 49.8047 328.125 55.6641 c 0
 324.219 61.0352 319.336 66.8945 313.965 73.2422 c 2
 187.988 205.078 l 1
 181.152 198.242 l 1
 181.152 80.0781 l 2
 181.152 70.8008 181.641 62.5 182.617 55.6641 c 0
 183.594 48.3398 185.547 43.457 188.965 40.0391 c 0
 194.336 34.668 202.148 31.7383 211.914 30.7617 c 0
 222.168 30.2734 230.957 29.7852 238.77 29.7852 c 1
 238.77 0 l 1
 29.7852 0 l 1
 29.7852 29.7852 l 1
 57.1289 29.7852 75.1953 34.1797 83.9844 42.9688 c 0
 85.9375 44.9219 87.4023 49.8047 87.8906 58.1055 c 0
 88.8672 65.918 88.8672 76.1719 88.8672 87.8906 c 2
 88.8672 372.07 l 2
 88.8672 392.09 84.9609 405.273 77.1484 412.598 c 0
 68.8477 419.434 53.2227 422.852 29.7852 422.852 c 1
 29.7852 453.125 l 1
 241.211 453.125 l 1
 241.211 422.852 l 1
 229.492 422.852 219.238 422.363 208.984 420.41 c 0
 199.219 418.945 191.895 416.016 187.988 412.109 c 0
 184.57 408.691 182.617 403.809 182.129 396.973 c 0
 181.152 390.137 181.152 381.836 181.152 372.07 c 2
 181.152 259.766 l 1
 304.199 372.07 l 2
 321.289 388.672 330.078 401.855 330.078 411.133 c 0
 330.078 418.945 314.453 422.852 284.18 422.852 c 1
 284.18 453.125 l 1
 477.051 453.125 l 1
 477.051 422.852 l 1
 467.773 422.852 458.984 422.852 450.684 421.875 c 0
 442.383 421.387 433.594 418.945 424.805 415.039 c 0
 417.48 411.621 410.156 406.738 402.344 399.902 c 0
 395.02 393.555 385.742 384.766 375 374.023 c 2
 255.859 256.836 l 1
 450.195 47.8516 l 2
 455.566 42.4805 463.379 38.5742 474.609 35.1562 c 0
 485.352 31.7383 497.07 29.7852 508.789 29.7852 c 1
 508.789 0 l 1
EndSplineSet
Fore
268 272 m 1
 375 41 l 2
 382 25 392 20 418 17 c 1
 418 0 l 1
 227 0 l 1
 227 17 l 1
 235 18 242 18 245 19 c 0
 263 20 271 26 271 36 c 0
 271 43 268 51 262 65 c 2
 185 230 l 1
 139 60 l 1
 139 57 138 53 138 48 c 0
 138 26 147 20 183 17 c 1
 183 0 l 1
 -14 0 l 1
 -14 17 l 1
 19 21 29 30 40 66 c 1
 124 373 l 2
 128 391 131 405 131 412 c 0
 131 427 124 434 102 436 c 0
 99 437 91 438 81 440 c 1
 81 457 l 1
 293 457 l 1
 293 440 l 1
 253 436 240 426 229 391 c 1
 186 235 l 1
 327 355 373 401 373 421 c 0
 373 431 367 436 350 438 c 0
 347 438 341 439 335 440 c 1
 335 457 l 1
 479 457 l 1
 479 440 l 1
 450 436 444 434 415 407 c 2
 268 272 l 1
EndSplineSet
KernsSLIF: 265 -28 2 0 322 -29 2 0 325 -29 2 0 335 2 2 0 266 -2 2 0 336 2 2 0 348 -8 2 0 351 -8 2 0 355 -5 2 0 67 -34 2 0 71 -31 2 0 79 -29 2 0 97 2 2 0 101 -10 2 0 45 -20 2 0 111 -8 2 0 117 -5 2 0 121 -46 2 0
EndChar
StartChar: L
Encoding: 76 76 45
Width: 417
Flags: HW
HStem: 0 22<165 208> 443 14<81 297 297 297>
Back
436.035 131.836 m 1
 399.902 0 l 1
 25.8789 0 l 1
 25.8789 29.7852 l 1
 47.8516 29.7852 62.9883 33.6914 70.3125 40.5273 c 0
 78.125 47.3633 82.0312 60.5469 82.0312 80.0781 c 2
 82.0312 373.047 l 2
 82.0312 383.789 81.543 393.066 80.0781 400.391 c 0
 78.6133 408.203 76.1719 412.598 73.2422 414.062 c 2
 25.8789 423.828 l 1
 25.8789 453.125 l 1
 234.863 453.125 l 1
 234.863 423.828 l 1
 196.777 419.922 l 2
 192.383 419.434 187.988 417.48 184.082 414.062 c 0
 177.246 408.203 173.828 394.531 173.828 373.047 c 2
 173.828 62.0117 l 2
 173.828 58.1055 174.316 55.1758 174.805 53.7109 c 0
 175.781 51.7578 177.246 49.8047 180.176 46.875 c 0
 181.152 45.8984 185.059 44.4336 191.406 43.457 c 0
 197.754 42.4805 203.613 41.9922 208.984 41.9922 c 2
 229.004 41.9922 l 2
 256.836 41.9922 279.297 42.9688 296.387 44.9219 c 0
 313.477 46.875 326.172 49.8047 333.984 54.1992 c 0
 345.215 59.5703 356.445 68.3594 367.188 81.0547 c 0
 377.441 93.75 387.695 110.84 396.973 131.836 c 1
 436.035 131.836 l 1
EndSplineSet
Fore
403 132 m 1
 363 0 l 1
 -15 0 l 1
 -15 17 l 1
 18 22 29 31 40 66 c 1
 124 373 l 2
 127 385 130 406 130 414 c 0
 130 428 124 434 102 436 c 0
 99 437 90 438 81 440 c 1
 81 457 l 1
 297 457 l 1
 297 440 l 1
 252 437 239 428 228 391 c 1
 140 64 l 2
 138 57 137 48 137 42 c 0
 137 28 150 22 180 22 c 0
 236 22 285 36 322 61 c 0
 348 81 363 98 386 136 c 1
 403 132 l 1
EndSplineSet
KernsSLIF: 264 17 2 0 306 19 2 0 309 19 2 0 310 19 2 0 322 2 2 0 323 2 2 0 325 2 2 0 321 2 2 0 324 2 2 0 329 -11 2 0 355 3 2 0 65 19 2 0 71 2 2 0 79 2 2 0 84 -20 2 0 85 -11 2 0 86 -52 2 0 87 -50 2 0 89 -27 2 0 45 27 2 0 148 -30 2 0 146 -45 2 0 117 3 2 0 121 -15 2 0
EndChar
StartChar: M
Encoding: 77 77 46
Width: 606
Flags: HW
HStem: -8 14 443 14<82 233 233 233 481 626 626 626>
Back
618.164 0 m 1
 409.18 0 l 1
 409.18 29.7852 l 1
 422.852 29.7852 434.57 30.7617 443.359 32.7148 c 0
 452.637 34.1797 458.496 37.1094 461.914 41.0156 c 0
 466.797 47.8516 469.238 63.4766 469.238 87.8906 c 2
 469.238 336.914 l 1
 316.895 0 l 1
 293.945 0 l 1
 145.02 324.219 l 1
 145.02 104.98 l 2
 145.02 75.6836 147.461 56.1523 151.855 46.875 c 0
 158.691 35.6445 176.758 29.7852 207.031 29.7852 c 1
 207.031 0 l 1
 26.8555 0 l 1
 26.8555 29.7852 l 1
 58.1055 29.7852 76.1719 34.668 81.0547 43.9453 c 0
 87.8906 54.6875 90.8203 75.1953 90.8203 104.98 c 2
 90.8203 371.094 l 2
 90.8203 392.09 87.8906 406.25 81.0547 413.086 c 0
 79.5898 414.551 77.6367 415.527 75.1953 416.016 c 0
 72.2656 416.504 69.8242 417.48 66.8945 417.969 c 2
 28.8086 422.852 l 1
 28.8086 452.148 l 1
 180.176 452.148 l 1
 324.219 134.766 l 1
 462.891 452.148 l 1
 618.164 452.148 l 1
 618.164 421.875 l 1
 595.215 421.875 580.078 418.457 572.266 411.133 c 0
 564.941 403.809 561.035 390.137 561.035 371.094 c 2
 561.035 80.0781 l 2
 561.035 53.2227 568.359 37.5977 583.008 33.2031 c 1
 618.164 28.8086 l 1
 618.164 0 l 1
EndSplineSet
Fore
626 457 m 1
 626 440 l 1
 591 436 581 426 571 391 c 1
 487 84 l 1
 486 81 l 1
 485 77 l 1
 481 63 480 53 480 46 c 0
 480 25 489 19 529 17 c 1
 529 0 l 1
 316 0 l 1
 316 17 l 1
 360 20 373 29 384 66 c 1
 470 383 l 1
 214 -8 l 1
 195 -8 l 1
 149 373 l 1
 80 122 l 2
 71 89 67 70 67 59 c 0
 67 31 78 23 122 17 c 1
 122 0 l 1
 -20 0 l 1
 -20 17 l 1
 17 25 22 33 49 122 c 1
 124 376 l 2
 128 393 131 407 131 416 c 0
 131 435 125 438 82 440 c 1
 82 457 l 1
 233 457 l 1
 270 129 l 1
 481 457 l 1
 626 457 l 1
EndSplineSet
EndChar
StartChar: N
Encoding: 78 78 47
Width: 492
Flags: HW
HStem: -10 14 443 14<76 209 209 209 368 511 511 511>
Back
511.23 422.852 m 1
 497.07 422.852 485.352 421.387 476.074 417.48 c 0
 466.797 414.062 460.449 409.18 457.031 403.809 c 0
 450.195 393.555 446.777 374.512 446.777 347.168 c 2
 446.777 -5.85938 l 1
 416.016 -5.85938 l 1
 142.09 335.938 l 1
 142.09 105.957 l 2
 142.09 76.1719 144.531 56.1523 148.926 46.875 c 0
 154.785 35.6445 172.852 29.7852 203.125 29.7852 c 1
 203.125 0 l 1
 23.9258 0 l 1
 23.9258 29.7852 l 1
 54.6875 29.7852 73.2422 36.1328 80.0781 47.8516 c 0
 85.4492 56.1523 87.8906 75.1953 87.8906 105.957 c 2
 87.8906 394.043 l 1
 71.7773 413.574 50.7812 422.852 23.9258 422.852 c 1
 23.9258 453.125 l 1
 157.227 453.125 l 1
 393.066 154.785 l 1
 393.066 347.168 l 2
 393.066 362.305 393.066 374.512 392.578 383.789 c 0
 392.09 393.555 390.625 400.391 388.184 404.785 c 0
 380.859 416.992 361.816 422.852 331.055 422.852 c 1
 331.055 453.125 l 1
 511.23 453.125 l 1
 511.23 422.852 l 1
EndSplineSet
Fore
209 457 m 1
 356 139 l 1
 410 335 l 2
 418 363 423 387 423 399 c 0
 423 425 408 436 368 440 c 1
 368 457 l 1
 511 457 l 1
 511 440 l 1
 471 431 468 425 441 335 c 1
 343 -10 l 1
 324 -10 l 1
 149 365 l 1
 81 122 l 1
 74 94 69 70 69 57 c 0
 69 31 83 20 124 17 c 1
 124 0 l 1
 -18 0 l 1
 -18 17 l 1
 19 25 24 32 51 122 c 1
 132 402 l 1
 119 432 113 436 76 440 c 1
 76 457 l 1
 209 457 l 1
EndSplineSet
KernsSLIF: 264 -28 2 0 306 -26 2 0 309 -26 2 0 310 -26 2 0 311 -20 2 0 322 -21 2 0 325 -21 2 0 332 -18 2 0 335 -18 2 0 266 -23 2 0 336 -18 2 0 339 -25 2 0 348 -23 2 0 351 -23 2 0 364 -21 2 0 355 -22 2 0 65 -26 2 0 67 -21 2 0 71 -17 2 0 79 -21 2 0 97 -17 2 0 44 -16 2 0 101 -25 2 0 111 -21 2 0 46 -17 2 0 117 -22 2 0
EndChar
StartChar: O
Encoding: 79 79 48
Width: 492
Flags: HW
HStem: -12 23<165 205> 444 23<282 325>
VStem: 18 98<102 128> 373 98<322 355>
Back
25.8789 226.074 m 0
 25.8789 193.359 31.7383 162.598 43.457 134.277 c 0
 55.1758 105.957 70.8008 81.543 90.8203 60.5469 c 0
 110.84 39.5508 134.766 22.9492 162.109 10.7422 c 0
 189.453 -1.95312 218.262 -7.8125 249.023 -7.8125 c 0
 280.273 -7.8125 309.57 -1.95312 336.426 10.7422 c 0
 363.281 22.9492 387.207 39.5508 407.715 60.5469 c 0
 427.734 81.543 443.848 105.957 455.566 134.277 c 0
 467.285 162.598 473.145 193.359 473.145 226.074 c 0
 473.145 258.789 467.285 289.062 455.566 317.383 c 0
 443.848 345.703 427.734 370.605 407.715 392.09 c 0
 387.207 413.574 363.281 430.176 336.426 442.383 c 0
 309.57 454.59 280.273 460.938 249.023 460.938 c 0
 218.262 460.938 189.453 454.59 162.109 442.383 c 0
 134.766 430.176 110.84 413.574 90.8203 392.09 c 0
 70.8008 370.605 55.1758 345.703 43.457 317.383 c 0
 31.7383 289.062 25.8789 258.789 25.8789 226.074 c 0
123.047 226.074 m 0
 123.047 252.441 126.465 277.344 132.812 300.293 c 0
 139.648 323.73 148.438 343.262 160.156 360.352 c 0
 171.387 377.441 184.57 391.113 200.195 400.879 c 0
 215.332 411.133 231.934 416.016 250 416.016 c 0
 267.09 416.016 283.691 411.133 298.828 400.879 c 0
 314.453 391.113 327.637 377.441 338.867 360.352 c 0
 350.098 343.262 359.375 323.73 366.211 300.293 c 0
 372.559 277.344 375.977 252.441 375.977 226.074 c 0
 375.977 199.219 372.559 174.316 366.211 150.879 c 0
 359.375 127.441 350.098 107.422 338.867 90.332 c 0
 327.637 73.7305 314.453 60.0586 298.828 49.8047 c 0
 283.691 40.0391 267.09 35.1562 250 35.1562 c 0
 231.934 35.1562 215.332 40.0391 200.195 49.8047 c 0
 184.57 60.0586 171.387 73.7305 160.156 90.332 c 0
 148.438 107.422 139.648 127.441 132.812 150.879 c 0
 126.465 174.316 123.047 199.219 123.047 226.074 c 0
EndSplineSet
Fore
307 468 m 0
 401 468 472 401 472 310 c 0
 472 210 416 102 331 40 c 0
 285 5 233 -12 180 -12 c 0
 83 -12 18 53 18 151 c 0
 18 246 77 356 160 416 c 0
 206 450 257 468 307 468 c 0
304 444 m 0
 260 444 224 416 189 355 c 0
 152 289 117 163 117 94 c 0
 117 43 143 11 186 11 c 0
 223 11 254 31 285 77 c 0
 331 144 373 281 373 363 c 0
 373 412 345 444 304 444 c 0
EndSplineSet
KernsSLIF: 264 -45 2 0 306 -38 2 0 309 -38 2 0 310 -38 2 0 65 -38 2 0 84 -12 2 0 86 -35 2 0 87 -35 2 0 88 -43 2 0 89 -38 2 0
EndChar
StartChar: P
Encoding: 80 80 49
Width: 417
Flags: HW
HStem: 0 14 216 24<223 236> 435 22<255 273 273 280>
VStem: 319 100<361 385>
Back
296.875 325.195 m 0
 296.875 353.516 288.086 375.488 270.508 390.137 c 0
 252.93 404.785 224.609 412.109 186.035 412.109 c 0
 179.199 412.109 174.805 411.133 172.363 409.668 c 0
 170.41 407.715 168.945 403.809 168.945 397.949 c 2
 168.945 234.863 l 1
 171.875 234.375 175.781 233.887 181.152 233.887 c 2
 199.219 233.887 l 2
 264.16 233.887 296.875 264.16 296.875 325.195 c 0
393.066 326.172 m 0
 393.066 301.758 387.207 280.762 375.488 262.695 c 0
 363.77 244.141 347.656 229.004 327.148 216.797 c 0
 311.035 207.52 292.969 200.684 272.461 196.289 c 0
 251.953 192.383 229.492 189.941 204.102 189.941 c 2
 168.945 189.941 l 1
 168.945 80.0781 l 2
 168.945 60.0586 173.828 46.875 183.105 40.0391 c 0
 192.383 33.2031 208.496 29.7852 230.957 29.7852 c 1
 230.957 0 l 1
 24.9023 0 l 1
 24.9023 29.7852 l 1
 37.5977 29.7852 48.3398 30.7617 56.6406 32.7148 c 0
 64.9414 34.1797 70.3125 36.6211 73.2422 40.0391 c 0
 76.1719 43.9453 78.125 49.8047 79.1016 57.6172 c 0
 79.5898 64.9414 80.0781 75.1953 80.0781 87.8906 c 2
 80.0781 373.047 l 2
 80.0781 393.066 76.6602 406.25 69.3359 413.086 c 0
 62.5 419.434 47.8516 422.852 24.9023 422.852 c 1
 24.9023 453.125 l 1
 210.938 453.125 l 2
 256.348 453.125 295.898 444.824 329.102 428.223 c 0
 371.582 405.273 393.066 371.094 393.066 326.172 c 0
EndSplineSet
Fore
77 440 m 1
 77 457 l 1
 273 457 l 2
 368 457 418 420 418 351 c 0
 418 269 345 216 232 216 c 0
 214 216 201 217 177 220 c 1
 140 84 l 1
 137 73 133 51 133 44 c 0
 133 25 144 19 182 17 c 1
 182 0 l 1
 -18 0 l 1
 -18 17 l 1
 17 23 25 30 36 66 c 1
 120 373 l 2
 124 388 127 404 127 414 c 0
 127 428 119 434 98 436 c 0
 95 437 87 438 77 440 c 1
227 405 m 1
 184 242 l 1
 195 241 203 240 212 240 c 0
 260 240 285 256 303 296 c 0
 313 317 319 349 319 373 c 0
 319 412 298 435 261 435 c 0
 249 435 241 432 235 425 c 0
 232 421 232 421 227 405 c 1
EndSplineSet
KernsSLIF: 264 -70 2 0 306 -60 2 0 309 -60 2 0 310 -60 2 0 332 -34 2 0 335 -25 2 0 266 -39 2 0 336 -34 2 0 339 -38 2 0 348 -35 2 0 351 -23 2 0 267 -38 2 0 364 -32 2 0 65 -60 2 0 74 -71 2 0 97 -34 2 0 44 -73 2 0 101 -38 2 0 45 -36 2 0 111 -35 2 0 46 -74 2 0
EndChar
StartChar: Q
Encoding: 81 81 50
Width: 492
Flags: HW
HStem: -142 61 444 23<282 325>
VStem: 18 98<122 128> 373 98<322 355>
Back
16.1133 227.051 m 0
 16.1133 200.195 20.0195 174.805 27.3438 150.879 c 0
 35.1562 126.953 45.8984 104.98 59.5703 85.4492 c 0
 73.2422 65.918 89.3555 48.8281 107.91 34.668 c 0
 126.465 20.0195 147.461 8.78906 169.922 0.976562 c 1
 189.941 -27.832 l 1
 211.426 -53.2227 237.793 -72.7539 269.531 -86.4258 c 0
 301.27 -100.098 337.891 -106.934 378.906 -106.934 c 2
 438.965 -106.934 l 1
 438.965 -77.1484 l 1
 426.758 -77.1484 414.551 -76.1719 400.879 -74.707 c 0
 387.695 -72.7539 374.512 -69.3359 360.84 -63.9648 c 0
 347.656 -58.5938 334.473 -51.2695 321.289 -41.5039 c 0
 308.594 -31.7383 296.875 -19.5312 287.109 -3.90625 c 1
 312.5 1.95312 335.449 12.207 356.934 25.8789 c 0
 378.418 40.0391 396.484 57.1289 412.109 77.6367 c 0
 427.246 97.6562 439.453 120.605 448.73 145.996 c 0
 457.52 171.387 461.914 198.242 461.914 227.051 c 0
 461.914 259.766 456.055 290.527 444.336 318.848 c 0
 432.617 347.656 416.992 373.047 396.484 394.531 c 0
 375.977 416.016 352.539 433.105 325.684 445.312 c 0
 298.34 458.008 269.531 463.867 238.77 463.867 c 0
 208.496 463.867 179.688 458.008 152.344 445.312 c 0
 125.488 433.105 102.051 416.016 81.543 394.531 c 0
 61.0352 373.047 45.4102 347.656 33.6914 318.848 c 0
 21.9727 290.527 16.1133 259.766 16.1133 227.051 c 0
115.234 226.074 m 0
 115.234 251.953 118.164 276.367 124.512 299.316 c 0
 130.859 322.266 139.648 342.285 150.879 359.375 c 0
 162.109 376.465 175.781 390.137 190.918 399.902 c 0
 206.543 410.156 222.656 415.039 240.234 415.039 c 0
 257.324 415.039 273.438 410.156 288.574 399.902 c 0
 303.711 390.137 316.895 376.465 328.125 359.375 c 0
 339.355 342.285 348.145 322.266 354.492 299.316 c 0
 360.84 276.367 363.77 251.953 363.77 226.074 c 0
 363.77 200.195 360.84 175.293 354.492 152.344 c 0
 348.145 129.395 339.355 109.375 328.125 92.2852 c 0
 316.895 75.6836 303.711 62.0117 288.574 51.7578 c 0
 273.438 41.9922 257.324 37.1094 240.234 37.1094 c 0
 222.656 37.1094 206.543 41.9922 190.918 51.7578 c 0
 175.781 62.0117 162.109 75.6836 150.879 92.2852 c 0
 139.648 109.375 130.859 129.395 124.512 152.344 c 0
 118.164 175.293 115.234 200.195 115.234 226.074 c 0
EndSplineSet
Fore
433 -27 m 1
 447 -40 l 1
 392 -115 345 -142 270 -142 c 0
 242 -142 220 -138 178 -124 c 0
 142 -113 126 -110 107 -110 c 0
 85 -110 66 -115 29 -129 c 1
 19 -113 l 1
 126 -24 l 2
 131 -19 134 -16 135 -16 c 0
 137 -14 137 -13 139 -11 c 1
 137 -8 134 -7 129 -5 c 0
 93 8 84 13 66 30 c 0
 36 59 18 100 18 144 c 0
 18 310 159 468 307 468 c 0
 402 468 472 401 472 309 c 0
 472 218 426 122 351 55 c 0
 298 8 261 -6 172 -12 c 1
 158 -25 141 -42 141 -44 c 0
 141 -46 147 -48 167 -49 c 0
 195 -51 225 -56 242 -61 c 2
 270 -70 l 2
 295 -78 309 -81 327 -81 c 0
 368 -81 393 -68 433 -27 c 1
304 444 m 0
 260 444 224 416 189 355 c 0
 152 289 117 163 117 93 c 0
 117 43 143 12 186 12 c 0
 223 12 254 32 285 78 c 0
 331 145 373 281 373 363 c 0
 373 412 345 444 304 444 c 0
EndSplineSet
EndChar
StartChar: R
Encoding: 82 82 51
Width: 455
Flags: HW
HStem: 0 14 435 22<250 264 264 280>
VStem: 322 103<347 391>
Back
301.758 331.055 m 0
 301.758 357.91 293.457 377.93 276.367 391.602 c 0
 259.277 405.273 235.352 412.109 204.102 412.109 c 0
 188.477 412.109 180.176 411.133 178.223 410.156 c 0
 174.805 408.203 172.852 403.32 172.852 395.996 c 2
 172.852 243.164 l 1
 191.895 243.164 207.031 244.141 219.727 246.582 c 0
 231.934 249.023 243.164 251.953 252.93 255.859 c 0
 285.645 269.531 301.758 294.434 301.758 331.055 c 0
470.215 0 m 1
 345.215 0 l 1
 188.965 202.148 l 1
 172.852 201.172 l 1
 172.852 80.0781 l 2
 172.852 60.5469 176.758 47.3633 185.059 40.5273 c 0
 192.871 33.6914 208.496 29.7852 230.957 29.7852 c 1
 230.957 0 l 1
 25.8789 0 l 1
 25.8789 29.7852 l 1
 39.5508 29.7852 50.293 31.25 58.5938 33.6914 c 0
 66.8945 35.6445 72.2656 38.5742 75.1953 41.0156 c 0
 79.1016 44.9219 81.0547 60.5469 81.0547 87.8906 c 2
 81.0547 373.047 l 2
 81.0547 382.812 80.5664 391.602 79.5898 398.438 c 0
 78.6133 405.273 76.6602 410.156 74.2188 413.086 c 0
 67.3828 419.434 51.2695 422.852 25.8789 422.852 c 1
 25.8789 453.125 l 1
 221.191 453.125 l 2
 338.867 453.125 397.949 412.109 397.949 330.078 c 0
 397.949 271.484 360.352 232.422 285.156 212.891 c 1
 411.133 58.1055 l 2
 418.945 47.8516 427.734 41.0156 437.012 36.6211 c 0
 446.289 32.2266 457.52 29.7852 470.215 29.7852 c 1
 470.215 0 l 1
EndSplineSet
Fore
76 440 m 1
 76 457 l 1
 264 457 l 2
 372 457 425 425 425 359 c 0
 425 321 406 286 371 263 c 0
 349 249 332 242 294 234 c 1
 351 66 l 1
 366 26 373 20 411 17 c 1
 411 0 l 1
 273 0 l 1
 200 226 l 1
 180 226 l 1
 143 94 l 2
 137 73 133 55 133 46 c 0
 133 25 143 20 182 17 c 1
 182 0 l 1
 -20 0 l 1
 -20 17 l 1
 14 21 24 31 35 66 c 1
 119 373 l 1
 122 384 126 406 126 414 c 0
 126 428 119 434 98 436 c 0
 94 437 85 438 76 440 c 1
227 405 m 1
 186 248 l 1
 229 249 255 253 273 265 c 0
 302 283 322 325 322 370 c 0
 322 411 300 435 261 435 c 0
 240 435 233 429 227 405 c 1
EndSplineSet
KernsSLIF: 311 -21 2 0 265 -21 2 0 322 -23 2 0 325 -23 2 0 329 -30 2 0 266 -6 2 0 339 -14 2 0 348 -12 2 0 351 -12 2 0 267 -15 2 0 353 -8 2 0 355 -8 2 0 67 -22 2 0 71 -19 2 0 79 -23 2 0 84 -16 2 0 85 -30 2 0 86 -31 2 0 87 -31 2 0 89 -27 2 0 101 -14 2 0 45 -20 2 0 111 -12 2 0 117 -8 2 0 121 -8 2 0
EndChar
StartChar: S
Encoding: 83 83 52
Width: 379
Flags: HW
HStem: -12 23<150 168> 444 24<201 216>
VStem: 70 83<357 373> 237 83<89 113>
Back
336.914 118.164 m 0
 336.914 80.5664 321.289 49.3164 290.039 23.9258 c 0
 275.879 14.1602 260.254 6.34766 242.676 0.976562 c 0
 224.609 -4.39453 206.543 -6.83594 187.012 -6.83594 c 0
 179.688 -6.83594 171.387 -6.34766 161.621 -4.88281 c 0
 151.855 -3.90625 141.113 -1.46484 129.883 1.95312 c 0
 108.887 9.27734 94.2383 13.1836 86.9141 13.1836 c 0
 80.5664 13.1836 77.1484 6.34766 77.1484 -6.83594 c 1
 43.9453 -6.83594 l 1
 23.9258 146.973 l 1
 54.1992 146.973 l 1
 69.8242 107.91 87.4023 78.6133 105.957 59.5703 c 0
 124.512 40.5273 147.461 30.7617 173.828 30.7617 c 0
 192.871 30.7617 208.496 37.1094 222.168 49.3164 c 0
 235.352 62.0117 242.188 77.1484 242.188 96.1914 c 0
 242.188 120.117 231.445 141.602 209.961 161.133 c 0
 205.566 165.039 197.266 170.898 186.523 178.223 c 0
 175.293 185.547 161.133 193.848 144.043 204.102 c 0
 109.863 224.609 85.9375 242.188 71.7773 255.859 c 0
 49.3164 279.297 38.0859 307.617 38.0859 340.82 c 0
 38.0859 358.887 41.5039 375.488 47.8516 390.137 c 0
 54.6875 404.785 63.9648 417.48 76.1719 428.223 c 0
 87.8906 438.477 102.051 446.777 117.676 452.637 c 0
 133.301 458.008 149.902 460.938 167.969 460.938 c 0
 174.805 460.938 182.617 459.961 191.406 458.496 c 0
 200.684 457.031 211.426 454.102 225.098 450.195 c 2
 259.766 438.965 l 1
 264.648 440.918 268.555 448.242 271.973 460.938 c 1
 303.223 460.938 l 1
 317.871 304.199 l 1
 285.156 304.199 l 1
 280.762 321.289 275.879 336.426 269.531 350.098 c 0
 263.184 363.281 254.883 375.488 245.117 386.23 c 0
 224.121 406.738 200.195 416.992 172.852 416.992 c 0
 157.715 416.992 145.508 412.109 137.207 402.344 c 0
 128.418 393.066 124.023 379.883 124.023 363.77 c 0
 124.023 340.82 140.625 317.871 173.828 294.922 c 2
 276.855 227.051 l 2
 316.895 200.195 336.914 164.062 336.914 118.164 c 0
EndSplineSet
Fore
1 -12 m 1
 26 141 l 1
 46 139 l 1
 48 98 54 78 67 57 c 0
 84 28 115 11 151 11 c 0
 184 11 208 24 224 51 c 0
 232 66 237 82 237 97 c 0
 237 128 213 160 160 201 c 0
 122 231 94 261 79 290 c 0
 73 302 70 317 70 335 c 0
 70 410 129 468 207 468 c 0
 226 468 244 464 274 455 c 0
 291 450 302 447 309 447 c 0
 323 447 332 453 339 465 c 1
 359 465 l 1
 332 328 l 1
 313 330 l 1
 304 410 278 444 223 444 c 0
 180 444 152 416 152 372 c 0
 152 341 162 326 205 294 c 0
 288 231 320 185 320 126 c 0
 320 42 259 -12 163 -12 c 0
 136 -12 113 -8 79 4 c 0
 63 10 55 12 48 12 c 0
 35 12 30 8 22 -12 c 1
 1 -12 l 1
EndSplineSet
KernsSLIF: 264 -11 2 0 306 -7 2 0 309 -7 2 0 310 -7 2 0 65 -7 2 0 84 -23 2 0 86 -13 2 0 87 -13 2 0 89 -16 2 0 116 -4 2 0
EndChar
StartChar: T
Encoding: 84 84 53
Width: 417
Flags: HW
HStem: 0 17<34 44 44 61> 443 14<68 444 444 444>
Back
416.992 324.219 m 1
 379.883 324.219 l 1
 372.559 361.816 363.281 384.766 352.051 393.066 c 0
 344.727 397.461 336.426 401.367 327.148 404.297 c 0
 317.871 407.715 305.176 409.18 289.062 409.18 c 2
 263.184 409.18 l 1
 263.184 80.0781 l 2
 263.184 60.0586 266.602 46.875 274.414 40.0391 c 0
 282.227 33.2031 297.852 29.7852 321.777 29.7852 c 1
 321.777 0 l 1
 112.793 0 l 1
 112.793 29.7852 l 1
 128.418 29.7852 139.648 31.25 146.973 33.6914 c 0
 154.297 35.6445 160.156 38.5742 164.062 41.9922 c 1
 163.086 41.9922 l 1
 168.457 47.3633 170.898 62.5 170.898 87.8906 c 2
 170.898 409.18 l 1
 145.996 409.18 l 2
 129.395 409.18 116.211 407.715 105.957 405.273 c 0
 96.1914 403.32 87.8906 399.414 82.0312 394.043 c 0
 70.8008 385.254 61.0352 361.816 53.2227 324.219 c 1
 17.0898 324.219 l 1
 21.9727 453.125 l 1
 412.109 453.125 l 1
 416.992 324.219 l 1
EndSplineSet
Fore
444 457 m 1
 419 326 l 1
 401 327 l 1
 397 403 371 432 307 433 c 1
 211 87 l 2
 206 70 203 55 203 45 c 0
 203 23 212 19 260 17 c 1
 260 0 l 1
 34 0 l 1
 34 17 l 1
 44 17 l 2
 79 17 96 31 106 66 c 2
 207 433 l 1
 137 431 94 403 59 335 c 1
 42 340 l 1
 68 457 l 1
 444 457 l 1
EndSplineSet
KernsSLIF: 264 -36 2 0 306 -35 2 0 307 -35 2 0 309 -35 2 0 305 -35 2 0 310 -35 2 0 308 -35 2 0 265 -12 2 0 322 -15 2 0 323 -15 2 0 325 -15 2 0 321 -15 2 0 362 -15 2 0 324 -15 2 0 266 -62 2 0 364 -61 2 0 65 -35 2 0 67 -10 2 0 71 -6 2 0 74 -43 2 0 79 -15 2 0 83 -10 2 0 86 10 2 0 87 10 2 0 89 7 2 0 97 -56 2 0 99 -60 2 0 58 -66 2 0 44 -52 2 0 101 -64 2 0 103 -64 2 0 286 -75 2 0 288 -81 2 0 45 -50 2 0 105 -12 2 0 106 -18 2 0 111 -61 2 0 46 -53 2 0 114 -51 2 0 115 -53 2 0 59 -66 2 0 117 -62 2 0 118 -60 2 0 119 -60 2 0 121 -58 2 0
EndChar
StartChar: U
Encoding: 85 85 54
Width: 492
Flags: HW
HStem: -12 38<197 227> 443 14<67 279 279 279 366 508 508 508>
VStem: 46 94<73 104>
Back
501.953 423.828 m 1
 470.703 421.875 452.637 415.527 448.242 404.785 c 0
 443.359 395.508 440.918 376.465 440.918 347.168 c 2
 440.918 175.781 l 2
 440.918 152.832 438.965 131.348 435.547 112.305 c 0
 431.641 93.2617 426.27 77.1484 418.945 63.9648 c 0
 404.785 40.0391 384.277 21.9727 356.445 9.76562 c 0
 328.613 -1.95312 295.41 -7.8125 255.859 -7.8125 c 0
 198.242 -7.8125 153.809 6.34766 124.023 35.6445 c 0
 94.2383 64.4531 79.1016 108.398 79.1016 166.992 c 2
 79.1016 373.047 l 2
 79.1016 393.066 74.707 406.25 66.4062 413.086 c 0
 58.1055 419.434 42.4805 422.852 19.043 422.852 c 1
 19.043 453.125 l 1
 229.98 453.125 l 1
 229.98 422.852 l 1
 206.055 422.852 189.941 419.922 181.641 414.062 c 0
 173.34 408.203 168.945 394.531 168.945 373.047 c 2
 168.945 162.109 l 2
 168.945 78.6133 204.102 37.1094 274.902 37.1094 c 0
 320.801 37.1094 354.492 53.2227 375 84.9609 c 0
 383.789 98.1445 388.184 126.465 388.184 168.945 c 2
 388.184 347.168 l 2
 388.184 377.441 385.254 396.484 379.883 403.809 c 0
 371.094 416.504 353.516 422.852 326.172 422.852 c 1
 326.172 453.125 l 1
 501.953 453.125 l 1
 501.953 423.828 l 1
EndSplineSet
Fore
508 457 m 1
 508 440 l 1
 470 432 466 425 438 335 c 1
 393 180 l 2
 372 106 356 69 332 42 c 0
 302 6 256 -12 198 -12 c 0
 109 -12 46 34 46 101 c 0
 46 124 54 166 68 221 c 1
 107 361 l 2
 113 384 117 405 117 413 c 0
 117 428 110 434 88 437 c 0
 85 437 76 438 67 440 c 1
 67 457 l 1
 279 457 l 1
 279 440 l 1
 237 438 227 429 215 391 c 1
 159 186 l 2
 142 124 140 113 140 95 c 0
 140 52 171 26 223 26 c 0
 261 26 291 40 314 67 c 0
 335 92 350 126 368 193 c 2
 408 335 l 1
 415 363 421 390 421 401 c 0
 421 425 405 436 366 440 c 1
 366 457 l 1
 508 457 l 1
EndSplineSet
KernsSLIF: 264 -48 2 0 306 -44 2 0 307 -44 2 0 309 -44 2 0 310 -44 2 0 308 -44 2 0 65 -44 2 0 44 -27 2 0 109 -23 2 0 110 -26 2 0 112 -20 2 0 46 -27 2 0 114 -21 2 0
EndChar
StartChar: V
Encoding: 86 86 55
Width: 455
Flags: HW
HStem: -12 14 443 14<44 248 248 248 357 488 488 488>
Back
485.84 423.828 m 1
 473.145 423.828 464.844 422.852 460.938 420.898 c 0
 452.148 417.48 446.289 413.574 442.871 409.18 c 0
 439.453 404.297 437.5 400.391 436.035 396.973 c 2
 276.855 -5.85938 l 1
 244.141 -5.85938 l 1
 79.1016 359.863 l 1
 73.7305 373.535 68.3594 384.766 62.9883 394.043 c 0
 57.6172 403.32 53.2227 409.668 49.8047 413.086 c 0
 43.9453 418.457 37.5977 421.387 30.7617 422.363 c 0
 24.4141 423.34 17.0898 423.828 8.78906 423.828 c 1
 8.78906 453.125 l 1
 208.008 453.125 l 1
 208.008 423.828 l 1
 184.082 423.828 168.457 421.875 162.109 417.969 c 0
 160.645 417.48 159.668 416.016 159.668 414.062 c 0
 159.18 412.109 159.18 410.156 159.18 408.203 c 0
 159.18 405.273 161.133 398.438 166.016 387.695 c 0
 170.898 376.465 177.246 361.328 186.035 341.797 c 2
 274.902 140.137 l 1
 362.793 360.84 l 2
 365.723 367.676 368.164 374.512 370.117 380.859 c 0
 372.07 387.695 373.535 394.531 375 401.855 c 0
 375 416.504 358.887 423.828 327.148 423.828 c 1
 327.148 453.125 l 1
 485.84 453.125 l 1
 485.84 423.828 l 1
EndSplineSet
Fore
488 457 m 1
 488 440 l 1
 469 434 457 425 448 412 c 1
 180 -12 l 1
 158 -12 l 1
 106 335 l 1
 91 433 87 440 44 440 c 1
 44 457 l 1
 248 457 l 1
 248 440 l 1
 202 436 196 432 196 409 c 0
 196 405 196 402 197 398 c 1
 231 124 l 1
 361 330 l 2
 388 372 401 402 401 417 c 0
 401 430 393 436 374 438 c 0
 371 438 365 439 357 440 c 1
 357 457 l 1
 488 457 l 1
EndSplineSet
KernsSLIF: 264 -75 2 0 306 -68 2 0 307 -68 2 0 309 -68 2 0 305 -68 2 0 310 -68 2 0 308 -68 2 0 322 -43 2 0 323 -43 2 0 325 -43 2 0 321 -43 2 0 362 -43 2 0 324 -43 2 0 266 -57 2 0 364 -55 2 0 65 -68 2 0 67 -40 2 0 71 -36 2 0 79 -43 2 0 83 -17 2 0 84 4 2 0 97 -51 2 0 58 -65 2 0 44 -65 2 0 101 -59 2 0 103 -56 2 0 286 -67 2 0 288 -74 2 0 45 -42 2 0 105 -8 2 0 111 -56 2 0 46 -66 2 0 114 -30 2 0 59 -65 2 0 117 -32 2 0 121 -23 2 0
EndChar
StartChar: W
Encoding: 87 87 56
Width: 606
Flags: HW
HStem: -12 14 443 14<44 233 233 233 273 457 457 457 514 642 642 642>
Back
666.016 424.805 m 1
 649.414 421.875 637.695 417.48 630.859 413.086 c 0
 624.512 408.203 618.164 400.391 612.793 389.16 c 1
 472.168 -5.85938 l 1
 439.941 -5.85938 l 1
 431.152 18.5547 418.457 53.2227 401.855 97.168 c 0
 385.254 141.113 364.746 193.359 339.844 253.906 c 1
 244.141 -5.85938 l 1
 215.82 -5.85938 l 1
 85.9375 352.051 l 1
 76.1719 380.859 68.8477 397.461 64.9414 401.855 c 0
 56.1523 414.551 40.0391 421.875 16.1133 423.828 c 1
 16.1133 453.125 l 1
 203.125 453.125 l 1
 203.125 422.852 l 1
 195.801 422.852 189.941 422.852 186.523 422.363 c 0
 182.617 422.363 179.688 421.875 176.758 420.898 c 0
 172.363 420.41 166.992 418.457 161.133 416.016 c 1
 161.133 410.645 161.133 405.762 161.621 400.879 c 0
 161.621 396.484 163.574 390.137 166.992 382.812 c 1
 253.906 158.203 l 1
 314.941 318.848 l 1
 294.922 370.117 l 2
 285.645 392.578 278.32 406.738 272.949 412.109 c 0
 265.625 419.434 250 422.852 226.074 422.852 c 1
 226.074 453.125 l 1
 428.223 453.125 l 1
 428.223 422.852 l 1
 394.531 422.852 377.441 417.969 375.977 408.203 c 1
 378.906 395.02 l 1
 472.168 157.227 l 1
 546.875 356.934 l 2
 550.293 366.211 552.734 374.512 554.199 381.836 c 0
 555.176 389.16 556.152 395.996 556.152 401.855 c 0
 556.152 410.645 553.223 416.504 547.852 418.945 c 1
 511.23 423.828 l 1
 511.23 453.125 l 1
 666.016 453.125 l 1
 666.016 424.805 l 1
EndSplineSet
Fore
642 457 m 1
 642 440 l 1
 613 436 604 428 584 391 c 1
 389 -12 l 1
 369 -12 l 1
 329 322 l 1
 170 -12 l 1
 150 -12 l 1
 97 383 l 1
 90 431 89 433 44 440 c 1
 44 457 l 1
 233 457 l 1
 233 440 l 1
 201 436 192 428 192 403 c 0
 192 401 192 396 193 393 c 1
 219 154 l 1
 322 367 l 1
 321 425 314 435 273 440 c 1
 273 457 l 1
 457 457 l 1
 457 440 l 1
 421 436 414 430 414 400 c 0
 414 393 414 391 418 356 c 1
 440 154 l 1
 547 378 l 2
 555 395 557 401 557 409 c 0
 557 434 552 437 514 440 c 1
 514 457 l 1
 642 457 l 1
EndSplineSet
KernsSLIF: 264 -59 2 0 306 -56 2 0 307 -56 2 0 309 -56 2 0 305 -56 2 0 310 -56 2 0 308 -56 2 0 322 -32 2 0 323 -32 2 0 325 -32 2 0 321 -32 2 0 362 -32 2 0 324 -32 2 0 266 -40 2 0 364 -38 2 0 65 -56 2 0 67 -31 2 0 71 -27 2 0 79 -32 2 0 83 -16 2 0 84 5 2 0 97 -34 2 0 58 -53 2 0 44 -42 2 0 101 -42 2 0 103 -43 2 0 286 -50 2 0 288 -57 2 0 45 -25 2 0 105 -7 2 0 111 -39 2 0 46 -43 2 0 114 -23 2 0 59 -53 2 0 117 -25 2 0 121 -17 2 0
EndChar
StartChar: X
Encoding: 88 88 57
Width: 455
Flags: HW
HStem: 0 14 443 14<68 276 276 276 335 474 474 474>
Back
511.23 0 m 1
 291.016 0 l 1
 291.016 28.8086 l 1
 310.547 30.2734 323.73 32.7148 331.055 36.1328 c 0
 338.379 39.5508 341.797 42.4805 341.797 44.9219 c 0
 341.797 50.293 339.844 56.6406 334.961 64.4531 c 0
 330.566 72.2656 323.242 83.4961 312.988 98.1445 c 2
 258.789 181.152 l 1
 188.965 95.2148 l 2
 168.457 68.3594 158.203 51.7578 158.203 44.9219 c 0
 158.203 35.1562 174.316 29.7852 207.031 29.7852 c 1
 207.031 0 l 1
 29.7852 0 l 1
 29.7852 28.8086 l 1
 40.5273 30.2734 49.8047 31.7383 58.1055 33.2031 c 0
 65.918 34.1797 71.7773 37.1094 75.1953 41.0156 c 2
 100.098 67.8711 l 1
 99.1211 67.8711 l 1
 226.074 224.121 l 1
 158.203 324.219 l 2
 126.465 371.094 104.004 399.902 89.8438 410.156 c 0
 85.9375 413.574 79.5898 416.016 70.3125 417.969 c 0
 61.5234 419.922 50.293 421.875 37.1094 423.828 c 1
 37.1094 453.125 l 1
 261.23 453.125 l 1
 261.23 422.852 l 1
 249.023 422.852 238.77 422.852 230.469 422.363 c 0
 222.168 422.363 217.285 421.875 215.82 420.898 c 0
 213.867 419.434 211.914 418.457 209.473 416.992 c 0
 207.031 415.527 206.055 414.062 206.055 412.109 c 0
 206.055 405.762 211.426 395.02 222.168 379.395 c 0
 232.91 363.77 247.07 343.262 265.137 317.871 c 2
 284.18 290.039 l 1
 371.094 395.996 l 2
 374.512 400.879 375.977 405.762 375.977 411.133 c 0
 375.977 418.945 360.84 422.852 330.078 422.852 c 1
 330.078 453.125 l 1
 509.766 453.125 l 1
 509.766 422.852 l 1
 497.559 422.852 485.84 420.898 475.098 416.504 c 0
 464.355 412.109 458.008 409.18 456.055 408.203 c 0
 453.125 406.738 448.242 401.855 439.941 393.066 c 0
 432.129 384.277 423.828 375 415.039 365.234 c 2
 318.848 248.047 l 1
 436.035 75.1953 l 2
 445.312 60.5469 456.543 49.3164 469.238 41.9922 c 0
 481.445 34.668 495.605 30.2734 511.23 28.8086 c 1
 511.23 0 l 1
EndSplineSet
Fore
400 17 m 1
 400 0 l 1
 190 0 l 1
 190 17 l 1
 227 20 236 26 236 43 c 0
 236 57 229 87 210 139 c 0
 201 166 200 171 197 180 c 1
 106 79 l 2
 91 63 85 53 85 44 c 0
 85 29 99 20 130 17 c 1
 130 0 l 1
 -16 0 l 1
 -16 17 l 1
 12 23 33 42 141 160 c 0
 167 188 170 192 188 211 c 1
 130 397 l 1
 119 428 109 436 68 440 c 1
 68 457 l 1
 276 457 l 1
 276 440 l 1
 267 438 259 438 256 438 c 0
 233 435 226 429 226 413 c 0
 226 403 233 375 249 325 c 0
 251 322 252 317 253 313 c 2
 261 287 l 1
 325 355 l 2
 360 392 373 410 373 422 c 0
 373 432 366 437 350 438 c 0
 347 438 342 439 335 440 c 1
 335 457 l 1
 474 457 l 1
 474 440 l 1
 449 436 436 428 406 398 c 1
 270 258 l 1
 321 96 l 2
 341 32 351 23 400 17 c 1
EndSplineSet
KernsSLIF: 325 -38 2 0 67 -39 2 0 79 -38 2 0 81 -39 2 0 97 -6 2 0 101 -19 2 0 45 -31 2 0 111 -17 2 0 117 -14 2 0 121 -55 2 0
EndChar
StartChar: Y
Encoding: 89 89 58
Width: 417
Flags: HW
HStem: 0 14 443 14<50 243 243 243 308 450 450 450>
Back
487.793 424.805 m 1
 469.238 422.363 455.566 418.457 445.801 413.086 c 0
 434.082 405.762 416.992 385.254 395.02 352.051 c 2
 299.805 207.031 l 1
 299.805 80.0781 l 2
 299.805 70.8008 300.293 62.5 301.27 55.1758 c 0
 302.734 47.8516 304.688 42.4805 308.105 39.0625 c 0
 312.012 35.1562 318.848 32.7148 328.613 31.7383 c 0
 338.379 30.2734 351.562 29.7852 368.164 29.7852 c 1
 368.164 0 l 1
 140.137 0 l 1
 140.137 29.7852 l 1
 171.875 29.7852 192.383 34.1797 201.172 41.9922 c 0
 205.078 45.8984 207.031 61.5234 207.031 87.8906 c 2
 207.031 201.172 l 1
 178.223 242.188 155.273 275.879 138.184 300.781 c 0
 120.605 326.172 106.445 346.191 96.1914 360.84 c 0
 85.4492 375.488 77.1484 386.23 71.7773 393.066 c 0
 66.8945 399.902 62.0117 404.785 58.1055 409.18 c 0
 51.7578 415.039 45.4102 418.945 38.5742 420.898 c 0
 31.7383 422.852 23.4375 423.828 14.1602 423.828 c 1
 14.1602 453.125 l 1
 221.191 453.125 l 1
 221.191 423.828 l 1
 190.43 423.828 174.805 419.922 174.805 412.109 c 0
 174.805 408.691 175.781 405.273 177.734 401.855 c 0
 179.199 398.438 181.641 394.531 185.059 389.16 c 2
 272.949 253.906 l 1
 360.84 395.02 l 2
 362.305 397.461 363.77 400.391 365.234 402.832 c 0
 366.211 405.762 367.188 408.203 367.188 411.133 c 0
 367.188 419.434 352.051 423.828 321.777 423.828 c 1
 321.777 453.125 l 1
 487.793 453.125 l 1
 487.793 424.805 l 1
EndSplineSet
Fore
160 214 m 1
 100 397 l 1
 87 433 85 435 50 440 c 1
 50 457 l 1
 243 457 l 1
 243 440 l 1
 205 439 195 434 195 414 c 0
 195 403 202 378 218 333 c 0
 220 326 225 313 231 293 c 0
 233 285 243 255 248 240 c 1
 336 367 l 2
 350 387 354 396 354 408 c 0
 354 432 344 438 308 440 c 1
 308 457 l 1
 450 457 l 1
 450 440 l 1
 424 434 411 424 388 393 c 1
 258 210 l 1
 223 80 l 2
 218 64 217 57 217 49 c 0
 217 24 225 19 270 17 c 1
 270 0 l 1
 50 0 l 1
 50 17 l 1
 97 20 107 27 119 66 c 1
 160 214 l 1
EndSplineSet
KernsSLIF: 264 -32 2 0 306 -30 2 0 307 -30 2 0 309 -30 2 0 305 -30 2 0 310 -30 2 0 308 -30 2 0 322 -41 2 0 323 -41 2 0 325 -41 2 0 321 -41 2 0 362 -41 2 0 324 -41 2 0 266 -52 2 0 364 -51 2 0 65 -30 2 0 67 -40 2 0 71 -36 2 0 79 -41 2 0 83 -17 2 0 84 4 2 0 97 -47 2 0 58 -62 2 0 44 -45 2 0 101 -54 2 0 103 -55 2 0 286 -66 2 0 288 -73 2 0 45 -43 2 0 105 -8 2 0 111 -51 2 0 112 -36 2 0 46 -47 2 0 59 -62 2 0 117 -40 2 0 118 -36 2 0
EndChar
StartChar: Z
Encoding: 90 90 59
Width: 417
Flags: HW
HStem: 0 24<107 154 154 184> 433 24<198 236 236 289>
Back
437.012 132.812 m 1
 417.969 0 l 1
 26.8555 0 l 1
 26.8555 20.0195 l 1
 307.129 412.109 l 1
 176.758 412.109 l 2
 138.184 412.109 111.816 403.809 97.168 387.207 c 0
 90.332 380.371 83.4961 359.375 76.1719 324.219 c 1
 40.0391 324.219 l 1
 55.1758 453.125 l 1
 421.875 453.125 l 1
 421.875 433.105 l 1
 147.949 41.9922 l 1
 297.852 41.9922 l 2
 333.984 41.9922 359.863 50.293 375 66.8945 c 0
 378.418 71.7773 382.324 79.5898 387.695 90.332 c 0
 392.578 101.562 397.461 115.723 402.832 132.812 c 1
 437.012 132.812 l 1
EndSplineSet
Fore
378 132 m 1
 338 0 l 1
 -8 0 l 1
 -8 20 l 1
 289 433 l 1
 236 433 l 2
 160 433 117 408 63 332 c 1
 44 335 l 1
 83 457 l 1
 403 457 l 1
 403 437 l 1
 107 24 l 1
 154 24 l 2
 214 24 255 33 285 55 c 0
 313 73 339 102 360 136 c 1
 378 132 l 1
EndSplineSet
KernsSLIF: 118 -19 2 0 121 -26 2 0
EndChar
StartChar: bracketleft
Encoding: 91 91 60
Width: 227
Flags: HW
HStem: -109 24<76 124> 436 24<183 195 195 242>
Back
169.922 -83.9844 m 1
 22.9492 -83.9844 l 1
 22.9492 485.84 l 1
 169.922 485.84 l 1
 169.922 452.148 l 1
 104.98 452.148 l 2
 92.7734 452.148 86.9141 444.824 86.9141 430.176 c 2
 86.9141 -22.9492 l 2
 86.9141 -41.0156 94.2383 -49.8047 107.91 -49.8047 c 2
 169.922 -49.8047 l 1
 169.922 -83.9844 l 1
EndSplineSet
Fore
242 436 m 1
 195 436 l 2
 171 436 169 434 160 393 c 2
 52 -68 l 2
 51 -71 54 -77 57 -80 c 0
 60 -83 66 -85 76 -85 c 2
 129 -85 l 1
 124 -109 l 1
 -25 -109 l 1
 111 460 l 1
 247 460 l 1
 242 436 l 1
EndSplineSet
EndChar
StartChar: backslash
Encoding: 92 92 61
Width: 189
Flags: HW
HStem: -12 14 454 14<-1 57 57 57>
Back
243.164 -117.188 m 1
 189.941 -117.188 l 1
 2.92969 477.051 l 1
 55.1758 477.051 l 1
 243.164 -117.188 l 1
EndSplineSet
Fore
-1 468 m 1
 57 468 l 1
 190 -12 l 1
 133 -12 l 1
 -1 468 l 1
EndSplineSet
EndChar
StartChar: bracketright
Encoding: 93 93 62
Width: 227
Flags: HW
HStem: -107 24<-33 13 13 25> 436 24<84 132>
Back
147.949 -83.9844 m 1
 0.976562 -83.9844 l 1
 0.976562 -49.8047 l 1
 64.9414 -49.8047 l 2
 77.6367 -49.8047 83.9844 -42.9688 83.9844 -28.8086 c 2
 83.9844 424.805 l 2
 83.9844 442.871 77.1484 452.148 62.9883 452.148 c 2
 0.976562 452.148 l 1
 0.976562 485.84 l 1
 147.949 485.84 l 1
 147.949 -83.9844 l 1
EndSplineSet
Fore
-33 -83 m 1
 13 -83 l 2
 38 -83 39 -81 48 -42 c 1
 156 421 l 2
 158 429 147 436 132 436 c 2
 79 436 l 1
 84 460 l 1
 234 460 l 1
 98 -107 l 1
 -38 -107 l 1
 -33 -83 l 1
EndSplineSet
EndChar
StartChar: asciicircum
Encoding: 94 94 63
Width: 389
Flags: HW
HStem: 443 14<167 222 222 222>
Back
317.871 193.848 m 1
 259.766 193.848 l 1
 166.016 384.766 l 1
 71.7773 193.848 l 1
 14.1602 193.848 l 1
 140.137 449.219 l 1
 191.895 449.219 l 1
 317.871 193.848 l 1
EndSplineSet
Fore
107 208 m 1
 46 208 l 1
 167 457 l 1
 222 457 l 1
 343 208 l 1
 283 208 l 1
 195 393 l 1
 107 208 l 1
EndSplineSet
EndChar
StartChar: underscore
Encoding: 95 95 64
Width: 341
Flags: HW
HStem: -85 34<0 341>
Back
351.074 -56.1523 m 1
 0.976562 -56.1523 l 1
 0.976562 -20.9961 l 1
 351.074 -20.9961 l 1
 351.074 -56.1523 l 1
EndSplineSet
Fore
341 -85 m 1
 0 -85 l 1
 0 -51 l 1
 341 -51 l 1
 341 -85 l 1
EndSplineSet
EndChar
StartChar: quotesglleft
Encoding: 96 -1 65
Width: 200
Flags: W
Back
130.859 204.102 m 1
 92.7734 204.102 l 1
 26.8555 245.117 l 2
 17.5781 249.512 12.207 257.324 11.2305 268.066 c 0
 11.2305 281.25 18.5547 288.086 33.2031 288.086 c 0
 40.5273 288.086 48.3398 284.18 57.1289 276.855 c 1
 130.859 204.102 l 1
EndSplineSet
Fore
215 282 m 1
 189 319 147 380 142 394 c 0
 133 419 145 445 172 459 c 0
 199 472 221 464 229 438 c 0
 234 425 240 344 242 296 c 1
 215 282 l 1
EndSplineSet
EndChar
StartChar: a
Encoding: 97 97 66
Width: 341
Flags: HW
HStem: -10 14 -9 48 302 14<130 187>
VStem: -14 84<66 94> 162 77
Back
201.172 187.988 m 1
 136.23 165.527 104.004 136.719 104.004 102.051 c 0
 104.004 87.8906 108.398 75.6836 117.188 64.9414 c 0
 120.117 61.5234 124.023 58.5938 127.441 56.6406 c 0
 131.348 54.1992 136.23 53.2227 143.066 53.2227 c 0
 166.992 53.2227 185.059 61.0352 196.777 77.1484 c 0
 198.242 79.1016 199.219 82.0312 200.195 86.4258 c 0
 200.684 90.8203 201.172 94.2383 201.172 97.168 c 2
 201.172 187.988 l 1
328.125 34.1797 m 1
 305.176 7.8125 281.25 -4.88281 255.859 -4.88281 c 0
 226.074 -4.88281 208.496 8.78906 203.125 36.1328 c 1
 166.504 8.78906 134.766 -4.88281 107.91 -4.88281 c 0
 83.4961 -4.88281 62.9883 2.44141 47.3633 17.5781 c 0
 31.7383 32.7148 23.9258 51.7578 23.9258 76.1719 c 0
 23.9258 112.793 40.5273 142.578 74.2188 166.016 c 0
 80.5664 169.922 94.7266 176.758 115.723 186.523 c 0
 136.719 196.289 165.039 208.496 201.172 224.121 c 1
 201.172 263.184 l 2
 201.172 296.387 186.035 312.988 155.762 312.988 c 0
 129.883 312.988 116.211 303.711 113.77 285.156 c 0
 113.77 283.203 114.746 278.809 116.211 272.949 c 0
 117.188 267.09 118.164 262.207 118.164 258.789 c 0
 118.164 255.859 117.188 251.465 116.211 246.582 c 0
 114.746 241.699 111.816 236.328 106.934 230.957 c 0
 103.516 227.051 98.6328 224.121 92.2852 222.168 c 0
 85.9375 220.215 80.5664 219.238 76.1719 219.238 c 0
 64.4531 219.238 55.1758 222.168 47.8516 229.004 c 0
 40.5273 235.84 37.1094 245.605 37.1094 258.789 c 0
 37.1094 286.133 51.7578 309.082 82.0312 327.148 c 0
 93.2617 334.473 105.469 339.355 119.141 342.285 c 0
 132.324 345.703 146.484 347.168 162.109 347.168 c 0
 204.102 347.168 233.887 337.402 250.977 317.383 c 0
 268.555 297.852 276.855 266.602 276.855 224.121 c 2
 276.855 83.9844 l 2
 276.855 62.5 280.762 51.7578 288.086 51.7578 c 0
 291.504 51.7578 296.387 54.1992 302.734 58.1055 c 0
 308.594 62.0117 317.383 68.8477 328.125 78.125 c 1
 328.125 34.1797 l 1
EndSplineSet
Fore
296 87 m 1x78
 311 76 l 1
 272 17 240 -10 208 -10 c 0x98
 182 -10 162 10 162 36 c 0
 162 45 164 55 171 81 c 1
 132 16 101 -9 59 -9 c 0
 15 -9 -14 26 -14 78 c 0
 -14 184 88 315 172 315 c 0
 201 315 216 301 223 266 c 1
 235 307 l 1
 311 311 l 1
 262 150 l 2
 246 95 239 66 239 49 c 0
 239 43 242 39 247 39 c 0
 258 39 268 49 296 87 c 1x78
182 287 m 0x58
 163 288 141 267 120 231 c 0
 92 180 70 112 70 76 c 0
 70 55 83 40 100 40 c 0
 119 40 139 58 158 91 c 0
 184 137 207 214 207 255 c 0
 207 273 197 285 182 287 c 0x58
EndSplineSet
KernsSLIF: 106 -1 2 0 146 -15 2 0 118 -3 2 0 119 -3 2 0 121 -2 2 0
EndChar
StartChar: b
Encoding: 98 98 67
Width: 341
Flags: HW
HStem: -9 23<89 110> 269 46
VStem: -10 84<27 34> 218 85<202 238>
Back
291.016 157.227 m 0
 291.016 174.805 290.039 191.406 287.598 206.055 c 0
 285.156 220.703 280.762 233.887 274.902 246.094 c 0
 260.254 275.879 238.77 291.016 210.938 291.016 c 0
 195.801 291.016 182.129 286.621 170.898 277.832 c 0
 157.227 267.09 149.902 255.859 149.902 243.164 c 2
 149.902 61.0352 l 2
 149.902 56.1523 152.344 52.2461 156.738 48.8281 c 0
 160.645 45.8984 166.016 42.9688 171.875 40.5273 c 0
 178.223 38.0859 184.57 36.6211 190.918 35.6445 c 0
 197.754 34.668 203.125 34.1797 208.008 34.1797 c 0
 263.184 34.1797 291.016 75.1953 291.016 157.227 c 0
375 183.105 m 0
 375 161.621 371.582 140.625 364.258 120.605 c 0
 357.422 100.098 347.168 81.0547 333.984 62.9883 c 0
 300.781 17.5781 253.418 -4.88281 191.895 -4.88281 c 0
 179.199 -4.88281 166.992 -4.39453 155.273 -2.92969 c 0
 144.043 -1.46484 132.324 1.46484 121.094 6.83594 c 0
 104.98 14.1602 92.7734 20.9961 83.9844 26.3672 c 0
 75.1953 32.2266 70.8008 39.5508 70.8008 48.8281 c 2
 70.8008 426.758 l 2
 70.8008 442.383 70.3125 450.684 68.8477 452.148 c 0
 65.4297 455.566 61.0352 457.031 55.1758 457.031 c 2
 23.9258 454.102 l 1
 23.9258 481.934 l 1
 35.1562 485.352 51.2695 490.234 71.2891 496.582 c 0
 91.7969 502.93 113.77 509.766 138.184 517.09 c 1
 149.902 513.184 l 1
 149.902 317.871 l 1
 161.133 328.613 174.805 337.402 190.918 343.262 c 0
 207.031 349.609 222.168 353.027 236.816 353.027 c 0
 282.227 353.027 317.383 334.473 341.797 297.852 c 0
 352.539 281.25 360.84 263.672 366.699 244.629 c 0
 372.07 225.586 375 205.078 375 183.105 c 0
EndSplineSet
Fore
52 438 m 1
 52 457 l 1
 113 464 146 468 194 477 c 1
 132 253 l 1
 167 299 192 315 227 315 c 0
 272 315 303 281 303 231 c 0
 303 109 196 -9 85 -9 c 0
 40 -9 -10 13 -10 32 c 0
 -10 36 -2 66 4 87 c 2
 68 311 l 2
 86 373 95 409 95 418 c 0
 95 434 85 438 52 438 c 1
188 269 m 0
 165 269 143 249 126 210 c 0
 115 186 100 143 92 116 c 0
 87 94 74 38 74 32 c 0
 74 22 83 14 96 14 c 0
 125 14 152 35 175 76 c 0
 199 118 218 182 218 222 c 0
 218 253 208 269 188 269 c 0
EndSplineSet
KernsSLIF: 118 -8 2 0 119 -8 2 0 121 -11 2 0
EndChar
StartChar: c
Encoding: 99 99 68
Width: 303
Flags: HW
HStem: -9 44 293 23<175 189>
VStem: -3 87<78 117> 200 68
Back
315.918 118.164 m 1
 277.832 36.1328 227.539 -4.88281 164.062 -4.88281 c 0
 142.578 -4.88281 123.047 -0.976562 104.98 7.32422 c 0
 86.9141 15.625 71.2891 29.2969 58.1055 47.8516 c 0
 47.3633 63.4766 38.5742 80.5664 32.2266 99.6094 c 0
 25.3906 118.652 21.9727 139.648 21.9727 163.086 c 0
 21.9727 212.891 37.1094 255.859 66.8945 291.992 c 0
 98.1445 328.613 139.16 347.168 189.941 347.168 c 0
 204.102 347.168 216.797 345.703 229.004 342.773 c 0
 241.211 340.332 252.441 335.449 263.184 329.102 c 0
 276.367 321.777 286.621 312.5 293.457 300.781 c 0
 300.293 289.551 304.199 278.32 304.199 267.09 c 0
 304.199 255.859 300.293 246.094 292.48 237.793 c 0
 284.668 229.98 274.902 226.074 262.207 226.074 c 0
 251.465 226.074 242.188 229.98 234.375 237.305 c 0
 227.051 245.117 221.191 254.883 217.773 266.113 c 0
 213.867 282.227 209.473 293.457 205.078 299.805 c 0
 200.195 306.641 191.406 310.059 178.223 310.059 c 0
 152.832 310.059 131.836 296.875 116.211 270.996 c 0
 102.051 248.535 95.2148 221.68 95.2148 190.918 c 0
 95.2148 154.785 103.516 125.488 121.094 102.051 c 0
 140.137 75.1953 164.551 62.0117 193.848 62.0117 c 0
 215.332 62.0117 233.887 68.3594 249.023 81.0547 c 0
 254.395 84.9609 260.742 91.3086 267.578 99.6094 c 0
 274.414 107.91 282.715 119.141 291.992 132.812 c 1
 315.918 118.164 l 1
EndSplineSet
Fore
217 96 m 1
 236 84 l 1
 212 50 201 37 184 22 c 0
 160 2 131 -9 101 -9 c 0
 40 -9 -3 33 -3 94 c 0
 -3 203 95 315 191 315 c 0
 236 315 268 290 268 254 c 0
 268 226 250 206 225 206 c 0
 203 206 186 221 186 242 c 0
 186 250 188 257 195 268 c 0
 199 274 200 279 200 281 c 0
 200 288 193 293 185 293 c 0
 165 293 144 276 126 244 c 0
 102 200 84 139 84 96 c 0
 84 59 104 35 134 35 c 0
 163 35 184 51 217 96 c 1
EndSplineSet
KernsSLIF: 104 -13 2 0 107 -10 2 0
EndChar
StartChar: d
Encoding: 100 100 69
Width: 341
Flags: HW
HStem: -9 49 -8 14 293 14 302 14<130 181>
VStem: 164 74
Back
234.863 250.977 m 1
 232.91 271.484 225.586 288.574 212.891 300.781 c 0
 207.52 306.152 201.172 310.059 193.359 312.5 c 0
 186.035 314.941 178.223 315.918 169.922 315.918 c 0
 154.785 315.918 141.602 312.012 131.348 304.199 c 0
 121.094 295.898 112.793 285.645 106.934 273.438 c 0
 101.074 261.23 96.6797 247.559 94.2383 232.91 c 0
 91.3086 218.262 89.8438 204.102 89.8438 190.918 c 0
 89.8438 174.805 91.3086 158.691 94.7266 141.602 c 0
 97.6562 124.512 102.539 109.375 109.375 95.7031 c 0
 116.699 82.0312 125.977 70.3125 137.695 61.5234 c 0
 148.926 52.7344 163.574 47.8516 181.152 47.8516 c 0
 209.473 47.8516 227.539 60.5469 234.863 84.9609 c 1
 234.863 250.977 l 1
361.816 33.2031 m 1
 248.047 -5.85938 l 1
 234.863 0.976562 l 1
 234.863 23.9258 l 1
 212.402 4.88281 184.57 -4.88281 150.879 -4.88281 c 0
 121.094 -4.88281 93.2617 3.90625 67.8711 20.9961 c 0
 49.8047 33.2031 36.1328 51.2695 26.3672 76.6602 c 0
 16.6016 101.562 12.207 130.859 12.207 165.039 c 0
 12.207 215.82 25.3906 258.301 51.7578 292.969 c 0
 82.0312 333.008 121.094 353.027 168.945 353.027 c 0
 191.895 353.027 213.867 346.191 234.863 333.008 c 1
 234.863 426.758 l 2
 234.863 440.918 234.375 448.73 232.91 450.195 c 0
 230.469 454.102 225.098 456.055 217.773 456.055 c 2
 187.988 453.125 l 1
 187.988 481.934 l 1
 205.566 487.305 220.215 491.699 231.934 495.117 c 0
 244.141 498.535 253.906 501.465 262.207 503.906 c 0
 270.02 506.836 276.855 508.789 282.715 511.23 c 0
 298.828 517.09 l 1
 313.965 513.184 l 1
 313.965 91.7969 l 2
 313.965 78.6133 315.43 69.8242 318.359 65.4297 c 0
 321.289 61.0352 328.125 59.082 338.867 59.082 c 2
 361.816 61.0352 l 1
 361.816 33.2031 l 1
EndSplineSet
Fore
292 89 m 1x28
 307 79 l 1
 269 18 238 -8 205 -8 c 0x48
 179 -8 164 8 164 35 c 0
 164 45 166 55 171 81 c 1
 132 16 101 -9 58 -9 c 0
 16 -9 -14 27 -14 76 c 0
 -14 184 88 315 171 315 c 0x98
 191 315 204 309 221 293 c 1
 233 339 l 1
 249 397 253 414 253 420 c 0
 253 432 242 439 225 439 c 2
 210 439 l 1
 210 457 l 1
 279 463 312 468 353 477 c 1
 277 201 l 2
 253 114 238 55 238 48 c 0
 238 44 242 40 246 40 c 0
 256 40 273 59 292 89 c 1x28
185 287 m 0x88
 165 288 140 266 118 227 c 0
 94 183 72 120 70 83 c 0
 69 59 81 40 98 40 c 0
 118 40 138 57 157 91 c 0
 180 134 210 224 210 253 c 0
 210 272 200 286 185 287 c 0x88
EndSplineSet
EndChar
StartChar: e
Encoding: 101 101 70
Width: 303
Flags: HW
HStem: -9 44<122 132> 293 23<173 196>
VStem: 3 89<72 96> 209 63<244 273>
Back
161.133 305.176 m 0
 127.441 305.176 105.469 283.203 94.2383 240.234 c 1
 217.773 240.234 l 1
 211.914 283.203 192.871 305.176 161.133 305.176 c 0
325.195 125.977 m 1
 317.871 97.168 303.223 71.2891 282.227 47.8516 c 0
 248.535 12.6953 209.473 -4.88281 164.062 -4.88281 c 0
 124.023 -4.88281 92.2852 6.83594 68.3594 30.2734 c 0
 44.9219 54.1992 29.7852 85.9375 23.9258 125.977 c 0
 23.4375 130.859 22.9492 136.23 22.9492 142.09 c 0
 22.9492 147.949 22.9492 154.785 22.9492 163.086 c 0
 22.9492 212.402 35.1562 253.906 60.0586 288.086 c 0
 88.8672 327.148 127.441 347.168 175.781 347.168 c 0
 218.75 347.168 251.465 333.984 274.414 307.617 c 0
 297.363 281.25 309.082 245.117 309.082 199.219 c 1
 89.8438 199.219 l 1
 91.7969 106.445 126.465 60.0586 193.848 60.0586 c 0
 230.469 60.0586 266.113 86.4258 300.781 139.16 c 1
 325.195 125.977 l 1
EndSplineSet
Fore
216 97 m 1
 236 85 l 1
 195 18 158 -9 107 -9 c 0
 47 -9 3 34 3 91 c 0
 3 204 102 315 200 315 c 0
 242 315 272 291 272 256 c 0
 272 232 259 206 235 184 c 0
 201 153 167 138 96 124 c 1
 94 111 92 102 92 91 c 0
 92 54 107 35 137 35 c 0
 165 35 184 50 216 97 c 1
101 146 m 1
 109 149 119 152 124 154 c 0
 176 173 209 218 209 270 c 0
 209 285 203 293 190 293 c 0
 157 293 126 240 101 146 c 1
EndSplineSet
KernsSLIF: 146 -8 2 0 116 -2 2 0 118 -2 2 0 119 -2 2 0 120 -10 2 0 121 -4 2 0
EndChar
StartChar: f
Encoding: 102 102 71
Width: 227
Flags: HW
HStem: -140 21<-48 -33> 278 29<33 76 161 218> 457 20<224 239>
VStem: -115 58 247 57
Back
289.062 462.891 m 0
 289.062 451.66 285.645 442.383 278.809 435.059 c 0
 272.461 427.734 262.207 423.828 248.047 423.828 c 0
 242.188 423.828 235.84 425.781 229.492 430.176 c 0
 223.145 434.082 217.285 440.43 211.914 449.219 c 0
 201.172 468.262 191.895 478.027 183.105 478.027 c 0
 161.133 478.027 149.902 458.984 149.902 420.898 c 2
 149.902 346.191 l 1
 235.84 346.191 l 1
 235.84 306.152 l 1
 150.879 306.152 l 1
 150.879 83.9844 l 2
 150.879 73.2422 151.367 64.4531 151.855 57.1289 c 0
 152.832 49.8047 154.297 44.4336 157.227 41.0156 c 0
 163.574 32.2266 183.105 27.832 215.82 27.832 c 1
 215.82 0 l 1
 14.1602 0 l 1
 14.1602 27.832 l 1
 34.1797 29.2969 47.3633 30.7617 53.7109 32.7148 c 0
 60.0586 34.1797 63.4766 35.6445 64.9414 37.1094 c 0
 70.3125 44.4336 73.2422 60.0586 73.2422 83.9844 c 2
 73.2422 306.152 l 1
 15.1367 306.152 l 1
 15.1367 346.191 l 1
 73.2422 346.191 l 1
 75.1953 459.961 120.117 517.09 208.008 517.09 c 0
 217.285 517.09 226.074 516.113 233.398 515.137 c 0
 241.211 513.672 249.023 510.742 256.836 505.859 c 0
 278.32 494.141 289.062 479.492 289.062 462.891 c 0
EndSplineSet
Fore
224 307 m 1
 218 278 l 1
 156 278 l 1
 119 105 112 74 96 20 c 0
 73 -50 55 -86 27 -111 c 0
 6 -130 -19 -140 -48 -140 c 0
 -89 -140 -115 -119 -115 -86 c 0
 -115 -66 -99 -49 -80 -49 c 0
 -63 -49 -46 -66 -46 -82 c 0
 -46 -89 -49 -98 -55 -105 c 0
 -57 -108 -57 -110 -57 -111 c 0
 -57 -115 -52 -119 -45 -119 c 0
 -18 -119 -5 -91 16 10 c 0
 20 30 40 115 76 278 c 1
 27 278 l 1
 33 307 l 1
 83 307 l 1
 102 375 115 403 144 435 c 0
 169 462 201 477 237 477 c 0
 278 477 304 455 304 422 c 0
 304 401 290 386 270 386 c 0
 251 386 236 401 236 419 c 0
 236 426 238 432 244 440 c 0
 246 444 247 446 247 448 c 0
 247 453 242 457 236 457 c 0
 212 457 190 423 173 355 c 2
 161 307 l 1
 224 307 l 1
EndSplineSet
KernsSLIF: 332 -16 2 0 335 11 2 0 266 -21 2 0 336 -13 2 0 339 -24 2 0 348 -21 2 0 351 13 2 0 267 -23 2 0 364 -19 2 0 97 -15 2 0 101 -23 2 0 102 1 2 0 105 13 2 0 106 8 2 0 108 29 2 0 111 -20 2 0 146 8 2 0 115 -9 2 0 116 6 2 0
EndChar
StartChar: g
Encoding: 103 103 72
Width: 341
Flags: HW
HStem: -139 23<77 126> -4 14 104 21<133 143> 255 38<281 326 281 281> 294 21<165 183>
VStem: -36 59<-78 -58> 24 79<174 180> 182 74<-66 -59> 205 80
Back
223.145 211.914 m 0
 223.145 232.91 219.238 252.441 211.914 271.973 c 0
 202.148 300.781 186.035 314.941 164.062 314.941 c 0
 136.719 314.941 123.047 296.875 123.047 261.23 c 0
 123.047 188.965 143.066 152.832 183.105 152.832 c 0
 209.473 152.832 223.145 172.852 223.145 211.914 c 0
294.922 -19.043 m 0
 294.922 -13.6719 292.48 -8.78906 287.598 -4.88281 c 0
 282.715 -0.976562 276.367 1.95312 269.043 3.90625 c 0
 258.789 7.32422 248.047 9.27734 235.84 9.76562 c 0
 224.121 10.7422 212.402 11.2305 201.172 11.2305 c 2
 139.16 11.2305 l 2
 128.906 11.2305 120.117 12.207 112.793 14.1602 c 1
 95.2148 -9.76562 85.9375 -27.3438 85.9375 -38.0859 c 0
 85.9375 -64.4531 117.188 -78.125 179.199 -78.125 c 0
 191.895 -78.125 204.102 -76.6602 215.82 -74.2188 c 0
 228.027 -71.2891 240.234 -67.8711 251.953 -63.9648 c 0
 280.762 -54.1992 294.922 -39.0625 294.922 -19.043 c 0
337.891 285.156 m 1
 285.156 285.156 l 1
 291.504 267.09 294.922 248.535 294.922 229.98 c 0
 294.922 196.777 284.18 169.922 262.207 149.414 c 0
 240.234 129.395 211.914 119.141 178.223 119.141 c 0
 171.387 119.141 164.551 119.141 157.715 119.629 c 0
 150.391 119.629 144.531 120.605 140.137 122.07 c 2
 138.184 122.07 l 2
 135.254 122.07 132.812 120.605 130.371 118.164 c 0
 127.93 115.234 125.488 112.305 122.07 108.887 c 0
 112.793 99.1211 107.91 91.7969 107.91 87.8906 c 0
 107.91 82.5195 123.535 79.1016 154.785 77.1484 c 2
 241.211 71.7773 l 2
 267.09 70.8008 288.574 62.9883 306.152 48.3398 c 0
 323.242 34.1797 332.031 15.1367 332.031 -8.78906 c 0
 332.031 -29.7852 325.684 -47.8516 312.988 -63.4766 c 0
 300.293 -79.1016 284.668 -92.2852 265.625 -103.027 c 0
 246.582 -113.77 226.562 -121.582 205.566 -126.953 c 0
 184.57 -132.324 165.527 -134.766 147.949 -134.766 c 0
 136.23 -134.766 122.559 -133.789 107.91 -131.348 c 0
 93.2617 -129.395 79.5898 -125 66.4062 -119.141 c 0
 53.7109 -112.793 42.4805 -104.98 33.6914 -95.7031 c 0
 24.4141 -85.9375 20.0195 -73.7305 20.0195 -59.082 c 0
 20.0195 -35.1562 39.5508 -7.8125 79.1016 22.9492 c 1
 69.8242 29.7852 62.5 35.6445 57.1289 41.5039 c 0
 51.7578 47.3633 48.8281 53.7109 48.8281 61.0352 c 0
 48.8281 78.125 66.8945 103.027 103.027 134.766 c 1
 65.4297 155.762 46.875 186.523 46.875 228.027 c 0
 46.875 246.094 50.293 262.695 56.6406 277.832 c 0
 62.9883 293.457 71.7773 306.641 83.0078 317.383 c 0
 94.2383 328.613 107.91 336.914 123.047 342.773 c 0
 138.184 349.121 154.785 352.051 172.852 352.051 c 0
 182.129 352.051 192.871 350.586 204.59 348.145 c 0
 216.309 345.215 229.004 341.309 243.164 335.938 c 0
 254.395 332.031 265.625 330.078 276.855 330.078 c 2
 337.891 330.078 l 1
 337.891 285.156 l 1
EndSplineSet
Fore
326 293 m 1xff
 326 255 l 1
 281 255 l 1
 284 244 285 237 285 226 c 0xf880
 285 185 264 150 224 128 c 0
 197 113 167 104 137 104 c 0
 130 104 124 105 116 107 c 0
 111 109 106 110 102 110 c 0
 94 110 83 96 83 85 c 0
 83 75 96 66 118 59 c 2
 154 49 l 2
 229 28 256 5 256 -36 c 0
 256 -96 188 -139 93 -139 c 0
 14 -139 -36 -111 -36 -66 c 0
 -36 -50 -28 -33 -16 -24 c 0
 -1 -11 13 -5 55 5 c 1
 25 15 13 29 13 50 c 0
 13 75 23 85 79 116 c 1
 42 132 24 156 24 191 c 0
 24 260 91 315 175 315 c 0
 207 315 228 309 251 293 c 1
 326 293 l 1xff
79 -4 m 0xfd
 74 -3 53 -16 44 -24 c 0
 30 -38 24 -48 24 -62 c 0
 24 -94 55 -115 100 -115 c 0
 152 -115 182 -98 182 -68 c 0
 182 -51 173 -38 154 -29 c 0
 140 -23 86 -5 79 -4 c 0xfd
174 294 m 0xfa80
 156 294 142 283 129 261 c 0
 115 235 103 193 103 166 c 0
 103 140 113 126 132 126 c 0
 153 126 170 141 185 172 c 0
 197 197 205 231 205 254 c 0
 205 277 192 294 174 294 c 0xfa80
EndSplineSet
KernsSLIF: 335 -17 2 0 266 -23 2 0 336 -17 2 0 339 -21 2 0 348 -18 2 0 351 -18 2 0 97 -17 2 0 101 -21 2 0 108 -14 2 0 114 2 2 0
EndChar
StartChar: h
Encoding: 104 104 73
Width: 379
Flags: HW
HStem: -6 14 266 49
VStem: 181 81 241 83
Back
383.789 0 m 1
 214.844 0 l 1
 214.844 25.8789 l 1
 226.562 27.3438 235.352 28.8086 241.699 30.7617 c 0
 248.047 33.2031 252.441 35.1562 255.859 38.0859 c 0
 259.277 40.5273 261.23 45.8984 262.207 54.1992 c 0
 262.695 62.0117 263.184 71.7773 263.184 83.0078 c 2
 263.184 228.027 l 2
 263.184 273.926 248.047 296.875 217.773 296.875 c 0
 197.266 296.875 174.316 283.203 148.926 255.859 c 1
 148.926 83.0078 l 2
 148.926 71.7773 149.414 62.0117 150.391 54.1992 c 0
 151.367 45.8984 153.809 40.5273 157.227 37.1094 c 0
 158.203 35.6445 162.109 34.1797 167.969 32.7148 c 0
 173.828 30.7617 183.594 28.3203 196.777 24.9023 c 1
 196.777 0 l 1
 23.9258 0 l 1
 23.9258 25.8789 l 1
 46.875 28.8086 60.5469 34.1797 64.9414 42.9688 c 0
 68.3594 46.875 69.8242 60.5469 69.8242 83.0078 c 2
 69.8242 449.219 l 1
 64.4531 452.148 59.5703 454.102 54.1992 454.102 c 2
 24.9023 452.148 l 1
 24.9023 480.957 l 1
 137.207 517.09 l 1
 148.926 508.789 l 1
 148.926 311.035 l 1
 175.781 338.867 207.52 353.027 244.141 353.027 c 0
 310.059 353.027 342.773 311.523 342.773 229.004 c 2
 342.773 83.0078 l 2
 342.773 61.5234 344.238 48.3398 347.168 42.9688 c 0
 349.121 39.5508 353.516 36.1328 359.863 33.2031 c 0
 366.699 29.7852 374.512 26.3672 383.789 22.9492 c 1
 383.789 0 l 1
EndSplineSet
Fore
325 97 m 1xe0
 340 87 l 1
 295 16 268 -6 226 -6 c 0
 199 -6 181 10 181 33 c 0xe0
 181 61 190 96 223 191 c 0
 225 198 227 205 230 214 c 0
 235 227 238 235 238 236 c 0
 240 242 241 248 241 252 c 0
 241 259 234 266 226 266 c 0
 208 266 186 246 157 205 c 0
 123 156 109 122 74 0 c 1
 -9 0 l 1
 96 387 l 2
 100 400 102 410 102 416 c 0
 102 431 92 439 74 439 c 0
 70 439 64 439 59 438 c 1
 59 457 l 1
 114 462 148 467 201 477 c 1
 128 193 l 1
 166 248 182 268 203 286 c 0
 228 307 248 315 272 315 c 0
 304 315 324 296 324 264 c 0xd0
 324 251 317 223 304 181 c 1
 264 59 l 2
 262 53 262 53 262 51 c 0
 262 46 269 40 274 40 c 0
 283 40 296 55 325 97 c 1xe0
EndSplineSet
KernsSLIF: 146 -21 2 0 121 -13 2 0
EndChar
StartChar: i
Encoding: 105 105 74
Width: 189
Flags: HW
HStem: -6 14 375 92<120 145>
VStem: 87 92<409 434>
Back
192.871 0 m 1
 192.871 25.8789 l 1
 166.504 29.7852 151.855 34.1797 148.926 38.0859 c 0
 146.484 41.5039 144.531 47.3633 143.555 55.6641 c 0
 142.578 63.9648 142.09 72.7539 142.09 82.0312 c 2
 142.09 351.074 l 1
 130.859 354.98 l 1
 16.1133 309.082 l 1
 16.1133 284.18 l 1
 53.2227 289.062 l 1
 61.5234 288.574 65.918 276.367 65.918 252.93 c 2
 65.918 82.0312 l 2
 65.918 60.5469 62.9883 46.3867 56.6406 38.5742 c 0
 50.293 30.7617 35.6445 26.8555 13.1836 26.8555 c 1
 13.1836 0 l 1
 192.871 0 l 1
56.1523 472.168 m 0
 56.1523 458.496 60.0586 447.266 68.3594 438.477 c 0
 76.6602 429.688 87.8906 424.805 101.074 424.805 c 0
 113.77 424.805 124.023 429.688 132.324 438.477 c 0
 140.625 447.266 145.02 458.496 145.02 472.168 c 0
 145.02 485.352 140.625 496.094 132.324 504.883 c 0
 124.023 513.672 113.77 518.066 101.074 518.066 c 0
 87.8906 518.066 76.6602 513.672 68.3594 504.883 c 0
 60.0586 496.094 56.1523 485.352 56.1523 472.168 c 0
EndSplineSet
Fore
147 96 m 1
 162 87 l 1
 115 15 89 -6 48 -6 c 0
 20 -6 1 12 1 37 c 0
 1 46 5 65 10 84 c 1
 50 231 l 1
 53 242 55 253 55 258 c 0
 55 272 44 278 14 278 c 1
 14 296 l 1
 68 300 115 307 152 315 c 1
 90 87 l 2
 88 79 84 56 84 52 c 0
 84 46 89 42 94 42 c 0
 104 42 120 56 138 83 c 2
 147 96 l 1
132 468 m 0
 158 468 180 446 180 421 c 0
 180 396 158 375 132 375 c 0
 107 375 87 396 87 423 c 0
 87 446 109 468 132 468 c 0
EndSplineSet
KernsSLIF: 84 -13 2 0 106 -3 2 0
EndChar
StartChar: j
Encoding: 106 106 75
Width: 189
Flags: HW
HStem: -141 21<-60 -46> 375 92<131 156>
VStem: -129 57 98 92<409 434>
Back
201.172 354.004 m 1
 189.941 357.91 l 1
 73.2422 312.012 l 1
 73.2422 286.133 l 1
 110.84 291.016 l 1
 119.629 290.527 124.023 278.32 124.023 254.883 c 2
 124.023 -21.9727 l 2
 124.023 -63.4766 123.047 -87.4023 121.094 -94.2383 c 0
 119.141 -100.586 116.211 -105.957 111.816 -110.352 c 0
 107.91 -114.746 104.004 -117.188 100.098 -117.188 c 0
 98.1445 -117.188 94.2383 -115.234 88.8672 -111.328 c 0
 83.4961 -107.91 79.1016 -102.539 75.1953 -95.2148 c 0
 69.8242 -85.4492 63.4766 -79.5898 57.1289 -76.6602 c 0
 50.293 -73.7305 43.457 -71.7773 36.1328 -71.7773 c 0
 34.668 -71.7773 31.25 -72.7539 25.3906 -74.707 c 0
 20.0195 -76.1719 15.625 -78.125 13.1836 -81.0547 c 0
 5.85938 -88.3789 1.95312 -97.168 1.95312 -107.91 c 0
 1.95312 -121.094 7.8125 -133.301 20.0195 -143.555 c 0
 32.2266 -153.809 49.8047 -159.18 73.2422 -159.18 c 0
 114.258 -159.18 145.996 -145.508 167.969 -119.141 c 0
 189.941 -92.2852 201.172 -51.7578 201.172 1.95312 c 2
 201.172 354.004 l 1
113.77 475.098 m 0
 113.77 461.426 118.164 450.684 126.953 441.895 c 0
 135.742 433.105 146.484 429.199 159.18 429.199 c 0
 171.875 429.199 182.129 433.105 190.918 441.895 c 0
 199.707 450.684 204.102 461.426 204.102 475.098 c 0
 204.102 488.281 199.707 499.512 190.918 508.301 c 0
 182.129 517.578 171.875 521.973 159.18 521.973 c 0
 146.484 521.973 135.742 517.578 126.953 508.301 c 0
 118.164 499.512 113.77 488.281 113.77 475.098 c 0
EndSplineSet
Fore
21 278 m 1
 21 296 l 1
 98 303 123 307 163 315 c 1
 85 16 l 2
 58 -89 11 -141 -57 -141 c 0
 -100 -141 -129 -120 -129 -89 c 0
 -129 -69 -113 -53 -96 -53 c 0
 -77 -53 -62 -68 -62 -86 c 0
 -62 -94 -63 -97 -71 -108 c 0
 -72 -109 -72 -111 -72 -112 c 0
 -72 -115 -63 -120 -56 -120 c 0
 -37 -120 -25 -99 -8 -31 c 2
 55 212 l 1
 60 231 63 249 63 257 c 0
 63 274 55 278 21 278 c 1
143 468 m 0
 169 468 190 446 190 421 c 0
 190 396 169 375 143 375 c 0
 118 375 98 396 98 423 c 0
 98 446 119 468 143 468 c 0
EndSplineSet
EndChar
StartChar: k
Encoding: 107 107 76
Width: 341
Flags: HW
HStem: -5 48 293 14<188 330 330 330>
Back
398.926 0 m 1
 225.098 0 l 1
 225.098 28.8086 l 1
 243.164 28.8086 l 2
 247.559 28.8086 250 29.7852 250 32.2266 c 0
 250 32.7148 249.512 34.1797 248.047 37.1094 c 2
 155.762 161.133 l 1
 155.762 57.1289 l 2
 155.762 41.0156 166.504 32.2266 187.012 29.7852 c 2
 209.961 27.832 l 1
 209.961 0 l 1
 23.9258 0 l 1
 23.9258 27.832 l 1
 49.8047 31.25 63.4766 33.6914 64.9414 35.1562 c 0
 68.3594 38.5742 70.8008 42.4805 73.2422 47.3633 c 0
 75.1953 52.7344 76.1719 59.5703 76.1719 68.8477 c 2
 76.1719 419.922 l 2
 76.1719 435.547 75.1953 444.336 73.2422 446.777 c 0
 71.7773 449.219 69.8242 450.684 67.8711 452.637 c 0
 65.918 454.102 62.5 455.078 57.1289 455.078 c 2
 23.9258 452.148 l 1
 23.9258 479.004 l 1
 142.09 515.137 l 1
 155.762 511.23 l 1
 155.762 221.191 l 1
 237.793 294.922 l 2
 242.188 298.828 245.117 302.246 247.559 304.688 c 0
 250 306.641 250.977 309.082 250.977 311.035 c 0
 250.977 314.941 238.77 316.895 214.844 316.895 c 1
 214.844 346.191 l 1
 379.883 346.191 l 1
 379.883 315.918 l 1
 365.234 315.918 353.516 314.941 344.727 312.988 c 0
 335.449 311.035 327.637 308.105 320.801 305.176 c 0
 315.43 302.246 308.105 297.363 298.34 290.527 c 0
 289.062 283.691 278.32 275.391 267.09 266.113 c 2
 207.031 212.891 l 1
 312.988 78.125 l 2
 325.195 62.5 337.891 50.7812 352.051 42.4805 c 0
 366.211 34.1797 381.836 29.7852 398.926 28.8086 c 1
 398.926 0 l 1
EndSplineSet
Fore
102 128 m 1
 68 0 l 1
 -16 0 l 1
 91 387 l 2
 94 400 96 410 96 416 c 0
 96 431 87 439 68 439 c 0
 65 439 59 439 53 438 c 1
 53 457 l 1
 107 462 143 468 195 477 c 1
 111 163 l 1
 197 231 223 256 223 274 c 0
 223 285 215 288 188 289 c 1
 188 307 l 1
 330 307 l 1
 330 289 l 1
 298 285 284 277 238 238 c 2
 195 200 l 1
 221 67 229 43 248 43 c 0
 261 43 272 55 290 87 c 1
 305 79 l 1
 271 17 246 -5 212 -5 c 0
 170 -5 150 31 128 147 c 1
 102 128 l 1
EndSplineSet
KernsSLIF: 332 6 2 0 335 6 2 0 266 1 2 0 336 6 2 0 339 -1 2 0 355 1 2 0 97 6 2 0 44 12 2 0 101 -1 2 0 103 -9 2 0 46 11 2 0 117 1 2 0
EndChar
StartChar: l
Encoding: 108 108 77
Width: 189
Flags: HW
HStem: -6 14
VStem: 1 83
Back
194.824 0 m 1
 17.0898 0 l 1
 17.0898 25.8789 l 1
 36.1328 28.8086 49.8047 33.2031 57.6172 39.5508 c 0
 64.9414 45.8984 68.8477 56.6406 68.8477 71.7773 c 2
 68.8477 419.922 l 2
 68.8477 436.523 68.3594 446.289 66.8945 449.219 c 0
 64.9414 453.613 60.0586 456.055 51.7578 456.055 c 2
 15.1367 453.125 l 1
 15.1367 481.934 l 1
 20.9961 483.398 29.7852 485.84 41.9922 489.258 c 0
 54.1992 493.164 66.8945 497.07 80.5664 501.465 c 0
 94.2383 505.859 106.934 509.766 119.141 513.672 c 0
 130.859 517.09 139.16 519.531 144.043 520.996 c 1
 144.043 70.8008 l 2
 144.043 41.5039 161.133 26.8555 194.824 26.8555 c 1
 194.824 0 l 1
EndSplineSet
Fore
147 96 m 1
 162 87 l 1
 115 15 89 -6 47 -6 c 0
 20 -6 1 10 1 35 c 0
 1 51 10 91 25 143 c 1
 75 323 l 1
 89 369 98 411 98 420 c 0
 98 432 88 439 70 439 c 0
 67 439 63 439 55 438 c 1
 55 457 l 1
 107 462 139 466 198 477 c 1
 99 120 l 1
 89 85 84 61 84 52 c 0
 84 46 89 42 94 42 c 0
 106 42 120 56 147 96 c 1
EndSplineSet
KernsSLIF: 118 -8 2 0 121 -5 2 0
EndChar
StartChar: m
Encoding: 109 109 78
Width: 531
Flags: HW
HStem: -6 14 266 50
VStem: 230 81 338 82 398 83
Back
601.074 0 m 1
 421.875 0 l 1
 421.875 26.8555 l 1
 454.102 26.8555 470.215 42.9688 470.215 75.1953 c 2
 470.215 222.168 l 2
 470.215 246.094 467.773 263.184 463.867 272.949 c 0
 457.52 287.109 444.824 293.945 426.758 293.945 c 0
 397.461 293.945 374.023 281.25 355.957 255.859 c 1
 355.957 75.1953 l 2
 355.957 59.5703 359.375 47.8516 366.699 39.5508 c 0
 373.535 31.25 387.207 26.8555 408.203 26.8555 c 1
 408.203 0 l 1
 225.098 0 l 1
 225.098 26.8555 l 1
 243.164 26.8555 255.859 31.25 263.672 39.5508 c 0
 270.996 47.8516 274.902 59.5703 274.902 75.1953 c 2
 274.902 226.074 l 2
 274.902 271.484 261.23 293.945 233.887 293.945 c 0
 213.379 293.945 195.312 287.598 180.176 274.902 c 0
 166.504 265.137 160.156 259.277 160.156 257.812 c 2
 160.156 75.1953 l 2
 160.156 59.5703 163.574 47.8516 170.898 39.5508 c 0
 178.223 31.25 191.406 26.8555 209.961 26.8555 c 1
 209.961 0 l 1
 27.832 0 l 1
 27.832 26.8555 l 1
 62.0117 26.8555 79.1016 42.9688 79.1016 75.1953 c 2
 79.1016 263.184 l 2
 79.1016 274.414 76.6602 282.227 71.7773 287.109 c 0
 71.2891 287.598 69.3359 288.086 65.918 288.086 c 0
 62.5 288.086 57.6172 287.598 51.2695 287.109 c 0
 45.4102 286.133 38.0859 285.156 29.7852 284.18 c 1
 29.7852 312.988 l 1
 46.875 318.359 61.0352 322.754 72.2656 326.172 c 0
 83.9844 329.102 94.2383 332.52 102.051 334.961 c 0
 109.863 337.891 116.699 339.844 122.559 341.309 c 0
 127.93 343.262 133.789 345.215 139.16 347.168 c 1
 155.762 347.168 l 1
 155.762 299.805 l 1
 177.246 313.477 193.359 322.754 203.613 328.613 c 0
 213.867 333.984 220.703 337.891 224.121 338.867 c 0
 237.305 344.238 249.512 347.168 259.766 347.168 c 0
 297.852 347.168 325.195 330.078 341.797 295.898 c 1
 377.441 330.078 415.527 347.168 456.055 347.168 c 0
 519.531 347.168 550.781 301.27 550.781 209.961 c 2
 550.781 75.1953 l 2
 550.781 59.5703 554.688 47.8516 562.5 39.5508 c 0
 570.312 31.25 583.008 26.8555 601.074 26.8555 c 1
 601.074 0 l 1
EndSplineSet
Fore
23 278 m 1xe8
 23 296 l 1
 102 302 116 304 160 315 c 1
 116 179 l 1
 160 247 181 273 206 292 c 1
 225 308 246 315 265 315 c 0
 294 315 311 298 311 269 c 0
 311 250 306 232 293 198 c 1
 350 288 382 315 428 315 c 0
 458 315 481 294 481 267 c 0xe8
 481 249 475 223 465 194 c 1
 434 103 l 1
 420 57 420 57 420 50 c 0
 420 45 425 40 431 40 c 0
 440 40 454 55 470 80 c 0
 471 82 474 87 478 92 c 1
 493 83 l 1
 453 16 426 -6 384 -6 c 0
 354 -6 338 9 338 37 c 0xd0
 338 56 347 98 363 141 c 2
 393 231 l 1
 396 240 398 247 398 251 c 0
 398 259 391 266 382 266 c 0
 362 266 335 237 306 186 c 0
 281 143 277 131 237 0 c 1
 155 0 l 1
 179 77 188 106 199 141 c 0
 222 211 230 240 230 250 c 0
 230 259 224 266 217 266 c 0
 208 266 188 251 173 234 c 0
 135 188 109 130 73 0 c 1
 -10 0 l 1
 36 162 l 2
 55 227 60 251 60 260 c 0
 60 272 51 278 29 278 c 2
 23 278 l 1xe8
EndSplineSet
KernsSLIF: 118 -10 2 0 119 -10 2 0 121 -10 2 0
EndChar
StartChar: n
Encoding: 110 110 79
Width: 379
Flags: HW
HStem: -6 14 266 49
VStem: 182 83 242 82
Back
381.836 0 m 1
 216.797 0 l 1
 216.797 25.8789 l 1
 234.863 28.8086 246.094 31.7383 250 35.1562 c 0
 257.324 40.5273 261.23 55.1758 261.23 79.1016 c 2
 261.23 229.004 l 2
 261.23 269.043 246.094 289.062 216.797 289.062 c 0
 200.195 289.062 179.688 277.832 154.785 254.883 c 1
 154.785 57.1289 l 2
 154.785 40.5273 170.41 29.7852 201.172 25.8789 c 1
 201.172 0 l 1
 32.2266 0 l 1
 32.2266 25.8789 l 1
 36.6211 25.8789 41.5039 26.3672 46.3867 26.8555 c 0
 51.2695 27.832 56.1523 28.8086 60.0586 30.7617 c 0
 71.2891 36.1328 77.1484 50.293 77.1484 73.2422 c 2
 77.1484 250.977 l 2
 77.1484 267.09 75.6836 277.832 73.2422 283.203 c 0
 72.2656 284.18 70.3125 285.156 67.3828 285.645 c 0
 64.4531 285.645 61.0352 286.133 57.1289 286.133 c 0
 54.1992 286.133 50.293 285.156 44.9219 284.18 c 0
 39.5508 282.715 34.668 281.25 29.7852 279.785 c 1
 29.7852 312.988 l 1
 38.0859 314.941 46.875 317.383 57.1289 319.824 c 0
 66.8945 322.754 77.1484 325.684 87.4023 329.102 c 0
 97.6562 332.52 107.422 335.449 116.211 338.379 c 0
 124.512 341.309 131.348 344.238 136.23 346.191 c 1
 152.832 346.191 l 1
 152.832 299.805 l 1
 159.668 307.129 166.016 313.477 171.387 317.871 c 0
 177.246 322.754 182.129 326.66 187.012 330.078 c 0
 196.289 335.938 206.055 340.332 215.82 342.285 c 0
 226.074 344.727 236.816 346.191 248.047 346.191 c 0
 309.57 346.191 339.844 307.129 339.844 229.98 c 2
 339.844 66.8945 l 2
 339.844 59.082 340.332 52.2461 340.332 46.875 c 0
 340.82 41.5039 342.773 37.5977 346.191 35.1562 c 0
 349.121 32.2266 361.328 28.8086 381.836 24.9023 c 1
 381.836 0 l 1
EndSplineSet
Fore
322 92 m 1xe0
 337 83 l 1
 297 17 268 -6 228 -6 c 0
 199 -6 182 10 182 35 c 0xe0
 182 53 190 91 201 124 c 2
 238 238 l 2
 240 244 242 250 242 252 c 0
 242 259 233 266 225 266 c 0
 212 266 191 251 178 233 c 0
 135 178 111 118 79 0 c 1
 -4 0 l 1
 3 25 8 42 16 74 c 1
 34 139 l 2
 57 221 66 253 66 261 c 0
 66 274 57 277 29 278 c 1
 29 296 l 1
 67 298 122 305 165 315 c 1
 122 180 l 1
 167 247 180 264 205 287 c 0
 224 305 249 315 274 315 c 0
 306 315 324 297 324 264 c 0xd0
 324 248 317 217 306 186 c 1
 281 111 l 2
 269 74 264 59 264 52 c 0
 264 45 268 40 274 40 c 0
 285 40 294 50 322 92 c 1xe0
EndSplineSet
KernsSLIF: 84 -40 2 0 112 -2 2 0 146 -21 2 0 118 -13 2 0 119 -13 2 0 121 -13 2 0
EndChar
StartChar: o
Encoding: 111 111 80
Width: 341
Flags: HW
HStem: -9 20<102 125> 296 20<177 198>
VStem: -2 81<63 80> 220 81<233 242>
Back
21.9727 170.898 m 0
 21.9727 146.973 25.8789 124.512 34.1797 103.027 c 0
 41.9922 81.543 53.2227 62.9883 67.8711 46.875 c 0
 82.5195 30.7617 100.098 18.5547 120.117 8.78906 c 0
 140.137 -0.488281 162.109 -4.88281 187.012 -4.88281 c 0
 211.426 -4.88281 234.375 -0.488281 254.395 8.78906 c 0
 274.902 18.5547 292.48 30.7617 307.129 46.875 c 0
 321.777 62.9883 333.008 81.543 341.309 103.027 c 0
 349.609 124.512 354.004 146.973 354.004 170.898 c 0
 354.004 194.824 349.609 217.773 341.309 238.77 c 0
 333.008 260.254 321.777 278.809 307.129 294.922 c 0
 292.48 311.035 274.902 323.73 254.395 333.008 c 0
 234.375 342.285 211.426 347.168 187.012 347.168 c 0
 162.109 347.168 140.137 342.285 120.117 333.008 c 0
 100.098 323.73 82.5195 311.035 67.8711 294.922 c 0
 53.2227 278.809 41.9922 260.254 34.1797 238.77 c 0
 25.8789 217.773 21.9727 194.824 21.9727 170.898 c 0
104.004 169.922 m 0
 104.004 189.453 105.469 207.52 108.887 224.121 c 0
 112.305 240.723 117.676 255.371 124.512 268.555 c 0
 131.348 281.738 140.137 291.504 150.391 298.828 c 0
 160.645 306.152 172.852 310.059 187.012 310.059 c 0
 201.66 310.059 214.355 306.152 224.609 298.828 c 0
 234.863 291.504 243.164 281.738 250 268.555 c 0
 256.836 255.371 261.719 240.723 265.137 224.121 c 0
 268.555 207.52 270.02 189.453 270.02 169.922 c 0
 270.02 150.879 268.555 132.324 265.625 115.723 c 0
 262.695 98.6328 257.812 83.4961 250.977 70.3125 c 0
 244.141 57.6172 235.84 47.3633 225.098 40.0391 c 0
 214.355 32.7148 201.66 28.8086 187.012 28.8086 c 0
 172.852 28.8086 160.645 32.7148 150.391 40.0391 c 0
 140.137 47.3633 131.348 57.6172 124.512 70.3125 c 0
 117.676 83.4961 112.305 98.6328 108.887 115.723 c 0
 105.469 132.324 104.004 150.879 104.004 169.922 c 0
EndSplineSet
Fore
194 315 m 0
 256 315 301 272 301 212 c 0
 301 97 208 -9 107 -9 c 0
 44 -9 -2 34 -2 92 c 0
 -2 207 94 315 194 315 c 0
188 296 m 0
 166 296 146 280 128 249 c 0
 104 206 79 107 79 53 c 0
 79 27 92 11 113 11 c 0
 137 11 157 31 177 73 c 0
 199 121 220 210 220 256 c 0
 220 281 208 296 188 296 c 0
EndSplineSet
KernsSLIF: 84 -51 2 0 146 -15 2 0 116 -1 2 0 118 -14 2 0 119 -14 2 0 120 -17 2 0 121 -19 2 0
EndChar
StartChar: p
Encoding: 112 112 81
Width: 341
Flags: HW
HStem: -140 18<-82 -78 -78 -64> -9 24<108 115> 302 14<147 147 211 253>
Back
145.02 -74.2188 m 2
 145.02 14.1602 l 1
 164.551 1.46484 185.547 -4.88281 208.984 -4.88281 c 0
 234.375 -4.88281 256.836 0.488281 276.367 11.2305 c 0
 296.387 21.4844 312.5 36.1328 326.172 54.1992 c 0
 339.355 71.7773 349.609 92.2852 356.445 115.723 c 0
 363.281 138.672 367.188 162.109 367.188 187.012 c 0
 367.188 207.031 364.258 227.051 359.375 246.582 c 0
 354.492 266.113 346.68 283.691 336.426 299.316 c 0
 326.172 314.941 312.988 327.637 296.875 337.402 c 0
 280.762 347.168 262.207 352.051 241.211 352.051 c 0
 222.168 352.051 205.078 348.633 188.965 342.285 c 0
 172.852 335.938 157.715 326.172 143.066 312.012 c 1
 142.09 319.336 141.602 326.66 141.602 333.496 c 0
 141.113 340.332 141.113 347.656 141.113 354.98 c 1
 121.094 347.656 101.074 340.332 81.0547 333.496 c 0
 61.0352 326.66 40.5273 319.824 20.0195 312.988 c 1
 20.0195 287.109 l 1
 51.7578 289.062 l 2
 58.5938 289.062 62.9883 286.621 64.9414 282.227 c 0
 66.4062 276.855 66.8945 267.09 66.8945 253.906 c 2
 66.8945 -80.0781 l 2
 66.8945 -93.2617 63.4766 -103.027 57.1289 -108.398 c 0
 50.293 -114.258 37.1094 -117.188 18.0664 -117.188 c 1
 18.0664 -145.996 l 1
 207.031 -145.996 l 1
 207.031 -115.234 l 1
 177.734 -115.234 160.156 -112.793 154.785 -107.91 c 0
 148.438 -103.516 145.02 -91.7969 145.02 -74.2188 c 2
288.086 164.062 m 0
 288.086 129.395 282.227 100.098 270.996 76.1719 c 0
 258.301 47.8516 237.793 34.1797 209.961 34.1797 c 0
 198.73 34.1797 185.059 38.0859 168.945 45.8984 c 0
 152.832 54.1992 145.02 62.9883 145.02 73.2422 c 2
 145.02 250.977 l 1
 147.461 262.207 155.273 271.973 167.969 279.297 c 0
 180.664 287.109 193.848 291.016 207.031 291.016 c 0
 221.68 291.016 234.375 287.109 244.629 279.297 c 0
 254.883 271.973 263.184 261.719 269.531 249.512 c 0
 275.879 237.305 280.273 223.633 283.691 208.496 c 0
 286.621 193.359 288.086 178.711 288.086 164.062 c 0
EndSplineSet
Fore
16 278 m 1
 16 296 l 1
 51 300 78 304 147 315 c 1
 122 237 l 1
 162 294 192 315 231 315 c 0
 276 315 304 283 304 233 c 0
 304 115 208 -9 115 -9 c 0
 101 -9 93 -6 69 6 c 1
 67 -3 l 1
 66 -8 63 -15 61 -22 c 0
 49 -68 44 -91 44 -99 c 0
 44 -115 55 -121 88 -122 c 1
 88 -140 l 1
 -82 -140 l 1
 -82 -122 l 1
 -78 -122 l 2
 -50 -122 -42 -113 -31 -71 c 2
 38 194 l 1
 46 227 53 255 53 261 c 0
 53 274 46 276 16 278 c 1
193 267 m 0
 175 268 152 251 135 225 c 0
 124 208 117 189 101 133 c 0
 83 71 77 51 77 40 c 0
 77 26 89 15 104 15 c 0
 126 15 149 34 170 71 c 0
 195 115 216 184 219 228 c 0
 221 250 210 266 193 267 c 0
EndSplineSet
KernsSLIF: 116 -1 2 0 121 -8 2 0
EndChar
StartChar: q
Encoding: 113 113 82
Width: 341
Flags: HW
HStem: -140 14 -9 49 302 14<162 196>
VStem: 1 85<66 98>
Back
361.816 -154.785 m 1
 361.816 -126.953 l 1
 331.543 -121.582 315.918 -110.352 315.918 -92.7734 c 2
 315.918 345.215 l 1
 308.105 353.027 l 1
 297.852 351.074 l 1
 262.207 328.125 l 1
 246.582 336.426 232.422 342.773 219.727 346.68 c 0
 206.543 350.098 193.848 352.051 181.152 352.051 c 0
 154.785 352.051 131.836 347.168 110.84 336.914 c 0
 90.332 327.148 72.7539 313.477 58.5938 295.898 c 0
 43.9453 278.809 33.2031 258.301 24.9023 235.352 c 0
 17.0898 212.402 13.1836 188.477 13.1836 163.086 c 0
 13.1836 141.602 15.1367 120.605 20.0195 100.586 c 0
 24.9023 80.0781 32.2266 62.0117 41.9922 46.3867 c 0
 51.7578 30.7617 64.9414 18.5547 81.0547 8.78906 c 0
 97.168 -0.488281 116.699 -4.88281 140.137 -4.88281 c 0
 149.414 -4.88281 160.156 -3.90625 172.852 -0.976562 c 0
 185.547 1.46484 197.266 5.85938 208.008 12.207 c 0
 213.379 15.1367 218.75 19.043 224.121 22.4609 c 0
 229.492 26.3672 234.375 29.7852 238.77 33.2031 c 1
 238.77 -77.1484 l 2
 238.77 -108.398 217.285 -124.023 173.828 -124.023 c 1
 173.828 -154.785 l 1
 361.816 -154.785 l 1
233.887 76.1719 m 1
 222.168 62.0117 202.148 55.1758 174.805 55.1758 c 0
 160.156 55.1758 147.461 59.082 137.207 66.8945 c 0
 126.465 75.1953 117.676 84.9609 111.328 97.6562 c 0
 104.98 109.863 100.586 123.535 97.6562 139.16 c 0
 94.7266 154.297 92.7734 168.945 92.7734 183.105 c 0
 92.7734 198.242 94.7266 213.867 97.6562 229.492 c 0
 100.586 245.117 104.98 259.277 111.328 271.973 c 0
 117.676 284.668 126.465 294.922 137.695 303.223 c 0
 148.438 311.035 162.109 314.941 178.223 314.941 c 0
 218.75 314.941 238.77 293.945 238.77 251.953 c 2
 238.77 104.004 l 1
 233.887 76.1719 l 1
EndSplineSet
Fore
253 -122 m 1
 253 -140 l 1
 71 -140 l 1
 71 -122 l 1
 113 -119 121 -114 132 -79 c 1
 175 67 l 1
 140 11 113 -9 72 -9 c 0
 28 -9 1 25 1 80 c 0
 1 117 13 158 36 199 c 0
 76 269 137 315 188 315 c 0
 204 315 218 310 225 300 c 0
 231 293 233 285 237 266 c 1
 247 307 l 1
 322 307 l 1
 293 201 280 152 264 99 c 0
 235 3 209 -91 209 -102 c 0
 209 -116 219 -122 244 -122 c 2
 253 -122 l 1
198 286 m 0
 179 287 155 266 133 228 c 0
 106 179 86 117 86 79 c 0
 86 53 95 40 113 40 c 0
 134 40 154 57 173 91 c 0
 197 133 222 217 222 253 c 0
 222 272 213 285 198 286 c 0
EndSplineSet
KernsSLIF: 99 -4 2 0 117 -3 2 0
EndChar
StartChar: r
Encoding: 114 114 83
Width: 265
Flags: HW
HStem: 0 14 302 14<155 155 209 238>
Back
270.996 299.805 m 0
 270.996 286.621 267.578 276.855 260.742 270.02 c 0
 253.418 263.184 245.117 259.766 234.863 259.766 c 0
 222.168 259.766 211.426 264.648 202.148 273.926 c 0
 199.219 276.855 197.266 279.297 195.801 282.227 c 0
 194.824 284.668 191.895 286.133 187.988 286.133 c 0
 180.176 286.133 171.387 279.785 162.109 268.066 c 0
 152.832 255.859 147.949 245.117 147.949 234.863 c 2
 147.949 74.2188 l 2
 147.949 42.4805 167.48 26.8555 207.031 26.8555 c 1
 207.031 0 l 1
 20.9961 0 l 1
 20.9961 24.9023 l 1
 33.2031 27.832 42.9688 29.7852 50.293 32.2266 c 0
 58.1055 34.1797 62.9883 35.6445 64.9414 37.1094 c 0
 66.4062 38.5742 67.3828 41.9922 68.3594 47.8516 c 0
 69.3359 54.1992 69.8242 61.0352 69.8242 68.8477 c 2
 69.8242 249.023 l 2
 69.8242 271.484 65.918 283.203 58.1055 283.203 c 2
 22.9492 279.785 l 1
 22.9492 306.152 l 1
 44.9219 313.965 65.918 321.289 85.9375 328.613 c 0
 105.957 335.449 122.559 341.797 134.766 347.168 c 1
 147.949 347.168 l 1
 147.949 300.781 l 1
 171.875 331.543 197.266 347.168 224.121 347.168 c 0
 255.371 347.168 270.996 331.543 270.996 299.805 c 0
EndSplineSet
Fore
18 278 m 1
 18 296 l 1
 101 303 114 305 155 315 c 1
 110 173 l 1
 164 281 192 315 227 315 c 0
 250 315 266 298 266 270 c 0
 266 242 249 221 225 221 c 0
 214 221 205 226 195 238 c 0
 190 244 187 246 184 246 c 0
 175 246 160 229 143 199 c 0
 123 166 113 140 91 71 c 0
 88 61 79 31 68 0 c 1
 -14 0 l 1
 32 156 55 244 55 261 c 0
 55 274 49 276 18 278 c 1
EndSplineSet
KernsSLIF: 332 -8 2 0 333 -8 2 0 335 -8 2 0 266 -15 2 0 331 -8 2 0 336 -8 2 0 337 -5 2 0 339 -13 2 0 340 -13 2 0 338 -13 2 0 348 -10 2 0 349 -10 2 0 351 -10 2 0 267 -12 2 0 347 -10 2 0 364 -8 2 0 97 -8 2 0 99 -10 2 0 58 -20 2 0 44 -45 2 0 100 -9 2 0 101 -13 2 0 102 5 2 0 103 -2 2 0 104 -10 2 0 45 -8 2 0 105 11 2 0 106 8 2 0 107 -7 2 0 108 -8 2 0 109 6 2 0 110 4 2 0 111 -10 2 0 112 10 2 0 46 -47 2 0 113 -12 2 0 114 9 2 0 59 -20 2 0 116 8 2 0 117 7 2 0 118 13 2 0 119 13 2 0 120 4 2 0 121 13 2 0 122 6 2 0
EndChar
StartChar: s
Encoding: 115 115 84
Width: 265
Flags: HW
HStem: -9 20<83 97> 293 14 293 23<122 130>
VStem: 32 65<249 255> 125 66<56 57>
Back
252.93 94.2383 m 0
 252.93 62.0117 242.188 37.5977 221.191 20.5078 c 0
 199.707 3.41797 173.828 -4.88281 143.066 -4.88281 c 0
 132.324 -4.88281 117.188 -2.92969 97.168 0.976562 c 2
 61.0352 7.8125 l 2
 58.1055 7.8125 55.1758 5.37109 50.7812 0 c 1
 28.8086 0 l 1
 28.8086 126.953 l 1
 59.082 126.953 l 1
 61.5234 110.352 64.4531 97.6562 66.8945 89.3555 c 0
 69.8242 81.0547 74.2188 70.3125 80.0781 57.1289 c 0
 85.4492 45.8984 93.2617 37.5977 103.516 33.2031 c 0
 113.77 28.3203 125.488 25.8789 138.184 25.8789 c 0
 169.922 25.8789 186.035 40.5273 186.035 68.8477 c 0
 186.035 86.9141 175.781 102.539 154.785 115.234 c 0
 137.207 126.953 122.07 136.719 110.352 144.043 c 0
 98.6328 151.367 89.3555 157.715 82.0312 162.598 c 0
 74.707 167.48 69.3359 171.387 65.4297 174.316 c 0
 62.0117 177.734 59.082 180.176 57.1289 183.105 c 0
 48.8281 192.383 42.4805 202.148 37.1094 212.891 c 0
 31.7383 223.633 28.8086 236.328 28.8086 250.977 c 0
 28.8086 265.625 32.2266 278.809 38.0859 290.527 c 0
 43.9453 302.246 51.7578 312.012 61.5234 320.312 c 0
 71.2891 328.613 82.5195 335.449 95.7031 339.844 c 0
 108.398 344.727 122.07 347.168 136.23 347.168 c 0
 147.949 347.168 157.227 346.191 164.062 345.215 c 0
 170.898 343.75 174.805 342.285 176.758 340.82 c 2
 200.195 332.031 l 1
 200.195 332.031 201.66 335.449 205.078 341.797 c 1
 228.027 341.797 l 1
 231.934 226.074 l 1
 203.125 226.074 l 1
 190.918 284.668 167.969 313.965 133.789 313.965 c 0
 121.094 313.965 110.84 311.035 102.539 304.688 c 0
 94.2383 298.34 89.8438 288.086 89.8438 273.926 c 0
 89.8438 263.184 91.7969 254.883 96.1914 249.023 c 0
 100.098 243.164 106.445 237.305 115.234 231.934 c 2
 190.918 186.035 l 2
 202.148 179.199 211.426 173.34 218.262 167.48 c 0
 225.586 161.621 230.957 156.25 234.863 150.879 c 0
 247.07 136.23 252.93 117.188 252.93 94.2383 c 0
EndSplineSet
Fore
227 315 m 1x58
 212 210 l 1
 193 212 l 1
 182 268 165 293 133 293 c 0
 111 293 97 279 97 257 c 0
 97 242 109 221 135 190 c 0
 173 145 190 112 190 81 c 0
 190 30 147 -9 89 -9 c 0
 76 -9 63 -6 46 -1 c 0
 38 3 30 5 25 5 c 0
 16 5 8 -1 5 -9 c 1
 -13 -9 l 1
 2 104 l 1
 20 102 l 1
 26 66 31 50 45 33 c 0
 56 19 70 12 86 12 c 0
 108 12 125 28 125 48 c 0
 125 66 113 89 87 119 c 0
 42 173 32 193 32 229 c 0
 32 281 68 315 124 315 c 0xb8
 137 315 146 313 163 307 c 0
 175 302 182 300 188 300 c 0
 198 300 200 302 208 315 c 1
 227 315 l 1x58
EndSplineSet
KernsSLIF: 146 -15 2 0 116 -4 2 0
EndChar
StartChar: t
Encoding: 116 116 85
Width: 189
Flags: HW
HStem: -6 14 278 29<143 192>
VStem: -8 83 20 171<278 302 302 302>
Back
213.867 59.082 m 1
 206.055 41.0156 193.359 25.8789 175.293 13.6719 c 0
 157.715 0.976562 140.137 -4.88281 123.047 -4.88281 c 0
 76.1719 -4.88281 53.2227 27.832 53.2227 94.2383 c 2
 53.2227 303.223 l 1
 18.0664 303.223 l 1
 11.2305 318.848 l 1
 17.0898 324.219 22.9492 329.59 29.2969 334.961 c 0
 35.6445 340.332 41.5039 346.191 46.875 352.051 c 0
 58.1055 363.77 69.3359 377.441 80.5664 393.066 c 0
 91.3086 408.203 103.516 426.758 117.188 449.219 c 1
 126.953 417.969 l 1
 126.953 344.238 l 1
 196.777 344.238 l 1
 196.777 303.223 l 1
 126.953 303.223 l 1
 126.953 104.98 l 2
 126.953 66.8945 135.742 47.8516 152.832 47.8516 c 0
 164.551 47.8516 178.223 58.1055 194.824 78.125 c 1
 213.867 59.082 l 1
EndSplineSet
Fore
192 307 m 1xd0
 192 278 l 1xd0
 135 278 l 1
 124 236 116 209 113 197 c 0
 88 114 76 64 76 52 c 0
 76 47 81 42 87 42 c 0
 98 42 115 60 139 96 c 1
 154 87 l 1
 109 16 81 -6 40 -6 c 0
 12 -6 -8 12 -8 38 c 0xe0
 -8 50 -1 81 9 115 c 1
 55 278 l 1
 20 278 l 1
 20 302 l 1
 74 322 109 350 145 406 c 1
 169 406 l 1
 143 307 l 1
 192 307 l 1xd0
EndSplineSet
KernsSLIF: 332 6 2 0 335 6 2 0 266 1 2 0 336 6 2 0 339 -1 2 0 83 -7 2 0 97 6 2 0 58 -15 2 0 101 -1 2 0 104 -3 2 0 146 -12 2 0 59 -15 2 0
EndChar
StartChar: u
Encoding: 117 117 86
Width: 379
Flags: HW
HStem: -6 49 302 14<166 166>
VStem: 10 81 182 81
Back
374.023 26.8555 m 1
 368.164 25.8789 360.84 23.9258 352.051 22.4609 c 0
 343.262 20.9961 334.473 18.5547 325.195 15.1367 c 2
 257.812 -7.8125 l 1
 254.883 41.9922 l 1
 240.234 26.8555 l 2
 228.516 16.1133 216.309 8.30078 203.613 2.92969 c 0
 190.43 -2.44141 175.781 -4.88281 160.156 -4.88281 c 0
 148.438 -4.88281 137.695 -3.41797 126.953 -0.488281 c 0
 116.211 2.44141 106.445 6.83594 97.168 13.1836 c 0
 84.4727 20.9961 75.6836 32.2266 70.8008 46.875 c 0
 66.4062 61.5234 63.9648 77.6367 63.9648 95.2148 c 2
 63.9648 275.879 l 2
 63.9648 290.527 60.5469 300.781 54.1992 306.152 c 0
 50.7812 308.594 46.3867 310.547 41.5039 312.012 c 0
 36.6211 313.477 29.2969 313.965 20.0195 313.965 c 1
 20.0195 339.844 l 1
 142.09 339.844 l 1
 142.09 99.1211 l 2
 142.09 90.8203 144.043 83.0078 147.461 74.707 c 0
 151.367 66.4062 156.738 60.5469 164.062 57.1289 c 0
 167.48 55.6641 171.387 54.6875 175.781 54.1992 c 0
 180.664 53.2227 185.059 53.2227 188.965 53.2227 c 0
 207.52 53.2227 226.562 61.0352 246.094 77.1484 c 0
 249.512 80.5664 250.977 89.8438 250.977 104.98 c 2
 250.977 274.902 l 2
 250.977 290.527 247.07 300.293 239.258 304.688 c 0
 231.934 308.594 217.773 311.035 198.242 311.035 c 1
 198.242 339.844 l 1
 331.055 339.844 l 1
 331.055 85.9375 l 2
 331.055 72.7539 333.496 63.9648 338.867 60.0586 c 0
 344.238 56.1523 355.957 54.1992 374.023 54.1992 c 1
 374.023 26.8555 l 1
EndSplineSet
Fore
322 91 m 1
 336 82 l 1
 300 21 267 -6 226 -6 c 0
 196 -6 182 8 182 35 c 0
 182 54 186 72 198 110 c 1
 128 12 107 -6 61 -6 c 0
 28 -6 10 11 10 44 c 0
 10 61 15 85 25 118 c 1
 52 209 l 2
 58 229 61 248 61 259 c 0
 61 272 55 276 23 278 c 1
 23 296 l 1
 56 298 96 303 147 312 c 0
 158 314 162 315 166 315 c 1
 102 105 l 2
 93 76 91 70 91 60 c 0
 91 48 96 43 106 43 c 0
 119 43 134 55 156 81 c 0
 195 130 214 175 253 307 c 1
 333 307 l 1
 280 124 l 1
 263 59 263 59 263 52 c 0
 263 46 267 40 272 40 c 0
 284 40 298 55 322 91 c 1
EndSplineSet
KernsSLIF: 146 -22 2 0
EndChar
StartChar: v
Encoding: 118 118 87
Width: 303
Flags: HW
HStem: -9 14 302 14<222 243>
VStem: 224 50
Back
354.004 312.012 m 1
 347.168 312.012 340.82 311.035 334.473 308.594 c 0
 328.125 306.152 324.219 302.246 321.777 296.875 c 2
 198.242 -13.1836 l 1
 169.922 3.90625 l 1
 49.8047 290.039 l 1
 48.8281 291.992 47.3633 294.434 45.4102 297.363 c 0
 43.9453 300.293 41.5039 302.734 39.0625 304.199 c 0
 35.1562 307.129 30.7617 309.57 26.8555 310.547 c 0
 22.9492 311.523 17.0898 312.012 8.78906 312.012 c 1
 8.78906 339.844 l 1
 166.992 339.844 l 1
 166.992 312.988 l 1
 159.668 312.5 153.809 311.523 148.926 311.035 c 0
 144.531 310.547 140.137 308.105 137.207 305.176 c 0
 134.766 303.223 133.789 299.805 133.789 295.898 c 0
 133.789 292.48 135.254 287.598 138.184 280.762 c 2
 204.102 116.211 l 1
 270.996 284.18 l 2
 272.461 288.086 272.949 291.016 272.949 292.969 c 0
 272.949 298.34 271.484 302.734 268.066 306.152 c 0
 265.137 309.57 261.719 311.035 257.324 311.523 c 0
 252.93 312.012 246.094 312.012 235.84 312.012 c 1
 235.84 339.844 l 1
 354.004 339.844 l 1
 354.004 312.012 l 1
EndSplineSet
Fore
11 278 m 1
 11 296 l 1
 68 304 83 307 117 315 c 1
 131 261 135 221 138 87 c 1
 205 164 224 192 224 216 c 0
 224 223 221 229 210 241 c 0
 199 255 194 264 194 276 c 0
 194 296 212 315 232 315 c 0
 253 315 274 294 274 270 c 0
 274 241 259 204 232 165 c 0
 195 110 162 74 76 -9 c 1
 58 -9 l 1
 61 84 l 1
 61 98 61 109 61 112 c 0
 61 185 54 245 42 267 c 0
 38 276 32 278 11 278 c 1
EndSplineSet
KernsSLIF: 332 -13 2 0 333 -13 2 0 335 -13 2 0 266 -19 2 0 331 -13 2 0 336 -13 2 0 334 -13 2 0 339 -19 2 0 340 -19 2 0 338 -19 2 0 348 -16 2 0 351 -16 2 0 347 -16 2 0 364 -15 2 0 97 -13 2 0 99 -16 2 0 58 -34 2 0 44 -34 2 0 101 -19 2 0 103 -13 2 0 108 -16 2 0 111 -16 2 0 46 -34 2 0 115 -12 2 0 59 -34 2 0
EndChar
StartChar: w
Encoding: 119 119 88
Width: 455
Flags: HW
HStem: -9 14 302 14<246 264 264 264 367 388>
Back
522.949 313.965 m 1
 510.254 310.547 500 299.316 492.188 279.785 c 2
 375 -11.2305 l 1
 349.121 9.76562 l 1
 278.809 182.129 l 1
 189.941 -11.2305 l 1
 160.156 9.76562 l 1
 44.9219 293.945 l 2
 40.5273 304.688 30.7617 311.035 17.0898 312.988 c 1
 17.0898 339.844 l 1
 166.016 339.844 l 1
 166.016 312.988 l 1
 143.555 311.035 131.836 305.664 131.836 296.875 c 0
 131.836 290.527 136.719 274.414 145.996 249.023 c 1
 199.219 112.793 l 1
 254.883 232.91 l 1
 232.91 293.945 l 2
 230.957 299.805 225.586 304.688 216.797 308.105 c 0
 208.496 311.523 199.219 312.988 189.941 312.988 c 1
 189.941 339.844 l 1
 356.934 339.844 l 1
 356.934 313.965 l 1
 319.824 305.176 l 1
 316.895 301.758 314.941 297.852 314.941 293.945 c 0
 314.941 291.504 319.824 276.367 330.078 249.023 c 2
 378.906 112.793 l 1
 434.082 249.023 l 2
 436.035 254.395 437.988 260.742 439.453 268.066 c 0
 441.406 275.391 441.895 281.738 441.895 287.109 c 0
 441.895 304.199 433.105 312.988 416.016 312.988 c 1
 416.016 339.844 l 1
 522.949 339.844 l 1
 522.949 313.965 l 1
EndSplineSet
Fore
11 278 m 1
 11 296 l 1
 68 306 89 309 117 315 c 1
 132 257 137 213 139 128 c 1
 178 197 188 216 246 315 c 1
 264 315 l 1
 286 89 l 1
 347 160 367 192 367 212 c 0
 367 219 363 228 354 241 c 0
 343 255 339 265 339 274 c 0
 339 296 357 315 378 315 c 0
 399 315 419 296 419 273 c 0
 419 216 360 125 233 -9 c 1
 215 -9 l 1
 199 186 l 1
 194 175 193 173 186 162 c 0
 156 108 126 55 122 50 c 2
 83 -9 l 1
 65 -9 l 1
 66 22 l 1
 66 46 66 46 66 49 c 1
 65 102 l 1
 63 197 53 260 40 272 c 0
 34 277 28 278 11 278 c 1
EndSplineSet
KernsSLIF: 332 -16 2 0 333 -16 2 0 335 -16 2 0 266 -21 2 0 331 -16 2 0 336 -16 2 0 334 -16 2 0 339 -23 2 0 340 -23 2 0 338 -23 2 0 348 -20 2 0 351 -20 2 0 347 -20 2 0 364 -19 2 0 97 -16 2 0 99 -20 2 0 58 -38 2 0 44 -36 2 0 101 -23 2 0 103 -17 2 0 45 -4 2 0 108 -19 2 0 111 -20 2 0 46 -36 2 0 115 -16 2 0 59 -38 2 0
EndChar
StartChar: x
Encoding: 120 120 89
Width: 341
Flags: HW
HStem: -9 64 302 14<142 142 265 291>
Back
375 0 m 1
 211.914 0 l 1
 211.914 24.9023 l 1
 234.863 28.8086 l 2
 237.793 29.7852 238.77 32.7148 238.77 38.0859 c 0
 238.77 39.5508 238.281 41.5039 237.305 44.4336 c 0
 236.328 47.3633 234.375 51.2695 230.957 56.1523 c 2
 181.152 132.812 l 1
 131.836 57.1289 l 2
 124.023 44.9219 119.629 36.1328 119.141 30.7617 c 0
 118.164 28.8086 120.605 27.3438 125.977 26.3672 c 0
 131.348 25.3906 138.672 24.9023 147.949 24.9023 c 1
 147.949 0 l 1
 25.8789 0 l 1
 25.8789 24.9023 l 1
 34.1797 26.3672 40.0391 27.832 44.4336 28.8086 c 0
 48.8281 30.2734 51.7578 31.7383 54.1992 33.2031 c 0
 62.5 38.5742 71.2891 47.8516 80.0781 61.0352 c 2
 158.203 174.805 l 1
 95.2148 272.949 l 2
 80.5664 294.922 l 0
 75.6836 302.246 69.8242 306.641 62.9883 308.105 c 2
 30.7617 312.012 l 1
 30.7617 339.844 l 1
 198.242 339.844 l 1
 198.242 312.012 l 1
 177.246 312.012 166.992 309.57 166.992 304.199 c 0
 166.992 297.363 178.223 276.855 201.172 242.188 c 1
 212.402 259.277 221.191 272.949 228.027 283.691 c 0
 234.863 293.945 237.793 300.781 237.793 304.199 c 0
 237.793 309.57 228.516 312.012 209.961 312.012 c 1
 209.961 339.844 l 1
 340.82 339.844 l 1
 340.82 312.012 l 1
 313.477 312.012 293.945 303.223 282.227 285.156 c 2
 225.098 203.125 l 1
 314.941 65.918 l 2
 322.266 54.6875 331.055 45.4102 340.332 38.0859 c 0
 350.098 30.7617 361.816 26.3672 375 24.9023 c 1
 375 0 l 1
EndSplineSet
Fore
273 84 m 1
 287 74 l 1
 246 14 217 -9 184 -9 c 0
 171 -9 157 -2 149 9 c 0
 134 28 128 46 118 97 c 1
 102 70 l 2
 62 5 46 -9 12 -9 c 0
 -14 -9 -31 8 -31 31 c 0
 -31 53 -15 70 6 70 c 0
 14 70 23 67 33 61 c 0
 40 57 44 55 48 55 c 0
 59 55 67 61 81 83 c 2
 111 131 l 1
 90 236 l 1
 83 270 74 282 52 282 c 0
 46 282 42 282 28 281 c 1
 28 299 l 1
 142 315 l 1
 155 296 160 279 173 221 c 1
 227 297 249 315 281 315 c 0
 301 315 320 296 320 273 c 0
 320 254 302 238 282 238 c 0
 274 238 270 239 260 245 c 0
 252 249 247 251 243 251 c 0
 227 251 210 235 186 195 c 0
 183 190 182 189 180 186 c 1
 202 80 l 2
 208 54 214 44 227 44 c 0
 240 44 246 50 273 84 c 1
EndSplineSet
KernsSLIF: 339 -9 2 0 99 -6 2 0 101 -9 2 0 111 -7 2 0 113 -8 2 0
EndChar
StartChar: y
Encoding: 121 121 90
Width: 303
Flags: HW
HStem: -140 14 302 14<215 237>
VStem: 224 44
Back
229.004 -6.83594 m 1
 339.844 291.016 l 2
 346.68 309.082 358.398 317.871 375 317.871 c 1
 375 346.191 l 1
 258.789 346.191 l 1
 258.789 317.871 l 1
 272.461 317.871 281.738 316.406 287.109 312.988 c 0
 291.016 310.547 292.969 306.641 292.969 301.758 c 1
 230.957 119.141 l 1
 155.762 287.109 l 2
 152.832 294.922 150.879 300.781 150.879 305.176 c 0
 150.879 313.477 165.039 317.871 192.871 317.871 c 1
 192.871 346.191 l 1
 26.8555 346.191 l 1
 26.8555 317.871 l 1
 47.8516 313.965 60.0586 308.105 63.9648 299.805 c 2
 189.941 19.043 l 1
 168.945 -35.1562 l 2
 157.227 -66.8945 143.555 -83.0078 128.906 -83.0078 c 0
 126.465 -83.0078 123.535 -82.5195 120.117 -81.0547 c 0
 116.699 -79.5898 113.281 -78.125 109.863 -77.1484 c 0
 104.492 -74.2188 99.6094 -72.2656 94.7266 -70.8008 c 0
 89.3555 -69.8242 83.4961 -68.8477 77.1484 -68.8477 c 0
 61.5234 -68.8477 50.293 -73.7305 42.9688 -83.4961 c 0
 35.6445 -93.2617 32.2266 -103.516 32.2266 -115.234 c 0
 32.2266 -128.906 37.1094 -140.625 47.3633 -149.414 c 0
 57.6172 -158.691 73.7305 -163.086 95.2148 -163.086 c 0
 145.02 -163.086 189.453 -110.84 229.004 -6.83594 c 1
EndSplineSet
Fore
10 281 m 1
 10 299 l 1
 54 303 79 307 111 315 c 1
 124 283 141 207 156 126 c 1
 165 75 l 1
 212 166 224 195 224 215 c 0
 224 224 220 229 208 239 c 0
 191 251 186 259 186 276 c 0
 186 297 205 315 225 315 c 0
 248 315 268 295 268 272 c 0
 268 203 186 41 98 -68 c 0
 60 -113 16 -140 -22 -140 c 0
 -46 -140 -64 -122 -64 -99 c 0
 -64 -79 -48 -61 -30 -61 c 0
 -18 -61 -1 -68 11 -76 c 0
 16 -81 29 -85 34 -85 c 0
 46 -85 64 -71 79 -52 c 0
 91 -35 97 -18 97 -3 c 0
 97 18 85 85 63 194 c 0
 53 242 42 270 30 277 c 0
 25 280 22 281 10 281 c 1
EndSplineSet
KernsSLIF: 332 -8 2 0 333 -8 2 0 335 -8 2 0 266 -12 2 0 331 -8 2 0 336 -8 2 0 334 -8 2 0 339 -15 2 0 340 -15 2 0 338 -15 2 0 348 -12 2 0 351 -12 2 0 347 -12 2 0 364 -11 2 0 97 -7 2 0 99 -11 2 0 58 -29 2 0 44 -17 2 0 101 -15 2 0 103 -15 2 0 45 1 2 0 108 -10 2 0 111 -11 2 0 46 -17 2 0 115 -8 2 0 59 -30 2 0
EndChar
StartChar: z
Encoding: 122 122 91
Width: 265
Flags: HW
HStem: -53 20<158 169> 241 66<61 71 71 170>
Back
321.777 109.863 m 1
 312.012 0 l 1
 26.8555 0 l 1
 26.8555 20.0195 l 1
 208.984 299.805 l 1
 125.977 299.805 l 2
 106.445 299.805 93.75 293.945 87.4023 282.227 c 0
 81.0547 270.02 77.1484 254.883 76.1719 236.816 c 1
 41.9922 236.816 l 1
 45.8984 339.844 l 1
 312.012 339.844 l 1
 312.012 317.871 l 1
 127.93 39.0625 l 1
 208.984 39.0625 l 2
 236.328 39.0625 255.859 44.4336 267.578 56.1523 c 0
 279.297 67.3828 287.109 88.3789 291.992 119.141 c 1
 321.777 109.863 l 1
EndSplineSet
Fore
9 201 m 1
 38 307 l 1
 251 307 l 1
 251 300 l 1
 59 71 l 1
 94 56 111 40 132 -1 c 0
 144 -25 152 -33 165 -33 c 0
 173 -33 180 -29 180 -23 c 0
 180 -20 178 -17 175 -12 c 0
 169 -4 166 1 166 9 c 0
 166 28 182 44 200 44 c 0
 219 44 236 28 236 9 c 0
 236 -26 204 -53 162 -53 c 0
 135 -53 110 -44 73 -19 c 0
 49 -3 36 3 23 3 c 0
 16 3 11 1 1 -6 c 0
 -1 -8 -7 -12 -12 -16 c 1
 -29 -1 l 1
 170 241 l 1
 71 241 l 2
 51 241 40 231 28 199 c 1
 9 201 l 1
EndSplineSet
EndChar
StartChar: braceleft
Encoding: 123 123 92
Width: 237
Flags: HW
HStem: 455 14<243 298>
VStem: 19 71<-74 -57> 61 70<114 132>
Back
201.172 -121.094 m 1
 179.688 -121.094 161.621 -119.629 146.484 -117.188 c 0
 131.348 -114.258 119.629 -109.375 110.84 -102.051 c 0
 89.8438 -85.4492 79.1016 -57.1289 79.1016 -17.0898 c 2
 79.1016 101.074 l 2
 79.1016 122.559 73.7305 138.672 62.9883 149.414 c 0
 52.2461 160.645 32.2266 170.41 2.92969 179.199 c 1
 31.7383 187.012 51.2695 196.777 62.5 208.008 c 0
 73.7305 219.238 79.1016 234.863 79.1016 254.883 c 2
 79.1016 376.953 l 2
 79.1016 416.992 89.8438 444.824 110.84 459.961 c 0
 127.441 473.145 157.715 479.98 201.172 479.98 c 1
 201.172 456.055 l 1
 179.199 450.684 164.062 442.383 155.762 431.152 c 0
 147.949 419.434 144.043 402.832 144.043 379.883 c 2
 144.043 266.113 l 2
 144.043 238.77 140.137 217.773 132.812 203.125 c 1
 125 191.895 115.234 183.594 103.027 179.199 c 1
 119.629 170.41 130.859 159.668 136.23 147.461 c 0
 141.113 135.254 144.043 116.211 144.043 90.8203 c 2
 144.043 -20.9961 l 2
 144.043 -43.457 147.949 -60.5469 156.738 -71.2891 c 0
 165.039 -82.5195 179.688 -91.3086 201.172 -98.1445 c 1
 201.172 -121.094 l 1
EndSplineSet
Fore
298 468 m 1xa0
 296 460 l 1
 240 450 215 427 201 375 c 2
 171 259 l 1
 155 201 134 183 68 170 c 1
 119 156 130 147 130 118 c 0xa0
 130 102 124 70 111 29 c 0
 98 -14 90 -48 90 -66 c 0
 90 -98 105 -112 145 -119 c 1
 143 -128 l 1
 80 -126 53 -121 36 -107 c 0
 25 -96 19 -83 19 -66 c 0xc0
 19 -46 30 5 43 43 c 0
 54 76 61 106 61 122 c 0
 61 146 46 159 3 170 c 1
 64 183 83 200 97 249 c 1
 128 371 l 1
 150 446 189 468 298 468 c 1xa0
EndSplineSet
EndChar
StartChar: bar
Encoding: 124 124 93
Width: 150
Flags: HW
HStem: -12 14 454 14<45 105 105 105>
VStem: 45 60<-12 468>
Back
46.875 -117.188 m 1
 12.207 -117.188 l 1
 12.207 477.051 l 1
 46.875 477.051 l 1
 46.875 -117.188 l 1
EndSplineSet
Fore
45 -12 m 1
 45 468 l 1
 105 468 l 1
 105 -12 l 1
 45 -12 l 1
EndSplineSet
EndChar
StartChar: braceright
Encoding: 125 125 94
Width: 237
Flags: HW
HStem: 455 14<66 66>
VStem: 79 70<208 227> 119 71<399 416>
Back
180.176 169.922 m 1
 162.109 164.551 149.414 157.227 142.578 146.973 c 0
 135.742 137.207 131.836 121.582 131.836 101.074 c 2
 131.836 -17.0898 l 2
 131.836 -57.1289 122.07 -85.4492 102.051 -102.051 c 0
 86.4258 -114.746 56.1523 -121.094 11.2305 -121.094 c 1
 11.2305 -98.1445 l 1
 49.8047 -87.4023 68.8477 -61.5234 68.8477 -20.9961 c 2
 68.8477 90.8203 l 2
 68.8477 119.141 72.7539 139.16 80.0781 151.855 c 2
 79.1016 150.879 l 1
 84.9609 162.109 94.7266 171.387 107.91 178.223 c 1
 92.7734 186.035 82.5195 196.289 77.1484 209.473 c 0
 71.7773 222.656 68.8477 241.211 68.8477 266.113 c 2
 68.8477 379.883 l 2
 68.8477 401.855 64.4531 418.945 56.1523 430.664 c 0
 47.3633 442.383 32.2266 450.684 11.2305 456.055 c 1
 11.2305 479.98 l 1
 56.1523 479.98 86.9141 473.145 103.027 459.961 c 0
 122.559 444.824 131.836 416.504 131.836 375.977 c 2
 131.836 254.883 l 2
 131.836 219.727 147.949 196.777 180.176 187.012 c 1
 180.176 169.922 l 1
EndSplineSet
Fore
-88 -128 m 1xc0
 -86 -119 l 1
 -31 -109 -5 -87 8 -35 c 2
 39 82 l 1
 55 140 75 158 142 171 c 1
 91 184 79 194 79 223 c 0xc0
 79 238 85 266 98 311 c 0
 113 359 119 391 119 408 c 0
 119 438 103 453 64 460 c 1
 66 468 l 1
 130 467 156 462 173 447 c 0
 185 437 190 424 190 408 c 0xa0
 190 387 180 337 167 298 c 0
 156 265 149 235 149 218 c 0
 149 195 164 182 206 171 c 1
 145 157 126 141 113 91 c 1
 81 -31 l 1
 60 -105 20 -128 -88 -128 c 1xc0
EndSplineSet
EndChar
StartChar: asciitilde
Encoding: 126 126 95
Width: 389
Flags: HW
HStem: 119 60<262 276> 166 60<110 132>
Back
347.168 168.945 m 1
 325.195 143.066 l 1
 310.059 128.906 l 2
 295.41 117.188 276.855 110.84 253.906 110.84 c 0
 246.094 110.84 235.84 112.305 223.633 115.723 c 0
 210.938 118.652 196.777 123.535 180.176 130.859 c 0
 150.879 143.555 127.441 149.902 110.84 149.902 c 0
 94.2383 149.902 76.1719 133.789 57.1289 101.074 c 1
 20.9961 145.02 l 1
 44.4336 184.57 75.1953 204.102 113.77 204.102 c 0
 131.348 204.102 156.25 196.777 188.965 183.105 c 0
 204.102 176.758 217.285 172.363 228.516 169.434 c 0
 239.258 166.504 248.535 164.551 254.883 164.062 c 0
 270.508 164.062 289.551 180.176 312.012 212.891 c 1
 347.168 168.945 l 1
EndSplineSet
Fore
315 210 m 1x80
 352 178 l 1
 321 134 300 119 268 119 c 0x80
 246 119 228 125 197 142 c 0
 165 159 144 166 120 166 c 0
 100 166 89 159 73 137 c 1
 37 169 l 1
 59 208 85 226 119 226 c 0x40
 145 226 159 221 212 198 c 0
 246 183 256 180 268 180 c 0
 284 180 298 188 315 210 c 1x80
EndSplineSet
EndChar
StartChar: uniF700
Encoding: 128 63232 96
Width: 366
Flags: W
HStem: 0 21G<184 258> 103 31<134 144> 201 31<161 180> 308 46<318 342> 310 21G<164 186> 333 60<224 243> 368 20G<385 424>
VStem: 98.671 26.454<147 161> 241.161 76.1646<211 224>
Back
252.93 196.777 m 2
 252.93 214.844 248.047 230.957 237.793 245.605 c 0
 228.027 259.766 214.355 271.973 196.777 282.227 c 0
 183.594 290.039 168.457 295.898 151.855 298.828 c 0
 135.254 302.246 117.188 304.199 98.1445 304.199 c 2
 76.1719 304.199 l 1
 86.4258 318.848 104.492 326.172 128.906 326.172 c 0
 131.836 326.172 136.23 325.195 142.09 323.242 c 0
 147.949 320.801 155.273 318.848 164.062 315.918 c 0
 175.293 312.5 187.012 309.57 199.707 306.641 c 0
 211.914 303.711 221.191 301.758 228.027 301.758 c 0
 268.066 301.758 294.922 328.125 309.082 379.883 c 1
 270.996 379.883 l 1
 266.113 370.605 261.719 362.793 256.836 356.445 c 0
 252.441 350.098 246.094 347.168 238.77 347.168 c 0
 235.84 347.168 230.469 349.121 223.633 353.027 c 0
 216.309 356.934 209.473 360.84 202.148 365.234 c 2
 187.012 373.047 l 2
 177.734 378.418 168.457 381.836 159.18 382.812 c 0
 149.902 384.277 140.137 384.766 130.859 384.766 c 0
 117.188 384.766 103.516 381.836 90.8203 375.488 c 0
 78.125 369.141 67.3828 360.84 57.6172 350.098 c 0
 47.8516 339.355 39.5508 326.66 33.2031 312.5 c 0
 26.3672 298.34 21.9727 283.203 20.0195 267.09 c 1
 67.3828 267.09 103.516 263.184 128.906 255.859 c 0
 145.508 250.488 158.203 243.164 166.016 232.91 c 0
 173.828 223.145 178.711 210.938 180.176 196.777 c 1
 163.574 216.797 141.113 227.051 113.77 227.051 c 0
 93.2617 227.051 78.125 221.191 68.3594 208.984 c 0
 58.5938 196.777 54.1992 181.641 54.1992 163.086 c 0
 54.1992 148.926 58.5938 135.254 67.8711 121.582 c 0
 77.1484 107.91 88.8672 101.074 103.027 101.074 c 0
 116.211 101.074 127.441 105.957 137.207 116.211 c 0
 146.484 125.977 151.855 138.184 152.832 151.855 c 1
 161.621 135.254 168.457 114.746 172.852 89.8438 c 0
 177.734 65.4297 180.176 35.1562 180.176 0 c 1
 252.93 0 l 1
 252.93 196.777 l 2
79.1016 164.062 m 0
 79.1016 173.34 81.0547 181.152 85.4492 187.5 c 0
 89.8438 193.848 95.7031 196.777 103.027 196.777 c 0
 110.352 196.777 116.211 193.848 121.094 187.5 c 0
 125.488 181.152 127.93 173.34 127.93 164.062 c 0
 127.93 154.785 125.488 146.973 121.094 140.625 c 0
 116.211 134.277 110.352 130.859 103.027 130.859 c 0
 95.7031 130.859 89.8438 134.277 85.4492 140.625 c 0
 81.0547 146.973 79.1016 154.785 79.1016 164.062 c 0
EndSplineSet
Fore
241.161 213.76 m 0
 241.161 269.534 166.55 273 96 273 c 1
 123 338 186 393 243 393 c 0
 262 393 281 392 297 381 c 2
 309 373 l 2
 323 365 335 354 342 354 c 0
 357 354 370 369 385 388 c 1
 424 388 l 1
 394 335 359 308 318 308 c 0
 305 308 279 316 257 323 c 0
 241 328 229 333 224 333 c 0
 198 333 179 326 164 310 c 1
 186 310 l 2
 226 310 258 304 281 288 c 0
 304.282 272.479 317.325 250.934 317.325 224.77 c 0
 317.325 217.22 316.239 209.285 314 201 c 2
 258 0 l 1
 184 0 l 1
 197.333 48 203.556 86.2222 203.556 116.148 c 0
 203.556 131.111 202 144 199 155 c 1
 188 127 162 103 134 103 c 0
 111.487 103 98.671 125.627 98.671 149.049 c 0
 98.671 154.757 99.4323 160.513 101 166 c 0
 112 204 139 232 180 232 c 0
 208 232 228 222 240 201 c 1
 240.77 205.467 241.161 209.72 241.161 213.76 c 0
161 201 m 0
 143.127 201 125.125 177.635 125.125 153.828 c 0
 125.125 141.875 130.75 134 142 134 c 0
 160.663 134 179.143 157.208 179.143 180.354 c 0
 179.143 192.957 172.369 201 161 201 c 0
EndSplineSet
KernsSLIF: 212 20 0 0 215 20 0 0 214 20 0 0 213 20 0 0
EndChar
StartChar: uniF701
Encoding: 129 63233 97
Width: 0
Flags: W
HStem: 454 39.9506<-181 -176> 520 49<-148 -134>
Back
-241.211 477.051 m 0
 -231.445 474.121 -222.656 471.68 -214.355 469.238 c 0
 -206.055 466.309 -198.242 463.379 -190.918 459.961 c 1
 -201.172 472.168 -214.355 483.398 -230.957 493.652 c 0
 -247.559 503.906 -265.137 508.789 -284.18 508.789 c 0
 -293.457 508.789 -303.711 507.812 -314.453 505.371 c 0
 -325.684 502.93 -331.055 498.047 -331.055 490.234 c 0
 -331.055 486.816 -328.125 484.863 -321.777 484.375 c 0
 -315.918 484.375 -310.059 483.887 -304.199 483.887 c 0
 -290.527 483.887 -279.297 483.398 -270.508 481.934 c 0
 -261.719 480.469 -251.465 479.004 -241.211 477.051 c 0
-149.902 400.879 m 1
 -160.645 408.203 -173.34 415.039 -188.477 420.41 c 0
 -203.613 426.27 -218.75 431.152 -233.887 435.059 c 0
 -244.141 437.5 -254.883 439.941 -266.602 441.895 c 0
 -278.32 443.848 -289.551 444.824 -300.781 444.824 c 0
 -306.152 444.824 -312.012 444.824 -317.871 444.824 c 0
 -324.707 444.824 -330.566 444.824 -335.938 443.848 c 0
 -348.145 443.848 -357.91 444.824 -365.723 445.801 c 0
 -373.047 447.266 -379.883 450.195 -384.766 455.078 c 0
 -389.16 457.52 -392.578 461.426 -395.508 466.309 c 0
 -398.438 471.68 -399.902 476.562 -399.902 480.957 c 0
 -399.902 492.188 -395.02 503.906 -385.742 516.113 c 0
 -375.977 527.832 -366.211 536.133 -356.934 541.016 c 0
 -337.891 551.758 -314.453 557.129 -288.086 557.129 c 0
 -271.484 557.129 -253.906 553.223 -235.352 545.41 c 0
 -217.285 537.598 -200.684 527.344 -186.035 514.16 c 0
 -171.387 500.488 -159.18 484.863 -149.414 466.309 c 0
 -139.648 448.242 -134.766 428.223 -134.766 407.227 c 1
 -149.902 400.879 l 1
EndSplineSet
Fore
-181.754 493.951 m 0
 -133.482 493.951 -94.7449 486.016 -65 470 c 1
 -78 494 -108 520 -146 520 c 0
 -165 520 -195 517 -199 500 c 0
 -199.122 499.574 -199.181 499.177 -199.181 498.808 c 0
 -199.181 494.465 -191.038 493.951 -181.754 493.951 c 0
-40 409 m 1
 -57 425 -86 436 -116 444 c 0
 -134 449 -158 454 -181 454 c 2
 -199 454 l 2
 -206 454 -212 454 -217 453 c 0
 -242 453 -256 455 -264 465 c 0
 -269.571 468.979 -272.608 477.392 -272.608 485.197 c 0
 -272.608 487.2 -272.408 489.162 -272 491 c 0
 -265 515 -233 543 -212 552 c 1
 -189 564 -164 569 -136 569 c 0
 -76.6703 569 -18.0799 519.464 -18.0799 450.907 c 0
 -18.0799 439.732 -19.6364 428.053 -23 416 c 1
 -40 409 l 1
EndSplineSet
EndChar
StartChar: uniF702
Encoding: 130 63234 98
Width: 0
Flags: W
HStem: 463 39.96<-192 -174> 530 49<-145 -131>
DStem: -38 612 18 612 -55 550 -17 485
Back
-148.926 599.121 m 1
 -204.102 599.121 l 1
 -204.102 539.062 l 1
 -217.285 547.852 -230.957 554.688 -245.117 559.57 c 0
 -258.789 564.453 -273.438 566.895 -288.086 566.895 c 0
 -314.453 566.895 -337.891 561.523 -356.934 550.781 c 0
 -366.211 545.898 -375.977 537.109 -385.742 524.902 c 0
 -395.02 513.184 -399.902 501.465 -399.902 490.234 c 0
 -399.902 485.352 -398.438 480.469 -395.508 475.098 c 0
 -392.578 469.727 -389.16 465.82 -384.766 462.891 c 0
 -379.883 458.496 -373.047 455.566 -365.723 454.102 c 0
 -357.91 452.637 -348.145 452.148 -335.938 452.148 c 0
 -330.566 452.637 -324.707 453.125 -317.871 453.125 c 0
 -312.012 453.125 -306.152 453.125 -300.781 453.125 c 0
 -289.551 453.125 -278.32 452.148 -266.602 450.195 c 0
 -254.883 448.242 -244.141 445.801 -233.887 442.871 c 0
 -218.75 438.477 -202.148 432.129 -184.57 424.805 c 0
 -166.992 417.48 -150.391 408.691 -134.766 397.949 c 1
 -134.766 414.551 -136.23 429.199 -138.184 441.406 c 0
 -140.137 453.613 -143.555 464.844 -148.926 475.098 c 1
 -148.926 599.121 l 1
-241.211 485.84 m 0
 -251.465 487.793 -261.719 489.746 -270.508 491.211 c 0
 -279.297 492.188 -290.527 493.164 -304.199 493.164 c 0
 -310.059 493.164 -315.918 493.164 -321.777 493.652 c 0
 -328.125 493.652 -331.055 495.605 -331.055 499.023 c 0
 -331.055 506.836 -325.684 512.207 -314.453 515.137 c 0
 -303.711 517.578 -293.457 519.043 -284.18 519.043 c 0
 -265.137 519.043 -247.559 513.672 -230.957 502.93 c 0
 -214.355 492.188 -201.172 480.469 -190.918 467.773 c 1
 -198.242 472.168 -206.055 475.098 -214.355 478.027 c 0
 -222.656 480.469 -231.445 483.398 -241.211 485.84 c 0
EndSplineSet
Fore
-215 462 m 0
 -249.573 462 -270.02 468.623 -270.02 493.185 c 0
 -270.02 495.573 -269.701 497.896 -269 500 c 0
 -263 524 -231 551 -209 563 c 0
 -186 574 -161 579 -133 579 c 0
 -103 579 -78 568 -55 550 c 1
 -38 612 l 1
 18 612 l 1
 -17 485 l 1
 -15.5128 479.051 -14.8218 472.66 -14.8218 465.721 c 0
 -14.8218 449.332 -18.6769 429.887 -25 406 c 1
 -51 428 -84 443 -114 452 c 0
 -132 457 -156 463 -179 463 c 2
 -197 463 l 2
 -204 463 -210 463 -215 462 c 0
-178.888 502.96 m 0
 -129.943 502.96 -91.1374 495.931 -62 478 c 1
 -76 503 -105 530 -143 530 c 0
 -162 530 -192 526 -197 510 c 0
 -197.122 509.513 -197.181 509.059 -197.181 508.636 c 0
 -197.181 503.506 -188.526 502.96 -178.888 502.96 c 0
EndSplineSet
EndChar
StartChar: uniF703
Encoding: 131 63235 99
Width: 0
Flags: W
HStem: 463 39.96<-192 -174> 530 49<-145 -131> 572 40<-41 -29>
VStem: -27.0357 44.1945<556 566>
Back
-134.766 414.062 m 1
 -134.766 443.848 -143.066 470.215 -159.18 493.164 c 1
 -143.066 504.883 -134.766 520.508 -134.766 540.039 c 0
 -134.766 556.152 -141.113 569.824 -152.832 581.543 c 0
 -165.039 593.262 -179.199 599.121 -194.824 599.121 c 0
 -207.52 599.121 -219.238 595.703 -229.492 588.379 c 0
 -239.746 581.543 -247.559 572.266 -251.953 561.035 c 1
 -264.16 564.941 -275.879 566.895 -288.086 566.895 c 0
 -314.453 566.895 -337.891 561.523 -356.934 550.781 c 0
 -366.211 545.898 -375.977 537.109 -385.742 524.902 c 0
 -395.02 513.184 -399.902 501.465 -399.902 490.234 c 0
 -399.902 485.352 -398.438 480.469 -395.508 475.098 c 0
 -392.578 469.727 -389.16 465.82 -384.766 462.891 c 0
 -379.883 458.496 -373.047 455.566 -365.723 454.102 c 0
 -357.91 452.637 -348.145 452.148 -335.938 452.148 c 0
 -330.566 452.637 -324.707 453.125 -317.871 453.125 c 0
 -312.012 453.125 -306.152 453.125 -300.781 453.125 c 0
 -289.551 453.125 -278.32 452.148 -266.602 450.195 c 0
 -254.883 448.242 -244.141 445.801 -233.887 442.871 c 0
 -218.75 438.477 -203.613 433.105 -188.477 427.734 c 0
 -173.34 421.875 -160.645 415.527 -149.902 408.203 c 1
 -134.766 414.062 l 1
-241.211 485.84 m 0
 -251.465 487.793 -261.719 489.746 -270.508 491.211 c 0
 -279.297 492.188 -290.527 493.164 -304.199 493.164 c 0
 -310.059 493.164 -315.918 493.164 -321.777 493.652 c 0
 -328.125 493.652 -331.055 495.605 -331.055 499.023 c 0
 -331.055 506.836 -325.684 512.207 -314.453 515.137 c 0
 -303.711 517.578 -293.457 519.043 -284.18 519.043 c 0
 -265.137 519.043 -247.559 513.672 -230.957 502.93 c 0
 -214.355 492.188 -201.172 480.469 -190.918 467.773 c 1
 -198.242 472.168 -206.055 475.098 -214.355 478.027 c 0
 -222.656 480.469 -231.445 483.398 -241.211 485.84 c 0
-213.867 540.039 m 0
 -213.867 545.41 -212.402 549.805 -208.496 554.199 c 0
 -204.59 558.105 -200.195 560.059 -194.824 560.059 c 0
 -189.453 560.059 -185.547 558.105 -182.129 554.199 c 0
 -178.711 549.805 -176.758 545.41 -176.758 540.039 c 0
 -176.758 534.668 -178.711 530.273 -182.129 526.367 c 0
 -185.547 522.949 -189.453 520.996 -194.824 520.996 c 0
 -200.195 520.996 -204.59 522.949 -208.496 526.367 c 0
 -212.402 530.273 -213.867 534.668 -213.867 540.039 c 0
EndSplineSet
Fore
17.1588 566.588 m 0
 17.1588 538.604 -0.504766 517.622 -23 503 c 1
 -17.6061 490.594 -14.8307 477.024 -14.8307 462.448 c 0
 -14.8307 450 -16.8545 436.818 -21 423 c 1
 -37 417 l 1
 -55 432 -84 443 -114 452 c 0
 -132 457 -156 463 -179 463 c 2
 -197 463 l 2
 -204 463 -210 463 -215 462 c 0
 -249.573 462 -270.02 468.623 -270.02 493.185 c 0
 -270.02 495.573 -269.701 497.896 -269 500 c 0
 -263 524 -231 551 -209 563 c 0
 -186 574 -161 579 -133 579 c 0
 -121 579 -110 577 -98 573 c 1
 -83 596 -55 612 -29 612 c 0
 -1.36094 612 17.1588 592.358 17.1588 566.588 c 0
-178.888 502.96 m 0
 -129.943 502.96 -91.1374 495.931 -62 478 c 1
 -76 503 -105 530 -143 530 c 0
 -162 530 -192 526 -197 510 c 0
 -197.122 509.513 -197.181 509.059 -197.181 508.636 c 0
 -197.181 503.506 -188.526 502.96 -178.888 502.96 c 0
-40 572 m 0
 -52.0254 572 -66.6968 560.003 -66.6968 546.047 c 0
 -66.6968 537.679 -60.2682 532 -51 532 c 0
 -38.0372 532 -27.0357 543.813 -27.0357 558.242 c 0
 -27.0357 566.444 -31.3571 572 -40 572 c 0
EndSplineSet
EndChar
StartChar: uniF704
Encoding: 132 63236 100
Width: 0
Flags: W
HStem: 463 39.96<-192 -174> 530 49.6356<-160 -141>
DStem: -27 612 18 612 -47 541 -17 485
Back
-288.086 566.895 m 2
 -301.27 568.359 -313.965 567.383 -325.684 563.965 c 0
 -337.402 560.547 -347.656 556.152 -356.934 550.781 c 0
 -366.211 545.898 -375.977 537.109 -385.742 524.902 c 0
 -395.02 513.184 -399.902 501.465 -399.902 490.234 c 0
 -399.902 485.352 -398.438 480.469 -395.508 475.098 c 0
 -392.578 469.727 -389.16 465.82 -384.766 462.891 c 0
 -378.906 458.984 -372.559 456.055 -365.234 454.59 c 0
 -357.91 452.637 -348.145 452.148 -335.938 452.148 c 0
 -330.566 452.148 -324.707 452.148 -318.359 452.637 c 0
 -312.012 452.637 -306.152 453.125 -300.781 453.125 c 0
 -289.551 453.125 -278.32 452.148 -266.602 450.195 c 0
 -254.883 448.242 -244.141 445.801 -233.887 442.871 c 0
 -218.75 438.477 -202.148 432.129 -184.57 424.805 c 0
 -166.992 417.48 -150.391 408.691 -134.766 397.949 c 1
 -134.766 414.551 -136.23 429.199 -138.184 441.406 c 0
 -140.137 453.613 -143.555 464.844 -148.926 475.098 c 1
 -148.926 599.121 l 1
 -192.871 599.121 l 1
 -192.871 529.785 l 1
 -205.078 539.062 l 2
 -206.543 540.527 -208.984 542.48 -212.891 544.922 c 1
 -212.891 599.121 l 1
 -256.836 599.121 l 1
 -256.836 562.988 l 1
 -271.973 565.918 l 1
 -288.086 566.895 l 2
-241.211 485.84 m 0
 -251.465 488.77 -261.719 490.723 -270.508 491.699 c 0
 -279.297 492.676 -290.527 493.164 -304.199 493.164 c 0
 -310.059 493.164 -315.918 493.164 -321.777 493.652 c 0
 -328.125 493.652 -331.055 495.605 -331.055 499.023 c 0
 -331.055 506.836 -325.684 512.207 -314.453 515.137 c 0
 -303.711 517.578 -293.457 519.043 -284.18 519.043 c 0
 -265.137 519.043 -247.559 513.672 -230.957 502.93 c 0
 -214.355 492.188 -201.172 480.469 -190.918 467.773 c 1
 -198.242 472.168 -206.055 475.098 -214.355 478.027 c 0
 -222.656 480.469 -231.445 483.398 -241.211 485.84 c 0
EndSplineSet
Fore
-179 463 m 0
 -219.037 463 -270.02 456.562 -270.02 493.185 c 0
 -270.02 495.573 -269.701 497.896 -269 500 c 0
 -263 524 -231 551 -209 563 c 0
 -189.31 572.417 -168.153 579.636 -144.904 579.636 c 0
 -129.99 579.636 -115.697 576.36 -103 575 c 1
 -92 612 l 1
 -47 612 l 1
 -63 556 l 1
 -56.0877 549.088 -53.0677 547.066 -47 541 c 1
 -27 612 l 1
 18 612 l 1
 -17 485 l 1
 -15.5128 479.051 -14.8218 472.66 -14.8218 465.721 c 0
 -14.8218 449.332 -18.6769 429.887 -25 406 c 1
 -51 428 -84 443 -114 452 c 0
 -132 457 -156 463 -179 463 c 0
-178.888 502.96 m 0
 -129.943 502.96 -91.2918 496.026 -62 478 c 1
 -76 503 -105 530 -143 530 c 0
 -162 530 -192 526 -197 510 c 0
 -197.122 509.513 -197.181 509.059 -197.181 508.636 c 0
 -197.181 503.506 -188.526 502.96 -178.888 502.96 c 0
EndSplineSet
EndChar
StartChar: ellipsis
Encoding: 133 8230 101
Width: 682
Flags: HW
HStem: -9 14
VStem: 27 101<27 55> 254 101<27 55> 481 101<27 55>
Back
309.082 32.2266 m 0
 309.082 10.7422 293.945 -1.95312 264.16 -5.85938 c 1
 234.863 -5.85938 218.75 6.34766 215.82 30.7617 c 1
 215.82 57.6172 231.445 70.8008 263.184 70.8008 c 0
 276.855 70.8008 288.574 66.8945 296.875 59.082 c 0
 305.176 52.2461 309.082 43.457 309.082 32.2266 c 0
455.078 32.2266 m 0
 455.078 10.7422 439.453 -1.95312 409.18 -5.85938 c 1
 380.371 -5.85938 364.746 6.34766 361.816 30.7617 c 1
 361.816 57.6172 377.441 70.8008 408.203 70.8008 c 0
 421.387 70.8008 433.105 66.8945 442.871 59.082 c 0
 450.195 52.2461 454.102 43.457 455.078 32.2266 c 0
164.062 32.2266 m 0
 164.062 6.83594 148.438 -5.85938 117.188 -5.85938 c 0
 86.4258 -5.85938 70.8008 6.83594 70.8008 32.2266 c 0
 70.8008 58.1055 86.4258 70.8008 117.188 70.8008 c 0
 148.438 70.8008 164.062 58.1055 164.062 32.2266 c 0
EndSplineSet
Fore
79 92 m 0
 106 92 128 69 128 42 c 0
 128 13 106 -9 77 -9 c 0
 49 -9 27 13 27 42 c 0
 27 70 50 92 79 92 c 0
305 92 m 0
 332 92 355 69 355 42 c 0
 355 13 332 -9 304 -9 c 0
 276 -9 254 13 254 42 c 0
 254 70 276 92 305 92 c 0
532 92 m 0
 559 92 582 69 582 42 c 0
 582 13 559 -9 530 -9 c 0
 502 -9 481 13 481 42 c 0
 481 70 503 92 532 92 c 0
EndSplineSet
EndChar
StartChar: uniF705
Encoding: 134 63237 102
Width: 0
Flags: W
Back
-155.762 580.078 m 1
 -159.18 517.09 l 1
 -166.992 442.871 l 1
 -167.48 438.965 -170.41 435.547 -174.805 432.617 c 0
 -179.688 429.688 -183.594 428.223 -187.012 428.223 c 0
 -191.895 428.223 -195.801 429.688 -200.195 432.617 c 0
 -204.102 435.547 -206.543 438.965 -207.031 442.871 c 1
 -213.867 518.066 l 1
 -215.82 580.078 l 1
 -155.762 580.078 l 1
EndSplineSet
Fore
5 592 m 1
 -10.0476 543.381 -27.5376 497.204 -46 452 c 1
 -49 444 -63 437 -70 437 c 0
 -78.487 437 -86.0848 443.225 -86.0848 450.643 c 0
 -86.0848 451.091 -86.057 451.544 -86 452 c 1
 -77.741 500.074 -68.5108 547.177 -57 592 c 1
 5 592 l 1
EndSplineSet
EndChar
StartChar: uniF706
Encoding: 135 63238 103
Width: 0
Flags: W
HStem: 564 25<-147 -139>
VStem: -205.998 31.8692<507 520> -134.099 31.2479<539 551>
Back
-134.766 577.148 m 1
 -196.777 577.148 l 1
 -196.777 537.598 -204.59 508.301 -220.215 488.77 c 1
 -230.469 472.168 -246.582 461.914 -268.066 458.008 c 1
 -254.883 474.609 -248.047 496.094 -248.047 522.949 c 0
 -248.047 537.109 -252.441 549.316 -262.207 560.547 c 0
 -271.484 571.289 -282.715 577.148 -295.898 577.148 c 0
 -310.059 577.148 -321.289 571.289 -330.078 559.57 c 0
 -338.867 547.852 -342.773 535.156 -342.773 521.973 c 0
 -342.773 490.234 -331.543 471.191 -308.105 465.82 c 1
 -317.871 457.52 -331.055 452.148 -347.168 451.172 c 1
 -347.168 418.945 l 1
 -289.062 418.945 l 2
 -268.555 418.945 -250 422.363 -233.398 429.199 c 0
 -217.285 435.547 -201.66 444.824 -187.012 456.055 c 0
 -152.344 483.887 -134.766 524.414 -134.766 577.148 c 1
-312.988 520.996 m 0
 -312.988 529.785 -311.523 537.109 -308.105 542.969 c 0
 -304.688 548.828 -300.293 551.758 -294.922 551.758 c 0
 -289.551 551.758 -285.645 548.828 -282.715 542.969 c 0
 -279.297 537.109 -277.832 529.785 -277.832 520.996 c 0
 -277.832 512.207 -279.297 504.883 -282.715 499.023 c 0
 -285.645 493.164 -289.551 490.234 -294.922 490.234 c 0
 -300.293 490.234 -304.688 493.164 -308.105 499.023 c 0
 -311.523 504.883 -312.988 512.207 -312.988 520.996 c 0
EndSplineSet
Fore
-102.851 549.382 m 0
 -102.851 518.782 -125.619 484.446 -144 468 c 1
 -121 472 -102 482 -87 499 c 1
 -65 519 -49 549 -38 589 c 1
 25 589 l 1
 10 535 -18 494 -62 466 c 0
 -98 442 -134 428 -176 428 c 2
 -235 428 l 1
 -226 461 l 1
 -210 462 -195 467 -182 476 c 1
 -198.233 479.529 -205.998 490.031 -205.998 507.507 c 0
 -205.998 547.273 -174.45 589 -139 589 c 0
 -116.909 589 -102.851 571.595 -102.851 549.382 c 0
-145 564 m 0
 -159.293 564 -174.128 538.607 -174.128 518.168 c 0
 -174.128 507.627 -169.844 500 -162 500 c 0
 -148.231 500 -134.099 525.171 -134.099 546.82 c 0
 -134.099 556.846 -137.403 564 -145 564 c 0
EndSplineSet
EndChar
StartChar: uniF707
Encoding: 136 63239 104
Width: 0
Flags: W
HStem: 423 25<-233 -223> 524 37<-180 -169 -108 -99>
VStem: -268.329 29.0856<459 470> -200.099 32.9881<484 497> -95.8717 44.5381<509 521>
Back
-130.859 550.781 m 1
 -190.918 550.781 l 1
 -188.965 524.902 l 1
 -188.965 496.094 l 1
 -192.383 531.25 -212.891 548.828 -250 548.828 c 0
 -255.859 548.828 -261.719 547.363 -267.578 544.434 c 0
 -272.949 541.504 -277.832 537.598 -282.227 533.203 c 1
 -292.48 543.457 -304.688 548.828 -317.871 548.828 c 0
 -335.449 548.828 -349.121 544.922 -358.887 536.621 c 0
 -369.141 528.32 -376.465 519.043 -381.836 508.789 c 0
 -385.254 502.441 -387.695 495.605 -389.16 488.77 c 0
 -390.137 482.422 -391.113 475.098 -391.113 467.773 c 0
 -391.113 454.59 -386.23 442.383 -376.953 431.152 c 0
 -367.676 419.434 -356.445 414.062 -342.773 414.062 c 0
 -325.684 414.062 -313.477 419.434 -306.641 430.664 c 0
 -299.316 441.406 -295.898 452.148 -295.898 462.891 c 0
 -295.898 477.051 -297.852 487.793 -301.758 496.094 c 0
 -306.152 503.906 -311.523 509.766 -317.871 513.184 c 1
 -301.758 513.184 -293.945 500.488 -293.945 475.098 c 1
 -263.184 475.098 l 1
 -263.184 500.488 -257.812 513.184 -248.047 513.184 c 0
 -236.816 513.184 -230.957 504.395 -230.957 486.816 c 0
 -230.957 477.539 -234.863 468.75 -243.164 460.449 c 0
 -250.977 452.148 -260.254 446.777 -270.996 443.848 c 1
 -270.996 412.109 l 1
 -177.734 412.109 -130.859 458.496 -130.859 550.781 c 1
-360.84 462.891 m 0
 -360.84 470.215 -359.375 476.562 -355.469 480.957 c 0
 -352.051 485.84 -347.168 487.793 -341.797 487.793 c 0
 -336.426 487.793 -332.52 485.84 -330.078 480.957 c 0
 -327.148 476.562 -326.172 470.215 -326.172 462.891 c 0
 -326.172 455.566 -327.148 449.707 -330.078 445.312 c 0
 -332.52 441.406 -336.426 438.965 -341.797 438.965 c 0
 -347.168 438.965 -352.051 441.406 -355.469 445.312 c 0
 -359.375 449.707 -360.84 455.566 -360.84 462.891 c 0
EndSplineSet
Fore
-268.329 461.85 m 0
 -268.329 510.468 -217.764 561 -169 561 c 0
 -155 561 -145 555 -137 544 c 1
 -127 553 -112 561 -99 561 c 0
 -67.0238 561 -51.3335 547.546 -51.3335 521.831 c 0
 -51.3335 516.986 -51.8904 511.707 -53 506 c 1
 -47.2344 523.901 -42.1296 542.463 -39 563 c 1
 22 563 l 1
 -4 468 -65 421 -160 421 c 1
 -151 453 l 1
 -124.151 458.837 -95.8717 482.594 -95.8717 510.271 c 0
 -95.8717 519.424 -100.156 524 -108 524 c 0
 -118 524 -127 511 -134 485 c 1
 -165 485 l 1
 -162.958 492.583 -161.938 499.061 -161.938 504.432 c 0
 -161.938 517.477 -167.958 524 -180 524 c 1
 -172 519.333 -167.111 510.667 -167.111 497.111 c 0
 -167.111 462.456 -191.408 423 -233 423 c 0
 -255.513 423 -268.329 440.455 -268.329 461.85 c 0
-211 498 m 0
 -224.301 498 -239.243 482.408 -239.243 463.82 c 0
 -239.243 453.601 -233.677 448 -225 448 c 0
 -210.431 448 -200.099 468.197 -200.099 485.339 c 0
 -200.099 493.231 -203.403 498 -211 498 c 0
EndSplineSet
EndChar
StartChar: uniF708
Encoding: 137 63240 105
Width: 0
Flags: W
HStem: 486 46<-172 -128 -51 -11>
Back
-262.207 577.148 m 1
 -258.789 520.996 l 1
 -312.012 520.996 l 1
 -312.012 476.074 l 1
 -257.812 476.074 l 1
 -255.859 418.945 l 1
 -200.195 418.945 l 1
 -196.777 476.074 l 1
 -143.066 476.074 l 1
 -143.066 520.996 l 1
 -194.824 520.996 l 1
 -192.871 577.148 l 1
 -262.207 577.148 l 1
EndSplineSet
Fore
-105 589 m 1
 -34 589 l 1
 -51 532 l 1
 2 532 l 1
 -11 486 l 1
 -66 486 l 1
 -85 428 l 1
 -142 428 l 1
 -128 486 l 1
 -184 486 l 1
 -171 532 l 1
 -116 532 l 1
 -105 589 l 1
EndSplineSet
EndChar
StartChar: uniF709
Encoding: 138 63241 106
Width: 0
Flags: W
HStem: 416 27<-113 -102>
VStem: -162.011 48.0107<456 464> -70.2548 34.7197<494.133 508.428> 5.3923 59.6077<614 621>
Back
-153.809 542.969 m 0
 -136.23 550.293 -123.535 558.105 -116.211 566.406 c 0
 -108.887 574.707 -104.98 584.473 -104.98 596.191 c 0
 -104.98 599.121 -104.98 602.539 -104.98 605.957 c 0
 -104.98 609.375 -105.469 613.77 -106.934 620.117 c 1
 -164.062 606.934 l 1
 -162.598 603.516 -161.621 600.098 -161.133 597.168 c 0
 -160.156 593.75 -160.156 590.332 -160.156 586.914 c 0
 -160.156 581.543 -164.551 576.66 -172.852 572.266 c 0
 -181.641 568.359 -188.477 565.43 -192.871 563.965 c 0
 -223.145 551.27 -246.094 538.574 -262.695 525.879 c 0
 -278.809 513.184 -287.109 495.117 -287.109 472.168 c 0
 -287.109 454.102 -280.762 438.477 -269.043 425.781 c 0
 -256.836 413.574 -241.699 407.227 -223.145 407.227 c 0
 -206.543 407.227 -193.359 413.086 -183.594 424.805 c 0
 -173.828 437.012 -168.945 452.148 -168.945 471.191 c 0
 -168.945 497.559 -176.758 515.625 -191.895 524.902 c 1
 -186.523 528.32 -180.664 531.738 -173.828 534.668 c 0
 -167.48 537.598 -160.645 540.527 -153.809 542.969 c 0
-237.793 465.82 m 0
 -237.793 475.098 -236.328 483.398 -233.398 490.234 c 0
 -230.469 496.582 -226.074 500 -220.215 500 c 0
 -213.379 500 -208.496 496.582 -205.566 490.234 c 0
 -202.637 483.398 -201.172 475.098 -201.172 465.82 c 0
 -201.172 456.543 -202.637 449.219 -206.055 442.871 c 0
 -209.473 437.012 -213.867 434.082 -220.215 434.082 c 0
 -226.074 434.082 -230.469 437.012 -233.398 442.871 c 0
 -236.328 449.219 -237.793 456.543 -237.793 465.82 c 0
EndSplineSet
Fore
-3 554 m 0
 -19 549 -34 543 -47 536 c 1
 -39.5183 530.389 -35.5351 521.279 -35.5351 508.428 c 0
 -35.5351 500.668 -36.9878 491.543 -40 481 c 0
 -50 443 -79 416 -113 416 c 0
 -143.149 416 -162.011 435.255 -162.011 462.403 c 0
 -162.011 468.572 -161.037 475.149 -159 482 c 0
 -146 530 -105 550 -37 576 c 0
 -27 579 0 588 3 599 c 0
 4.4641 604.856 5.3923 609.641 5.3923 614.531 c 0
 5.3923 616.321 5.26795 618.124 5 620 c 1
 67 633 l 1
 66 627 65 622 65 619 c 2
 62 609 l 2
 55 585 38 570 -3 554 c 0
-83 511 m 0
 -98.9777 511 -114 479.437 -114 458.556 c 0
 -114 448.778 -110 443 -102 443 c 0
 -84.7403 443 -70.2548 470.852 -70.2548 494.133 c 0
 -70.2548 504.169 -73.8523 511 -83 511 c 0
EndSplineSet
EndChar
StartChar: uniF70A
Encoding: 139 63242 107
Width: 0
Flags: W
Back
-80.0781 569.824 m 1
 -83.0078 506.836 l 1
 -90.8203 433.105 l 1
 -92.2852 429.199 -95.2148 425.293 -99.6094 422.363 c 0
 -104.004 419.434 -107.91 417.969 -110.84 417.969 c 0
 -115.723 417.969 -120.117 419.434 -124.023 422.363 c 0
 -127.93 425.293 -130.371 429.199 -130.859 433.105 c 1
 -138.184 507.812 l 1
 -141.113 569.824 l 1
 -80.0781 569.824 l 1
EndSplineSet
Fore
79 582 m 1
 64.7159 533.284 47.8627 487.137 30 442 c 1
 24 434 12 427 5 427 c 0
 -3.95644 427 -11.3085 432.615 -11.3085 439.535 c 0
 -11.3085 440.341 -11.2087 441.165 -11 442 c 1
 -2.6721 489.672 6.32378 536.676 17 582 c 1
 79 582 l 1
EndSplineSet
EndChar
